G04 #@! TF.FileFunction,Copper,L1,Top,Signal*
%FSLAX46Y46*%
G04 Gerber Fmt 4.6, Leading zero omitted, Abs format (unit mm)*
G04 Created by KiCad (PCBNEW 4.0.7) date 03/29/18 17:50:05*
%MOMM*%
%LPD*%
G01*
G04 APERTURE LIST*
%ADD10C,0.150000*%
%ADD11C,0.300000*%
%ADD12C,0.100000*%
%ADD13C,1.800000*%
%ADD14C,2.000000*%
%ADD15R,2.000000X2.000000*%
%ADD16C,1.778000*%
%ADD17R,1.778000X1.778000*%
%ADD18C,1.524000*%
%ADD19C,1.500000*%
%ADD20C,2.200000*%
%ADD21C,1.700000*%
%ADD22C,2.700020*%
%ADD23C,3.200000*%
%ADD24R,1.397000X1.397000*%
%ADD25C,1.397000*%
%ADD26R,1.800000X1.800000*%
%ADD27C,1.000000*%
%ADD28C,1.500000*%
%ADD29C,2.200000*%
%ADD30C,2.000000*%
%ADD31C,0.750000*%
%ADD32C,0.500000*%
G04 APERTURE END LIST*
D10*
D11*
X99418828Y-101287971D02*
X100275971Y-101287971D01*
X99847399Y-101287971D02*
X99847399Y-99787971D01*
X99990256Y-100002257D01*
X100133114Y-100145114D01*
X100275971Y-100216543D01*
X98583714Y-76840471D02*
X98297999Y-76840471D01*
X98155142Y-76769043D01*
X98083714Y-76697614D01*
X97940856Y-76483329D01*
X97869428Y-76197614D01*
X97869428Y-75626186D01*
X97940856Y-75483329D01*
X98012285Y-75411900D01*
X98155142Y-75340471D01*
X98440856Y-75340471D01*
X98583714Y-75411900D01*
X98655142Y-75483329D01*
X98726571Y-75626186D01*
X98726571Y-75983329D01*
X98655142Y-76126186D01*
X98583714Y-76197614D01*
X98440856Y-76269043D01*
X98155142Y-76269043D01*
X98012285Y-76197614D01*
X97940856Y-76126186D01*
X97869428Y-75983329D01*
D12*
X115000000Y-25000000D02*
X25000000Y-25000000D01*
X115000000Y-175000000D02*
X115000000Y-25000000D01*
X25000000Y-175000000D02*
X115000000Y-175000000D01*
X25000000Y-25000000D02*
X25000000Y-175000000D01*
X20000000Y-180000000D02*
X20000000Y-20000000D01*
X120000000Y-180000000D02*
X20000000Y-180000000D01*
X120000000Y-20000000D02*
X120000000Y-180000000D01*
X20000000Y-20000000D02*
X120000000Y-20000000D01*
D13*
X89289780Y-75519860D03*
D14*
X103814000Y-107051000D03*
D15*
X109609780Y-107016460D03*
D14*
X64548000Y-52483000D03*
X67088000Y-52483000D03*
X41688000Y-85630000D03*
X41688000Y-83090000D03*
X41688000Y-80550000D03*
X41688000Y-78010000D03*
X41688000Y-75470000D03*
X41690000Y-66540000D03*
X41690000Y-64000000D03*
X41690000Y-61460000D03*
X41690000Y-58920000D03*
X41690000Y-56380000D03*
X41688000Y-118650000D03*
X41688000Y-121190000D03*
X69628000Y-121190000D03*
X67088000Y-121190000D03*
X64548000Y-121190000D03*
X62008000Y-121190000D03*
X59468000Y-121190000D03*
X56928000Y-121190000D03*
X54388000Y-121190000D03*
X51848000Y-121190000D03*
X49308000Y-121190000D03*
X46768000Y-121190000D03*
X72168000Y-118650000D03*
X74708000Y-118650000D03*
X77248000Y-118650000D03*
X79788000Y-118650000D03*
X84868000Y-121190000D03*
X84868000Y-118650000D03*
X89289780Y-60559860D03*
X89289780Y-65639860D03*
X89289780Y-68179860D03*
X104546400Y-63100200D03*
X104546400Y-60560200D03*
X104546400Y-58020200D03*
X104546400Y-55480200D03*
X104546400Y-52940200D03*
X104546400Y-50400200D03*
X104546400Y-47860200D03*
X104546400Y-45320200D03*
X104546400Y-42780200D03*
X104546400Y-40240200D03*
D16*
X96298000Y-60484000D03*
D14*
X96298000Y-63024000D03*
D17*
X96298000Y-65564000D03*
D14*
X41688000Y-111030000D03*
X41688000Y-108490000D03*
X41688000Y-105950000D03*
X41688000Y-103410000D03*
X41688000Y-100870000D03*
X41688000Y-98330000D03*
X41688000Y-95790000D03*
X41688000Y-93250000D03*
X104495600Y-33052000D03*
X101955600Y-35592000D03*
X99415600Y-33052000D03*
X64548000Y-67850000D03*
X67088000Y-67850000D03*
X79536180Y-52482660D03*
X79536180Y-67849660D03*
X82076180Y-67849660D03*
X74282300Y-75057000D03*
X84442300Y-75057000D03*
X75311000Y-79095600D03*
X85471000Y-79095600D03*
D15*
X97568000Y-99092000D03*
D14*
X97568000Y-96552000D03*
X97568000Y-94012000D03*
X97568000Y-91472000D03*
X97568000Y-88932000D03*
X97568000Y-86392000D03*
X97568000Y-83852000D03*
X97568000Y-81312000D03*
X97568000Y-78772000D03*
D13*
X69632360Y-73310320D03*
X71154180Y-75215660D03*
X69759360Y-77120320D03*
X87537180Y-86264660D03*
X85251180Y-84105660D03*
X87535000Y-82836000D03*
D14*
X72930000Y-94012000D03*
X70390000Y-94012000D03*
X90964000Y-94012000D03*
X93504000Y-94012000D03*
X90052318Y-90333499D03*
X93527242Y-80786221D03*
D15*
X103005780Y-88220460D03*
D14*
X103005780Y-90760460D03*
X105188000Y-83852000D03*
X105188000Y-81312000D03*
X92488000Y-60738000D03*
D18*
X92488000Y-70898000D03*
D15*
X95536000Y-104172000D03*
D19*
X98076000Y-104172000D03*
D13*
X95536000Y-108490000D03*
X98076000Y-108490000D03*
D14*
X72136000Y-128556000D03*
X74676000Y-128556000D03*
X77216000Y-128556000D03*
X79756000Y-128556000D03*
X82296000Y-128556000D03*
X84836000Y-128556000D03*
X87376000Y-128556000D03*
X89916000Y-128556000D03*
D13*
X100108000Y-112808000D03*
X100108000Y-115348000D03*
X100108000Y-117888000D03*
D15*
X95028000Y-111792000D03*
D14*
X95028000Y-114332000D03*
D13*
X90319974Y-111674026D03*
X92116026Y-109877974D03*
D15*
X96520000Y-118396000D03*
D14*
X93980000Y-118396000D03*
X105571180Y-118141660D03*
X105571180Y-115601660D03*
X75724000Y-94012000D03*
X85884000Y-94012000D03*
X48546000Y-115094000D03*
X51086000Y-115094000D03*
X53626000Y-115094000D03*
X56166000Y-115094000D03*
X104648000Y-122968000D03*
X104648000Y-125508000D03*
X104648000Y-128048000D03*
X104648000Y-130588000D03*
X67088000Y-118650000D03*
X69628000Y-118650000D03*
D16*
X99314000Y-130588000D03*
X99314000Y-128048000D03*
D17*
X99314000Y-125508000D03*
D14*
X86360000Y-131858000D03*
X96520000Y-131858000D03*
X67596000Y-131858000D03*
X65056000Y-131858000D03*
X62516000Y-131858000D03*
X46260000Y-131858000D03*
X43720000Y-131858000D03*
X41180000Y-131858000D03*
X35871400Y-153600400D03*
X38411400Y-153600400D03*
X40951400Y-153600400D03*
X35312600Y-142932400D03*
X35312600Y-145472400D03*
X35312600Y-148012400D03*
X52584600Y-155607000D03*
X55124600Y-155607000D03*
X57664600Y-155607000D03*
X56928000Y-131858000D03*
X54388000Y-131858000D03*
D15*
X51848000Y-131858000D03*
D14*
X67443600Y-156750000D03*
X69983600Y-156750000D03*
D15*
X72523600Y-156750000D03*
D16*
X35338000Y-132366000D03*
D14*
X35338000Y-134906000D03*
D17*
X35338000Y-137446000D03*
D14*
X71660000Y-131858000D03*
X81820000Y-131858000D03*
X59696600Y-135795000D03*
X69856600Y-135795000D03*
X50893502Y-143425702D03*
X43709298Y-136241498D03*
X35338000Y-128302000D03*
X35338000Y-118142000D03*
X46118302Y-143171702D03*
X38934098Y-135987498D03*
X45955200Y-159518600D03*
X45955200Y-149358600D03*
X66910200Y-160128200D03*
X77070200Y-160128200D03*
X33560000Y-157004000D03*
X43720000Y-157004000D03*
X39783000Y-141611600D03*
X39783000Y-144151600D03*
X65792600Y-140798800D03*
D20*
X83572600Y-140798800D03*
X69290262Y-148031495D03*
X54725738Y-137833305D03*
X40087800Y-146767800D03*
X57867800Y-146767800D03*
D14*
X49310180Y-136429660D03*
X46770180Y-136429660D03*
X62135000Y-155657800D03*
X62135000Y-158197800D03*
X48571400Y-159493200D03*
X48571400Y-149333200D03*
X59417200Y-162795200D03*
X74657200Y-162795200D03*
X92202000Y-136938000D03*
X92202000Y-139478000D03*
D15*
X92202000Y-142018000D03*
D21*
X43570000Y-165501000D03*
X41030000Y-165501000D03*
X41030000Y-167499980D03*
X43570000Y-167499980D03*
D22*
X48299480Y-170200000D03*
X36300520Y-170200000D03*
D23*
X90080000Y-170000000D03*
X79920000Y-170000000D03*
D14*
X81825000Y-161110000D03*
X84365000Y-161110000D03*
X86905000Y-161110000D03*
X83095000Y-163650000D03*
X85635000Y-163650000D03*
X88175000Y-163650000D03*
D24*
X101600000Y-139732000D03*
D25*
X101600000Y-142272000D03*
X101600000Y-144812000D03*
X101600000Y-147352000D03*
X101600000Y-149892000D03*
X101600000Y-152432000D03*
D23*
X107310000Y-170000000D03*
X99690000Y-170000000D03*
D14*
X101595000Y-163650000D03*
X105405000Y-161110000D03*
X102865000Y-161110000D03*
X104135000Y-163650000D03*
X28609180Y-109886660D03*
X28609180Y-107346660D03*
D15*
X28609180Y-104806660D03*
D14*
X86868000Y-136938000D03*
X89408000Y-136938000D03*
X98298000Y-139732000D03*
X95758000Y-139732000D03*
X33020000Y-115348000D03*
X35560000Y-115348000D03*
X30708600Y-120885200D03*
X30708600Y-118345200D03*
X79781400Y-121190000D03*
D15*
X93400000Y-156200000D03*
X93400000Y-164000000D03*
X96400000Y-161000000D03*
X97189180Y-156241660D03*
D14*
X30400000Y-166470000D03*
X30400000Y-163930000D03*
X51460400Y-171475400D03*
X51460400Y-168935400D03*
X51460400Y-166395400D03*
X89289780Y-78059860D03*
X74320400Y-72580500D03*
X84480400Y-72580500D03*
X82804000Y-91948000D03*
X82804000Y-81788000D03*
X86749780Y-73259860D03*
X86749780Y-70719860D03*
D15*
X57759600Y-160058100D03*
D26*
X56616600Y-167944800D03*
D23*
X79350000Y-154290000D03*
X84430000Y-154290000D03*
D14*
X108513780Y-93808460D03*
X106013780Y-103808460D03*
X103513780Y-93808460D03*
D27*
X41688000Y-78010000D02*
X48853320Y-78010000D01*
X88569800Y-38732480D02*
X88569800Y-41637200D01*
X88527780Y-38690460D02*
X88569800Y-38732480D01*
X48903780Y-38690460D02*
X88527780Y-38690460D01*
X48903780Y-77959540D02*
X48903780Y-38690460D01*
X48853320Y-78010000D02*
X48903780Y-77959540D01*
X102396180Y-94900660D02*
X102396180Y-100006060D01*
X102243780Y-100158460D02*
X102243780Y-103918000D01*
X102396180Y-100006060D02*
X102243780Y-100158460D01*
X103513780Y-93808460D02*
X103513780Y-103513780D01*
X103513780Y-103513780D02*
X103918000Y-103918000D01*
X102902000Y-95406480D02*
X102902000Y-103918000D01*
X103005780Y-103714460D02*
X103005780Y-103918000D01*
X103005780Y-103814220D02*
X103005780Y-103714460D01*
X102902000Y-103918000D02*
X103005780Y-103814220D01*
X102902000Y-90710000D02*
X103209320Y-90710000D01*
X103209320Y-90710000D02*
X103513780Y-91014460D01*
X103513780Y-91014460D02*
X103513780Y-93808460D01*
X105442000Y-88170000D02*
X108543320Y-88170000D01*
X102902000Y-88170000D02*
X105442000Y-88170000D01*
X108513780Y-88199540D02*
X108513780Y-93808460D01*
X108543320Y-88170000D02*
X108513780Y-88199540D01*
X106458000Y-107016460D02*
X109609780Y-107016460D01*
D28*
X102902000Y-93122660D02*
X102902000Y-95406480D01*
X102902000Y-95406480D02*
X103407820Y-94900660D01*
X102902000Y-90710000D02*
X102902000Y-93122660D01*
X102902000Y-93122660D02*
X102902000Y-94394840D01*
X102902000Y-94394840D02*
X102396180Y-94900660D01*
X102396180Y-94900660D02*
X102396180Y-94776180D01*
X102396180Y-94776180D02*
X99092000Y-91472000D01*
X99092000Y-91472000D02*
X97568000Y-91472000D01*
X100108000Y-112808000D02*
X100108000Y-110757000D01*
X100108000Y-110757000D02*
X103814000Y-107051000D01*
X43709298Y-136241498D02*
X43709298Y-131868702D01*
X43709298Y-131868702D02*
X43720000Y-131858000D01*
X46770180Y-136429660D02*
X46770180Y-132368180D01*
X46770180Y-132368180D02*
X46260000Y-131858000D01*
D27*
X35871400Y-153600400D02*
X33687000Y-153600400D01*
X33687000Y-153600400D02*
X33560000Y-153727400D01*
X33560000Y-153727400D02*
X33560000Y-157004000D01*
X48571400Y-159493200D02*
X52457600Y-159493200D01*
X52457600Y-159493200D02*
X52584600Y-159366200D01*
X52584600Y-159366200D02*
X52584600Y-155607000D01*
X41688000Y-93250000D02*
X60231840Y-93250000D01*
X74456180Y-57562660D02*
X79536180Y-52482660D01*
X63915180Y-57562660D02*
X74456180Y-57562660D01*
X62010180Y-59467660D02*
X63915180Y-57562660D01*
X62010180Y-91471660D02*
X62010180Y-59467660D01*
X60231840Y-93250000D02*
X62010180Y-91471660D01*
X59343180Y-88169660D02*
X59343180Y-89312660D01*
X59343180Y-63783480D02*
X59343180Y-88169660D01*
X59343180Y-89312660D02*
X57438180Y-91217660D01*
X59343180Y-63783480D02*
X59343180Y-54895660D01*
X59597180Y-54641660D02*
X62772180Y-54641660D01*
X36610180Y-89312660D02*
X36610180Y-93376660D01*
X36610180Y-93376660D02*
X36483180Y-93503660D01*
X36483180Y-112172660D02*
X36483180Y-93503660D01*
X37372520Y-113062000D02*
X36483180Y-112172660D01*
X48546000Y-113062000D02*
X37372520Y-113062000D01*
X48546000Y-115094000D02*
X48546000Y-113062000D01*
X56422180Y-89312660D02*
X36610180Y-89312660D01*
X56422180Y-89312660D02*
X57311180Y-88423660D01*
X38896180Y-108362660D02*
X39023520Y-108490000D01*
X41688000Y-108490000D02*
X39023520Y-108490000D01*
X57438180Y-91217660D02*
X38896180Y-91217660D01*
X38896180Y-91217660D02*
X38896180Y-108362660D01*
X59343180Y-63783480D02*
X59345360Y-63785660D01*
X64548000Y-67850000D02*
X64548000Y-71403480D01*
X64548000Y-71403480D02*
X65058180Y-71913660D01*
X67088000Y-54641660D02*
X62772180Y-54641660D01*
X67088000Y-52483000D02*
X67088000Y-54641660D01*
X62772180Y-54641660D02*
X61756180Y-54641660D01*
X57311180Y-88423660D02*
X57186360Y-88423660D01*
X57186360Y-88423660D02*
X57311180Y-88423660D01*
X57311180Y-49054000D02*
X57311180Y-88423660D01*
X64548000Y-49051480D02*
X64548000Y-48926660D01*
X64548000Y-48926660D02*
X64548000Y-52483000D01*
X59468000Y-49051480D02*
X57311180Y-49054000D01*
X59468000Y-49051480D02*
X64548000Y-49051480D01*
X35560000Y-115348000D02*
X35560000Y-113789480D01*
X33181180Y-104806660D02*
X28609180Y-104806660D01*
X34832180Y-106457660D02*
X33181180Y-104806660D01*
X34832180Y-113061660D02*
X34832180Y-106457660D01*
X35560000Y-113789480D02*
X34832180Y-113061660D01*
X28609180Y-109886660D02*
X28609180Y-116245780D01*
X28609180Y-116245780D02*
X30708600Y-118345200D01*
X33020000Y-115348000D02*
X33020000Y-107693480D01*
X32673180Y-107346660D02*
X28609180Y-107346660D01*
X33020000Y-107693480D02*
X32673180Y-107346660D01*
X82076180Y-66325660D02*
X82736580Y-66325660D01*
X82736580Y-66325660D02*
X82939780Y-66528860D01*
X82076180Y-67849660D02*
X82076180Y-66325660D01*
X82076180Y-66325660D02*
X81390380Y-65639860D01*
X79536180Y-67849660D02*
X77885180Y-67849660D01*
X77952600Y-68399680D02*
X77952600Y-90639900D01*
X78397100Y-91084400D02*
X78397100Y-98330000D01*
X77952600Y-90639900D02*
X78397100Y-91084400D01*
X78397100Y-98330000D02*
X41942000Y-98330000D01*
X77952600Y-67917080D02*
X77952600Y-68399680D01*
X77885180Y-67849660D02*
X77952600Y-67917080D01*
X89289780Y-60559860D02*
X88349980Y-60559860D01*
X69755000Y-70391840D02*
X69632360Y-73310320D01*
X76615180Y-63531660D02*
X69755000Y-70391840D01*
X85378180Y-63531660D02*
X76615180Y-63531660D01*
X88349980Y-60559860D02*
X85378180Y-63531660D01*
X89289780Y-60559860D02*
X89289780Y-54235260D01*
X83981180Y-48926660D02*
X64677180Y-48926660D01*
X89289780Y-54235260D02*
X83981180Y-48926660D01*
X82177780Y-67290860D02*
X88400780Y-67290860D01*
X88400780Y-67290860D02*
X89289780Y-68179860D01*
X82939780Y-66528860D02*
X89238860Y-66528860D01*
X89238860Y-66528860D02*
X89350000Y-66640000D01*
X82076180Y-67849660D02*
X89289780Y-68179860D01*
X82076180Y-67849660D02*
X82177780Y-67290860D01*
X82177780Y-67290860D02*
X82939780Y-66528860D01*
X82939780Y-66528860D02*
X83828780Y-65639860D01*
X74320400Y-72580500D02*
X74320400Y-68544240D01*
X74320400Y-68544240D02*
X77224780Y-65639860D01*
X77224780Y-65639860D02*
X81390380Y-65639860D01*
X81390380Y-65639860D02*
X83828780Y-65639860D01*
X83828780Y-65639860D02*
X89289780Y-65639860D01*
X89289780Y-68179860D02*
X86749780Y-68179860D01*
X86749780Y-68179860D02*
X86749780Y-70719860D01*
X85479780Y-72580500D02*
X86749780Y-73259860D01*
X90052318Y-90333499D02*
X87535000Y-90333499D01*
D28*
X93527242Y-80786221D02*
X93516141Y-80786221D01*
X93516141Y-80786221D02*
X92659200Y-79929280D01*
X92659200Y-79929280D02*
X92659200Y-77756000D01*
X84430000Y-154290000D02*
X87760800Y-154290000D01*
X87760800Y-154290000D02*
X88036400Y-154565600D01*
X73793600Y-154565600D02*
X76623800Y-154565600D01*
X76623800Y-154565600D02*
X77849100Y-155790900D01*
X79350000Y-154290000D02*
X74069200Y-154290000D01*
D29*
X73793600Y-154565600D02*
X73285600Y-154057600D01*
D28*
X74069200Y-154290000D02*
X73793600Y-154565600D01*
X79350000Y-154290000D02*
X79350000Y-156273100D01*
X79350000Y-156273100D02*
X79121000Y-156502100D01*
D27*
X89289780Y-78059860D02*
X88190000Y-77674400D01*
X88190000Y-77674400D02*
X86868000Y-76352400D01*
X87535000Y-82836000D02*
X87535000Y-82495000D01*
X87535000Y-82495000D02*
X89140000Y-80890000D01*
X89140000Y-80890000D02*
X93758000Y-80890000D01*
X90710000Y-69690000D02*
X91535780Y-80225860D01*
X91535780Y-80225860D02*
X91789780Y-80479860D01*
X87535000Y-82836000D02*
X88044000Y-82836000D01*
X88044000Y-82836000D02*
X89190000Y-81690000D01*
X89190000Y-81690000D02*
X93758000Y-81690000D01*
D30*
X89289780Y-68179860D02*
X90710000Y-68000000D01*
X90710000Y-68000000D02*
X89350000Y-66640000D01*
X89350000Y-66640000D02*
X89340000Y-66640000D01*
X89289780Y-65639860D02*
X89948000Y-65460000D01*
X89948000Y-65460000D02*
X89948000Y-64706500D01*
D27*
X41690000Y-61460000D02*
X44210000Y-61460000D01*
X44482000Y-65310000D02*
X44482000Y-73184000D01*
X44482000Y-73184000D02*
X44228000Y-72930000D01*
X44228000Y-72930000D02*
X39402000Y-72930000D01*
X39402000Y-72930000D02*
X39148000Y-73184000D01*
X39148000Y-73184000D02*
X39148000Y-87662000D01*
X44482000Y-61732000D02*
X44482000Y-65310000D01*
X44210000Y-61460000D02*
X44482000Y-61732000D01*
X41690000Y-58920000D02*
X43960000Y-58920000D01*
X102641400Y-50400200D02*
X101879400Y-49638200D01*
X93199200Y-40958000D02*
X93199200Y-34271200D01*
X44228000Y-33560000D02*
X92488000Y-33560000D01*
X44194000Y-58686000D02*
X44228000Y-33560000D01*
X101879400Y-49638200D02*
X93199200Y-40958000D01*
X93199200Y-34271200D02*
X92488000Y-33560000D01*
X102641400Y-50400200D02*
X104546400Y-50400200D01*
X43960000Y-58920000D02*
X44194000Y-58686000D01*
X75311000Y-79095600D02*
X70180200Y-79095600D01*
X70180200Y-79095600D02*
X69755000Y-78670400D01*
X84480400Y-72580500D02*
X84264500Y-72580500D01*
X84480400Y-72580500D02*
X85479780Y-72580500D01*
X85479780Y-72580500D02*
X87096600Y-72580500D01*
X87096600Y-72580500D02*
X87401400Y-72885300D01*
X104546400Y-52940200D02*
X102768400Y-52940200D01*
X90862400Y-36989000D02*
X90202000Y-36328600D01*
X101955600Y-52127400D02*
X90862400Y-41034200D01*
X46260000Y-36328600D02*
X90202000Y-36328600D01*
X46260000Y-75470000D02*
X41688000Y-75470000D01*
X46260000Y-75470000D02*
X46260000Y-36328600D01*
X90862400Y-41034200D02*
X90862400Y-36989000D01*
X102768400Y-52940200D02*
X101955600Y-52127400D01*
X104546400Y-55480200D02*
X102412800Y-55480200D01*
X102069900Y-55137300D02*
X88569800Y-41637200D01*
X102412800Y-55480200D02*
X102069900Y-55137300D01*
X104546400Y-60560200D02*
X101390700Y-60560200D01*
X99606100Y-58775600D02*
X99606100Y-58769500D01*
X101390700Y-60560200D02*
X99606100Y-58775600D01*
D30*
X59436000Y-160058100D02*
X59436000Y-159067500D01*
X59436000Y-159067500D02*
X59283600Y-158915100D01*
X57759600Y-160058100D02*
X59436000Y-160058100D01*
X59436000Y-160058100D02*
X59588400Y-160210500D01*
X57664600Y-155607000D02*
X57664600Y-159963100D01*
X57664600Y-159963100D02*
X57759600Y-160058100D01*
X57759600Y-160058100D02*
X58140600Y-160058100D01*
X58140600Y-160058100D02*
X59283600Y-158915100D01*
X59283600Y-158915100D02*
X59283600Y-155674378D01*
D31*
X37846000Y-120174000D02*
X38100000Y-119920000D01*
X56928000Y-129064000D02*
X57676800Y-129064000D01*
X58572400Y-129057400D02*
X58572400Y-129064000D01*
X57683400Y-129057400D02*
X58572400Y-129057400D01*
X57676800Y-129064000D02*
X57683400Y-129057400D01*
D27*
X62135000Y-154863800D02*
X57715400Y-154863800D01*
X57715400Y-154825700D02*
X57664600Y-155607000D01*
X57715400Y-154863800D02*
X57715400Y-154825700D01*
X62135000Y-155657800D02*
X62135000Y-154863800D01*
X62135000Y-154863800D02*
X62135000Y-154831800D01*
X62135000Y-154831800D02*
X62909200Y-154057600D01*
X72523600Y-155790900D02*
X77849100Y-155790900D01*
X77849100Y-155790900D02*
X78409800Y-155790900D01*
X78409800Y-155790900D02*
X79121000Y-156502100D01*
X79121000Y-156502100D02*
X79121000Y-156750000D01*
X72523600Y-156750000D02*
X79121000Y-156750000D01*
X79121000Y-156750000D02*
X79089000Y-156750000D01*
X79089000Y-156750000D02*
X79121000Y-156718000D01*
D32*
X76047600Y-158369000D02*
X82423000Y-158369000D01*
X82423000Y-158369000D02*
X84099400Y-156692600D01*
D30*
X83547200Y-134982200D02*
X82302100Y-134982200D01*
X82302100Y-134982200D02*
X79286100Y-137998200D01*
X72168000Y-136252200D02*
X80854800Y-136252200D01*
X80854800Y-136252200D02*
X82219800Y-137617200D01*
X79286100Y-137998200D02*
X72796400Y-137998200D01*
X72796400Y-137998200D02*
X71609200Y-136811000D01*
X79286100Y-137998200D02*
X80562450Y-139274550D01*
X69551800Y-138868400D02*
X78251300Y-138868400D01*
X78251300Y-138868400D02*
X79609950Y-140227050D01*
X69551800Y-140055600D02*
X77190600Y-140055600D01*
X77190600Y-140055600D02*
X78486000Y-141351000D01*
X69551800Y-142836900D02*
X75895200Y-142836900D01*
X75933300Y-142798800D02*
X75933300Y-143903700D01*
X75895200Y-142836900D02*
X75933300Y-142798800D01*
X69551800Y-141611600D02*
X76232000Y-141611600D01*
X76232000Y-141611600D02*
X77228700Y-142608300D01*
X71558400Y-144177000D02*
X75660000Y-144177000D01*
X75660000Y-144177000D02*
X75933300Y-143903700D01*
D29*
X71558400Y-144177000D02*
X69551800Y-144177000D01*
D30*
X75933300Y-143903700D02*
X77228700Y-142608300D01*
X77228700Y-142608300D02*
X78486000Y-141351000D01*
X78486000Y-141351000D02*
X79609950Y-140227050D01*
X79609950Y-140227050D02*
X80562450Y-139274550D01*
X80562450Y-139274550D02*
X82219800Y-137617200D01*
X82219800Y-137617200D02*
X82974677Y-136862323D01*
D29*
X82974677Y-136862323D02*
X84659030Y-136828970D01*
D28*
X76790550Y-166820850D02*
X72675750Y-166820850D01*
X72675750Y-166820850D02*
X71628000Y-165773100D01*
X77851000Y-165760400D02*
X71640700Y-165760400D01*
X71640700Y-165760400D02*
X71628000Y-165773100D01*
X71628000Y-165773100D02*
X71628000Y-167944800D01*
X79800000Y-166014400D02*
X78638400Y-166014400D01*
X78613000Y-166039800D02*
X78613000Y-164998400D01*
X78638400Y-166014400D02*
X78613000Y-166039800D01*
X76055200Y-167944800D02*
X76055200Y-167556200D01*
X76055200Y-167556200D02*
X76790550Y-166820850D01*
X76790550Y-166820850D02*
X77851000Y-165760400D01*
X78613000Y-164998400D02*
X77851000Y-165760400D01*
X79800000Y-163811400D02*
X78613000Y-164998400D01*
X79800000Y-163811400D02*
X79800000Y-163800000D01*
X55575200Y-167944800D02*
X55575200Y-170637200D01*
X54712400Y-171500000D02*
X54635400Y-171500000D01*
X55575200Y-170637200D02*
X54712400Y-171500000D01*
X54635400Y-171500000D02*
X54635400Y-171500000D01*
X55575200Y-167944800D02*
X56616600Y-167944800D01*
X56616600Y-170535600D02*
X76264400Y-170535600D01*
X76264400Y-170535600D02*
X76600000Y-170200000D01*
X56616600Y-169545000D02*
X76600000Y-169545000D01*
X76600000Y-169545000D02*
X76600000Y-170200000D01*
D30*
X56616600Y-167944800D02*
X71628000Y-167944800D01*
X71628000Y-167944800D02*
X76055200Y-167944800D01*
X76055200Y-167944800D02*
X76600000Y-167400000D01*
X56616600Y-167944800D02*
X56616600Y-170535600D01*
X56616600Y-170535600D02*
X56616600Y-169545000D01*
X56616600Y-169545000D02*
X56616600Y-170611800D01*
D32*
X68649600Y-165767000D02*
X76047600Y-158369000D01*
X68173600Y-165767000D02*
X68649600Y-165767000D01*
X91577000Y-156200000D02*
X93400000Y-156200000D01*
X91084400Y-156692600D02*
X91577000Y-156200000D01*
X84099400Y-156692600D02*
X91084400Y-156692600D01*
X84574900Y-158400000D02*
X84365000Y-158400000D01*
D27*
X93758000Y-78016600D02*
X94538300Y-78016600D01*
X94538300Y-78016600D02*
X96298000Y-76256900D01*
X96298000Y-70898000D02*
X96298000Y-76256900D01*
X96298000Y-76256900D02*
X95402400Y-77152500D01*
X95402400Y-77152500D02*
X95402400Y-71589900D01*
X95402400Y-71589900D02*
X94202500Y-70390000D01*
D28*
X93758000Y-84106000D02*
X93758000Y-81690000D01*
X93758000Y-81690000D02*
X93758000Y-80890000D01*
X93758000Y-80890000D02*
X93758000Y-81527900D01*
X93758000Y-81527900D02*
X93758000Y-80003900D01*
X93758000Y-80003900D02*
X93758000Y-79305400D01*
X93758000Y-79305400D02*
X93758000Y-78016600D01*
X93758000Y-78016600D02*
X93497400Y-77756000D01*
X93758000Y-91472000D02*
X93758000Y-84106000D01*
X93758000Y-84106000D02*
X93504000Y-83852000D01*
X97568000Y-91472000D02*
X93758000Y-91472000D01*
X97568000Y-83852000D02*
X93504000Y-83852000D01*
D27*
X91789780Y-80479860D02*
X90964000Y-71952100D01*
X91789780Y-80479860D02*
X90964000Y-71406000D01*
X90964000Y-71406000D02*
X91472000Y-70898000D01*
X91846980Y-80375860D02*
X91897200Y-71488800D01*
X91897200Y-71488800D02*
X92488000Y-70898000D01*
X92659200Y-77756000D02*
X92659200Y-71069200D01*
X92659200Y-71069200D02*
X92488000Y-70898000D01*
X93497400Y-77756000D02*
X93497400Y-71272900D01*
X93497400Y-71272900D02*
X93872300Y-70898000D01*
X94411800Y-77756000D02*
X94411800Y-71437500D01*
X94411800Y-71437500D02*
X93872300Y-70898000D01*
X93872300Y-70898000D02*
X93758000Y-70898000D01*
X82804000Y-91948000D02*
X82804000Y-95783400D01*
X85699600Y-98679000D02*
X93504000Y-98679000D01*
X82804000Y-95783400D02*
X85699600Y-98679000D01*
X87401400Y-72885300D02*
X87401400Y-75819000D01*
X87401400Y-75819000D02*
X86868000Y-76352400D01*
X82804000Y-81788000D02*
X82804000Y-78625700D01*
X82804000Y-78625700D02*
X84353400Y-77076300D01*
X84353400Y-77076300D02*
X86144100Y-77076300D01*
X86144100Y-77076300D02*
X86868000Y-76352400D01*
X112649000Y-114033300D02*
X112649000Y-117602000D01*
X112649000Y-117602000D02*
X113189000Y-118142000D01*
X79536180Y-67849660D02*
X79244080Y-67849660D01*
X93421200Y-77756000D02*
X93497400Y-77756000D01*
X93497400Y-77756000D02*
X94411800Y-77756000D01*
D30*
X89289780Y-68179860D02*
X89289780Y-65639860D01*
X84836000Y-128556000D02*
X84836000Y-131858000D01*
X84175600Y-131902200D02*
X84175600Y-131858000D01*
X84791800Y-131902200D02*
X84175600Y-131902200D01*
X84836000Y-131858000D02*
X84791800Y-131902200D01*
X84836000Y-128556000D02*
X84836000Y-129387600D01*
X82296000Y-131927600D02*
X81820000Y-131858000D01*
X84836000Y-129387600D02*
X82296000Y-131927600D01*
X82296000Y-128556000D02*
X83058000Y-128556000D01*
X83058000Y-128556000D02*
X86360000Y-131858000D01*
X82296000Y-133070600D02*
X86334600Y-133070600D01*
X86334600Y-133070600D02*
X87376000Y-134112000D01*
X87376000Y-128556000D02*
X87376000Y-134112000D01*
X87376000Y-134112000D02*
X84659030Y-136828970D01*
X82296000Y-128556000D02*
X89916000Y-128556000D01*
X82296000Y-128556000D02*
X82296000Y-133070600D01*
X82296000Y-133070600D02*
X82296000Y-133731000D01*
X83547200Y-134982200D02*
X84106000Y-134982200D01*
X82296000Y-133731000D02*
X83547200Y-134982200D01*
D27*
X82296000Y-128556000D02*
X84836000Y-128556000D01*
X51460400Y-168935400D02*
X51308000Y-168935400D01*
X49872580Y-167499980D02*
X43570000Y-167499980D01*
X51308000Y-168935400D02*
X49872580Y-167499980D01*
X51460400Y-166395400D02*
X51435000Y-166395400D01*
X50540600Y-165501000D02*
X43570000Y-165501000D01*
X51435000Y-166395400D02*
X50540600Y-165501000D01*
X30400000Y-163930000D02*
X32281800Y-163930000D01*
X40349600Y-164820600D02*
X41030000Y-165501000D01*
X33172400Y-164820600D02*
X40349600Y-164820600D01*
X32281800Y-163930000D02*
X33172400Y-164820600D01*
X41030000Y-167499980D02*
X34480180Y-167499980D01*
X33450200Y-166470000D02*
X30400000Y-166470000D01*
X34480180Y-167499980D02*
X33450200Y-166470000D01*
D28*
X76600000Y-171500000D02*
X57504800Y-171500000D01*
X76600000Y-171500000D02*
X76600000Y-170200000D01*
X57504800Y-171500000D02*
X54635400Y-171500000D01*
X54635400Y-171500000D02*
X49600000Y-171500000D01*
X48300000Y-170200000D02*
X49600000Y-171500000D01*
X48299480Y-170200000D02*
X48300000Y-170200000D01*
X76600000Y-167500000D02*
X76600000Y-167400000D01*
X76600000Y-167500000D02*
X76600000Y-170200000D01*
D27*
X33200000Y-173200000D02*
X33200000Y-169000000D01*
X47800000Y-173700000D02*
X33200000Y-173200000D01*
X85635000Y-163650000D02*
X85635000Y-172765000D01*
X85200000Y-173700000D02*
X85635000Y-172765000D01*
X47800000Y-173700000D02*
X85200000Y-173700000D01*
X26400000Y-168600000D02*
X26400000Y-159301200D01*
X26700000Y-168900000D02*
X26400000Y-168600000D01*
X33100000Y-168900000D02*
X26700000Y-168900000D01*
X33200000Y-169000000D02*
X33100000Y-168900000D01*
X26400000Y-154714800D02*
X26400000Y-159301200D01*
X30708600Y-120885200D02*
X30708600Y-122460000D01*
X26400000Y-126470000D02*
X26400000Y-154714800D01*
X30708600Y-122460000D02*
X26400000Y-126470000D01*
D28*
X76600000Y-167400000D02*
X77000000Y-167000000D01*
D27*
X79950000Y-163650000D02*
X79800000Y-163800000D01*
D28*
X79950000Y-163650000D02*
X83095000Y-163650000D01*
D27*
X77000000Y-167000000D02*
X76600000Y-167400000D01*
D28*
X79800000Y-167000000D02*
X77000000Y-167000000D01*
X79800000Y-163800000D02*
X79800000Y-166014400D01*
X79800000Y-166014400D02*
X79800000Y-167000000D01*
D27*
X88175000Y-163650000D02*
X93050000Y-163650000D01*
X93050000Y-163650000D02*
X93400000Y-164000000D01*
X97189180Y-156241660D02*
X108458000Y-156200000D01*
X86905000Y-161110000D02*
X96510000Y-161110000D01*
X96510000Y-161110000D02*
X96600000Y-161200000D01*
X99710000Y-161110000D02*
X99710000Y-158110000D01*
X99710000Y-158110000D02*
X99420000Y-158400000D01*
X99420000Y-158400000D02*
X84200000Y-158400000D01*
X84200000Y-158400000D02*
X84365000Y-158565000D01*
X84365000Y-158565000D02*
X84365000Y-158400000D01*
X84365000Y-158400000D02*
X84365000Y-161110000D01*
X85635000Y-163650000D02*
X85635000Y-166635000D01*
X81825000Y-161110000D02*
X77070200Y-161110000D01*
X112268000Y-164116000D02*
X112268000Y-165468000D01*
X101595000Y-165405000D02*
X101790000Y-165600000D01*
X112014000Y-125508000D02*
X112268000Y-125762000D01*
X104648000Y-125508000D02*
X112014000Y-125508000D01*
X112268000Y-125762000D02*
X112268000Y-164116000D01*
X101790000Y-165600000D02*
X112136000Y-165600000D01*
X101595000Y-165405000D02*
X101595000Y-163650000D01*
X112268000Y-165468000D02*
X112136000Y-165600000D01*
X105305000Y-161110000D02*
X108310000Y-161110000D01*
X108204000Y-130588000D02*
X108458000Y-130842000D01*
X108458000Y-130842000D02*
X108458000Y-156200000D01*
X108458000Y-156200000D02*
X108458000Y-159925000D01*
X108204000Y-130588000D02*
X104648000Y-130588000D01*
X108458000Y-160962000D02*
X108458000Y-159925000D01*
X108310000Y-161110000D02*
X108458000Y-160962000D01*
X100200000Y-161110000D02*
X99710000Y-161110000D01*
X99600000Y-161220000D02*
X99600000Y-167200000D01*
X99710000Y-161110000D02*
X99600000Y-161220000D01*
X112600000Y-167200000D02*
X99600000Y-167200000D01*
X113792000Y-118142000D02*
X114046000Y-118396000D01*
X114046000Y-118396000D02*
X114017760Y-140999361D01*
X113792000Y-118142000D02*
X113189000Y-118142000D01*
X114017760Y-166148000D02*
X114017760Y-166402000D01*
X114017760Y-140999361D02*
X114017760Y-166148000D01*
X114017760Y-166402000D02*
X114017760Y-167200000D01*
X112600000Y-167200000D02*
X114017760Y-167200000D01*
X113189000Y-118142000D02*
X105571180Y-118141660D01*
X100110000Y-161110000D02*
X100200000Y-161110000D01*
X100200000Y-161110000D02*
X102765000Y-161110000D01*
X110490000Y-163650000D02*
X110490000Y-162846000D01*
X104035000Y-163650000D02*
X109000000Y-163650000D01*
X110490000Y-128048000D02*
X110490000Y-158782000D01*
X110490000Y-128048000D02*
X104648000Y-128048000D01*
X110490000Y-162846000D02*
X110490000Y-158782000D01*
X109000000Y-163650000D02*
X110490000Y-163650000D01*
X95282000Y-39967400D02*
X95282000Y-32017200D01*
X103174800Y-47860200D02*
X95282000Y-39967400D01*
X104546400Y-47860200D02*
X103174800Y-47860200D01*
X94513400Y-31248600D02*
X89357200Y-31248600D01*
X95282000Y-32017200D02*
X94513400Y-31248600D01*
X56896000Y-46641000D02*
X84759800Y-46641000D01*
X55533180Y-46666400D02*
X56896000Y-46641000D01*
X84963000Y-46844200D02*
X84963000Y-46863000D01*
X84759800Y-46641000D02*
X84963000Y-46844200D01*
X54838600Y-87662000D02*
X54896000Y-87662000D01*
X54896000Y-87662000D02*
X55533180Y-86925400D01*
X84963000Y-46863000D02*
X96298000Y-58198000D01*
X28101180Y-110394660D02*
X28609180Y-109886660D01*
X92202000Y-136938000D02*
X92202000Y-127540000D01*
X79788000Y-115519200D02*
X79788000Y-118650000D01*
X79908400Y-115398800D02*
X79788000Y-115519200D01*
X85521800Y-115398800D02*
X79908400Y-115398800D01*
X87630000Y-117507000D02*
X85521800Y-115398800D01*
X87630000Y-122968000D02*
X87630000Y-117507000D01*
X92202000Y-127540000D02*
X87630000Y-122968000D01*
X79781400Y-121190000D02*
X79781400Y-128530600D01*
X79781400Y-128530600D02*
X79756000Y-128556000D01*
X91948000Y-124238000D02*
X89662000Y-121952000D01*
X69628000Y-113348000D02*
X69628000Y-118650000D01*
X69596000Y-113316000D02*
X69628000Y-113348000D01*
X85852000Y-113316000D02*
X69596000Y-113316000D01*
X89662000Y-117126000D02*
X85852000Y-113316000D01*
X89662000Y-121952000D02*
X89662000Y-117126000D01*
X67088000Y-114332000D02*
X67088000Y-111570000D01*
X67088000Y-118650000D02*
X67088000Y-114332000D01*
X91948000Y-120936000D02*
X93726000Y-122714000D01*
X91948000Y-116618000D02*
X91948000Y-120936000D01*
X86868000Y-111538000D02*
X91948000Y-116618000D01*
X67120000Y-111538000D02*
X86868000Y-111538000D01*
X67088000Y-111570000D02*
X67120000Y-111538000D01*
D31*
X49308000Y-121190000D02*
X49308000Y-118936000D01*
X33020000Y-119920000D02*
X33020000Y-115348000D01*
D32*
X33274000Y-120174000D02*
X33020000Y-119920000D01*
D31*
X37846000Y-120174000D02*
X33274000Y-120174000D01*
X38100000Y-116872000D02*
X38100000Y-119920000D01*
X38608000Y-116364000D02*
X38100000Y-116872000D01*
X43180000Y-116364000D02*
X38608000Y-116364000D01*
X45466000Y-118650000D02*
X43180000Y-116364000D01*
X49022000Y-118650000D02*
X45466000Y-118650000D01*
D32*
X49308000Y-118936000D02*
X49022000Y-118650000D01*
D27*
X43180000Y-114814600D02*
X37236400Y-114814600D01*
X37236400Y-114814600D02*
X36093400Y-114814600D01*
X36093400Y-114814600D02*
X35560000Y-115348000D01*
X94234000Y-135261600D02*
X104394000Y-134652000D01*
X91948000Y-124238000D02*
X93980000Y-126371600D01*
X93980000Y-126371600D02*
X93980000Y-135007600D01*
X93980000Y-135007600D02*
X94234000Y-135261600D01*
X104648000Y-130588000D02*
X104648000Y-134398000D01*
X69628000Y-115856000D02*
X69882000Y-116110000D01*
X69628000Y-115856000D02*
X69628000Y-118650000D01*
X91726000Y-124238000D02*
X91948000Y-124238000D01*
X104394000Y-134652000D02*
X104648000Y-134398000D01*
D29*
X101600000Y-142272000D02*
X104140000Y-142272000D01*
X104394000Y-142526000D02*
X104394000Y-147352000D01*
X104140000Y-142272000D02*
X104394000Y-142526000D01*
X101600000Y-152432000D02*
X104140000Y-152432000D01*
X104394000Y-147352000D02*
X101600000Y-147352000D01*
X104394000Y-152178000D02*
X104394000Y-147352000D01*
X104140000Y-152432000D02*
X104394000Y-152178000D01*
X88392000Y-154210000D02*
X89662000Y-152940000D01*
X88036400Y-154565600D02*
X88392000Y-154210000D01*
X84328000Y-154565600D02*
X88036400Y-154565600D01*
X101092000Y-152940000D02*
X101600000Y-152432000D01*
X89662000Y-152940000D02*
X101092000Y-152940000D01*
X101600000Y-149892000D02*
X79991200Y-149892000D01*
X79991200Y-149892000D02*
X78975200Y-150908000D01*
X101600000Y-144812000D02*
X96012000Y-144812000D01*
X95758000Y-145066000D02*
X79940400Y-145066000D01*
X96012000Y-144812000D02*
X95758000Y-145066000D01*
D27*
X98298000Y-139732000D02*
X101600000Y-139732000D01*
D29*
X79940400Y-145066000D02*
X79622900Y-144748500D01*
D28*
X92202000Y-142018000D02*
X86868000Y-142018000D01*
X86868000Y-142018000D02*
X86868000Y-136938000D01*
X92202000Y-139478000D02*
X95504000Y-139478000D01*
X95504000Y-139478000D02*
X95758000Y-139732000D01*
D27*
X92202000Y-136938000D02*
X89408000Y-136938000D01*
X95504000Y-127794000D02*
X95504000Y-128302000D01*
X93726000Y-122714000D02*
X95504000Y-124492000D01*
X95504000Y-124492000D02*
X95504000Y-125000000D01*
X95504000Y-125000000D02*
X95504000Y-127794000D01*
X95504000Y-128302000D02*
X97790000Y-130588000D01*
X99314000Y-130588000D02*
X97790000Y-130588000D01*
X97790000Y-130588000D02*
X96520000Y-131858000D01*
X99314000Y-128048000D02*
X104648000Y-128048000D01*
X104648000Y-122968000D02*
X100330000Y-122968000D01*
X100108000Y-122746000D02*
X100108000Y-117888000D01*
X100330000Y-122968000D02*
X100108000Y-122746000D01*
X93980000Y-118396000D02*
X93980000Y-119666000D01*
X97790000Y-125508000D02*
X104648000Y-125508000D01*
X97790000Y-121698000D02*
X97790000Y-125508000D01*
X96012000Y-121698000D02*
X97790000Y-121698000D01*
X93980000Y-119666000D02*
X96012000Y-121698000D01*
X93980000Y-118396000D02*
X93980000Y-114332000D01*
X100108000Y-117888000D02*
X97028000Y-117888000D01*
X97028000Y-117888000D02*
X96520000Y-118396000D01*
X104680000Y-122936000D02*
X104648000Y-122968000D01*
D32*
X101495000Y-163650000D02*
X101495000Y-163777000D01*
X104648000Y-128048000D02*
X104489000Y-128048000D01*
D27*
X103981000Y-125508000D02*
X104648000Y-125508000D01*
D32*
X37592000Y-122180600D02*
X33102800Y-122180600D01*
X33102800Y-122180600D02*
X33026600Y-122256800D01*
X46768000Y-121190000D02*
X44450000Y-121190000D01*
X38074600Y-122180600D02*
X37592000Y-122180600D01*
X39116000Y-123222000D02*
X38074600Y-122180600D01*
X42418000Y-123222000D02*
X39116000Y-123222000D01*
X43180000Y-122460000D02*
X42418000Y-123222000D01*
X44450000Y-122460000D02*
X43180000Y-122460000D01*
X44450000Y-121190000D02*
X44450000Y-122460000D01*
D28*
X55422800Y-162795200D02*
X55067200Y-162795200D01*
X55067200Y-162795200D02*
X54610000Y-162338000D01*
X55124600Y-158267400D02*
X54610000Y-158782000D01*
X54610000Y-158782000D02*
X54610000Y-162338000D01*
X55124600Y-157759400D02*
X55124600Y-155607000D01*
X55124600Y-157759400D02*
X55124600Y-158267400D01*
X59417200Y-162795200D02*
X55422800Y-162795200D01*
D29*
X48292000Y-152254200D02*
X48292000Y-151968200D01*
X57509255Y-150882600D02*
X57509255Y-151085800D01*
X49377600Y-150882600D02*
X57509255Y-150882600D01*
X48292000Y-151968200D02*
X49377600Y-150882600D01*
D27*
X84537800Y-43618400D02*
X84537800Y-43599600D01*
X84537800Y-43599600D02*
X84632800Y-43796200D01*
X99606100Y-58769500D02*
X84632800Y-43796200D01*
X104546400Y-58020200D02*
X101676200Y-58020200D01*
X101676200Y-58020200D02*
X86392000Y-42736000D01*
X88569800Y-41637200D02*
X88563700Y-41631100D01*
X112649000Y-30461200D02*
X112649000Y-114033300D01*
X112649000Y-114033300D02*
X112649000Y-114858800D01*
X99415600Y-30385000D02*
X99415600Y-33052000D01*
X99466400Y-30334200D02*
X112649000Y-30461200D01*
X99415600Y-30385000D02*
X99466400Y-30334200D01*
X105571180Y-118141660D02*
X105696000Y-118142000D01*
X104546400Y-45320200D02*
X103657400Y-45320200D01*
X99415600Y-33052000D02*
X99462991Y-41125808D01*
X103657400Y-45320200D02*
X99462991Y-41125791D01*
X99462991Y-41125791D02*
X99462991Y-41125808D01*
X104546400Y-42780200D02*
X103606600Y-42780200D01*
X101955600Y-41129200D02*
X101955600Y-35592000D01*
X103606600Y-42780200D02*
X101955600Y-41129200D01*
X104495600Y-33052000D02*
X104495600Y-40189400D01*
X104495600Y-40189400D02*
X104546400Y-40240200D01*
X104495600Y-33052000D02*
X106629200Y-33052000D01*
X106629200Y-33052000D02*
X107220000Y-33642800D01*
X92278200Y-139554200D02*
X92202000Y-139478000D01*
X92278200Y-139401800D02*
X92202000Y-139478000D01*
D29*
X78975200Y-150908000D02*
X79381600Y-150908000D01*
X62033400Y-150908000D02*
X78924400Y-150908000D01*
X78924400Y-150908000D02*
X78975200Y-150908000D01*
D32*
X68078600Y-165767000D02*
X68173600Y-165767000D01*
X68173600Y-165767000D02*
X68307200Y-165767000D01*
X33026600Y-122256800D02*
X28403800Y-126879600D01*
X28403800Y-126879600D02*
X28403800Y-154210000D01*
X28403800Y-154210000D02*
X29800800Y-155607000D01*
X29800800Y-155607000D02*
X29800800Y-159391600D01*
X29800800Y-159391600D02*
X33864800Y-163455600D01*
X33864800Y-163455600D02*
X51619400Y-163455600D01*
X51619400Y-163455600D02*
X53930800Y-165767000D01*
X53930800Y-165767000D02*
X68078600Y-165767000D01*
D29*
X84659030Y-136828970D02*
X86849200Y-136785600D01*
X84106000Y-134982200D02*
X84106000Y-134982200D01*
X84106000Y-134982200D02*
X84106000Y-135591800D01*
D28*
X77070200Y-160128200D02*
X77070200Y-161110000D01*
X77070200Y-161110000D02*
X77070200Y-162820600D01*
X77044800Y-162795200D02*
X74657200Y-162795200D01*
X77070200Y-162820600D02*
X77044800Y-162795200D01*
X57715400Y-151085800D02*
X57509255Y-151085800D01*
X57509255Y-151085800D02*
X57893200Y-151085800D01*
X57893200Y-151085800D02*
X60052200Y-153244800D01*
X57715400Y-154057600D02*
X62909200Y-154057600D01*
X62909200Y-154057600D02*
X73285600Y-154057600D01*
X73285600Y-154057600D02*
X73514200Y-154286200D01*
X73514200Y-154286200D02*
X72472800Y-153244800D01*
X66910200Y-160128200D02*
X70085200Y-160128200D01*
X69983600Y-160026600D02*
X69983600Y-156750000D01*
X70085200Y-160128200D02*
X69983600Y-160026600D01*
D32*
X62135000Y-164903400D02*
X62135000Y-164522400D01*
X62135000Y-164522400D02*
X62135000Y-158197800D01*
X34296600Y-162465000D02*
X51975000Y-162465000D01*
X51848000Y-123374400D02*
X51822600Y-123399800D01*
X51822600Y-123399800D02*
X43897800Y-123399800D01*
X43897800Y-123399800D02*
X43212000Y-124085600D01*
X43212000Y-124085600D02*
X38309800Y-124085600D01*
X38309800Y-124085600D02*
X37624000Y-123399800D01*
X37624000Y-123399800D02*
X33204400Y-123399800D01*
X33204400Y-123399800D02*
X29394400Y-127209800D01*
X29394400Y-127209800D02*
X29394400Y-153829000D01*
X29394400Y-153829000D02*
X30766000Y-155200600D01*
X30766000Y-155200600D02*
X30766000Y-158934400D01*
X30766000Y-158934400D02*
X34296600Y-162465000D01*
X51848000Y-121190000D02*
X51848000Y-123374400D01*
X54413400Y-164903400D02*
X62135000Y-164903400D01*
X51975000Y-162465000D02*
X54413400Y-164903400D01*
D31*
X67443600Y-156750000D02*
X67443600Y-158020000D01*
X67443600Y-158020000D02*
X67265800Y-158197800D01*
X67265800Y-158197800D02*
X62135000Y-158197800D01*
D28*
X69831200Y-153244800D02*
X72472800Y-153244800D01*
X72472800Y-153244800D02*
X72574400Y-153244800D01*
X72523600Y-153295600D02*
X72523600Y-155790900D01*
X72523600Y-155790900D02*
X72523600Y-156750000D01*
X72574400Y-153244800D02*
X72523600Y-153295600D01*
X57715400Y-153244800D02*
X60052200Y-153244800D01*
X60052200Y-153244800D02*
X69831200Y-153244800D01*
X69831200Y-153244800D02*
X69983600Y-153397200D01*
X69856600Y-156877000D02*
X69983600Y-156750000D01*
D30*
X57664600Y-155607000D02*
X57664600Y-155581600D01*
X57664600Y-155581600D02*
X57715400Y-155530800D01*
X57715400Y-155530800D02*
X57715400Y-154057600D01*
X57715400Y-154057600D02*
X57715400Y-153244800D01*
X57715400Y-153244800D02*
X57715400Y-151085800D01*
D32*
X52584600Y-159366200D02*
X52584600Y-155607000D01*
X52457600Y-159493200D02*
X52584600Y-159366200D01*
X62439800Y-158147000D02*
X62135000Y-158197800D01*
D27*
X62135000Y-155657800D02*
X59969400Y-155670391D01*
X59969400Y-155670391D02*
X59283600Y-155674378D01*
X59283600Y-155674378D02*
X57766200Y-155683200D01*
X57766200Y-155683200D02*
X57664600Y-155581600D01*
X62008000Y-150933400D02*
X62033400Y-150908000D01*
D32*
X30359600Y-152940000D02*
X30359600Y-153422600D01*
X54388000Y-124085600D02*
X54337200Y-124136400D01*
X54337200Y-124136400D02*
X52965600Y-124136400D01*
X52965600Y-124136400D02*
X52737000Y-124365000D01*
X52737000Y-124365000D02*
X44304200Y-124365000D01*
X44304200Y-124365000D02*
X43567600Y-125101600D01*
X43567600Y-125101600D02*
X37954200Y-125101600D01*
X37954200Y-125101600D02*
X37217600Y-124365000D01*
X37217600Y-124365000D02*
X33534600Y-124365000D01*
X33534600Y-124365000D02*
X30359600Y-127540000D01*
X30359600Y-127540000D02*
X30359600Y-152940000D01*
X54388000Y-121190000D02*
X54388000Y-123526800D01*
X54388000Y-123526800D02*
X54388000Y-123730000D01*
X54388000Y-123730000D02*
X54388000Y-124085600D01*
X31756600Y-154819600D02*
X31756600Y-158553400D01*
X30359600Y-153422600D02*
X31756600Y-154819600D01*
X31324800Y-129216400D02*
X31324800Y-152711400D01*
X56928000Y-125050800D02*
X56902600Y-125076200D01*
X56902600Y-125076200D02*
X53397400Y-125076200D01*
X53397400Y-125076200D02*
X53143400Y-125330200D01*
X53143400Y-125330200D02*
X44710600Y-125330200D01*
X44710600Y-125330200D02*
X43974000Y-126066800D01*
X43974000Y-126066800D02*
X37598600Y-126066800D01*
X37598600Y-126066800D02*
X36836600Y-125304800D01*
X36836600Y-125304800D02*
X33941000Y-125304800D01*
X33941000Y-125304800D02*
X31324800Y-127921000D01*
X31324800Y-127921000D02*
X31324800Y-129216400D01*
X56928000Y-121190000D02*
X56928000Y-124746000D01*
X56928000Y-124746000D02*
X56928000Y-125050800D01*
X31324800Y-152711400D02*
X31832800Y-153219400D01*
X43389800Y-127032000D02*
X44380400Y-127032000D01*
X59468000Y-124238000D02*
X59468000Y-121190000D01*
X59468000Y-124238000D02*
X59468000Y-126016000D01*
X53854600Y-126016000D02*
X59468000Y-126016000D01*
X53549800Y-126320800D02*
X53854600Y-126016000D01*
X45091600Y-126320800D02*
X53549800Y-126320800D01*
X44380400Y-127032000D02*
X45091600Y-126320800D01*
X32315400Y-142932400D02*
X32290000Y-142907000D01*
X32290000Y-142907000D02*
X32290000Y-128302000D01*
X43466000Y-127032000D02*
X43389800Y-127032000D01*
X43389800Y-127032000D02*
X37116000Y-127032000D01*
X37116000Y-127032000D02*
X36354000Y-126270000D01*
X36354000Y-126270000D02*
X34322000Y-126270000D01*
X34322000Y-126270000D02*
X32290000Y-128302000D01*
X32315400Y-142932400D02*
X35312600Y-142932400D01*
X53626000Y-127286000D02*
X53981600Y-127286000D01*
X44482000Y-128302000D02*
X45498000Y-127286000D01*
X45498000Y-127286000D02*
X53626000Y-127286000D01*
X62008000Y-121190000D02*
X62008000Y-125762000D01*
X44482000Y-128302000D02*
X35338000Y-128302000D01*
X62008000Y-126905000D02*
X62008000Y-125762000D01*
X61906400Y-127006600D02*
X62008000Y-126905000D01*
X54261000Y-127006600D02*
X61906400Y-127006600D01*
X53981600Y-127286000D02*
X54261000Y-127006600D01*
X64548000Y-125762000D02*
X64548000Y-127971800D01*
X54134000Y-128810000D02*
X46260000Y-128810000D01*
X46260000Y-131858000D02*
X46260000Y-128810000D01*
X64548000Y-125762000D02*
X64548000Y-121190000D01*
X54946800Y-127997200D02*
X54134000Y-128810000D01*
X64522600Y-127997200D02*
X54946800Y-127997200D01*
X64548000Y-127971800D02*
X64522600Y-127997200D01*
D31*
X65056000Y-129064000D02*
X67088000Y-129064000D01*
X67088000Y-121190000D02*
X67088000Y-127032000D01*
X58572400Y-129064000D02*
X65056000Y-129064000D01*
X67088000Y-129064000D02*
X67088000Y-127032000D01*
D27*
X69628000Y-126778000D02*
X69628000Y-131248400D01*
X69628000Y-121190000D02*
X69628000Y-126778000D01*
D32*
X69628000Y-131248400D02*
X69018400Y-131858000D01*
D29*
X57867800Y-146767800D02*
X57893200Y-146767800D01*
X57893200Y-146767800D02*
X62033400Y-150908000D01*
X84106000Y-134982200D02*
X85960200Y-131934200D01*
X85452200Y-127971800D02*
X86468200Y-131426200D01*
X85960200Y-131934200D02*
X86468200Y-131426200D01*
X84836000Y-128556000D02*
X87376000Y-128556000D01*
X84868000Y-121190000D02*
X84836000Y-128556000D01*
D28*
X57664600Y-155581600D02*
X57715400Y-151085800D01*
D29*
X57715400Y-151085800D02*
X55937400Y-149333200D01*
X55937400Y-149333200D02*
X48571400Y-149333200D01*
X43720000Y-152254200D02*
X48292000Y-152254200D01*
X48292000Y-152254200D02*
X48571400Y-151974800D01*
X48571400Y-151974800D02*
X48368200Y-152178000D01*
D27*
X48368200Y-152178000D02*
X43720000Y-152178000D01*
D29*
X48571400Y-149333200D02*
X48571400Y-151974800D01*
X43720000Y-150577800D02*
X43720000Y-152254200D01*
X43720000Y-152254200D02*
X43720000Y-154921200D01*
D32*
X48571400Y-161372800D02*
X48571400Y-159493200D01*
X48469800Y-161474400D02*
X48571400Y-161372800D01*
X34677600Y-161474400D02*
X48469800Y-161474400D01*
X31756600Y-158553400D02*
X34677600Y-161474400D01*
D28*
X45955200Y-149358600D02*
X45955200Y-147326600D01*
X45955200Y-147326600D02*
X46514000Y-146767800D01*
X40900600Y-159518600D02*
X45701200Y-159518600D01*
X38411400Y-157029400D02*
X40900600Y-159518600D01*
X38411400Y-153600400D02*
X38411400Y-157029400D01*
X46514000Y-146767800D02*
X57867800Y-146767800D01*
X46158400Y-147123400D02*
X46514000Y-146767800D01*
X50893502Y-143425702D02*
X59021502Y-143425702D01*
X59021502Y-143425702D02*
X59087000Y-143491200D01*
X40951400Y-153600400D02*
X40951400Y-151390600D01*
X40951400Y-151390600D02*
X39656000Y-150095200D01*
D27*
X43720000Y-157004000D02*
X43720000Y-154921200D01*
X43720000Y-154921200D02*
X43720000Y-152178000D01*
X43720000Y-152178000D02*
X43720000Y-150577800D01*
X43720000Y-150577800D02*
X43237400Y-150095200D01*
D32*
X33560000Y-157004000D02*
X33560000Y-153727400D01*
X33560000Y-153727400D02*
X33687000Y-153600400D01*
X33687000Y-153600400D02*
X32213800Y-153600400D01*
X32213800Y-153600400D02*
X31832800Y-153219400D01*
D28*
X50893502Y-143425702D02*
X50918902Y-143425702D01*
X63627295Y-148031495D02*
X69290262Y-148031495D01*
X59087000Y-143491200D02*
X63627295Y-148031495D01*
D29*
X77375000Y-146844000D02*
X77527400Y-146844000D01*
X69290262Y-148031495D02*
X76187505Y-148031495D01*
X76187505Y-148031495D02*
X77375000Y-146844000D01*
X77527400Y-146844000D02*
X78619600Y-145751800D01*
X78619600Y-145751800D02*
X79622900Y-144748500D01*
X79622900Y-144748500D02*
X81600800Y-142770600D01*
X81600800Y-142770600D02*
X80943700Y-143427700D01*
X80943700Y-143427700D02*
X83572600Y-140798800D01*
X77527400Y-146844000D02*
X83572600Y-140798800D01*
X62668400Y-140976600D02*
X62668400Y-134677400D01*
X62668400Y-134677400D02*
X62516000Y-134525000D01*
X52787800Y-140976600D02*
X62668400Y-140976600D01*
X69551800Y-144177000D02*
X64446400Y-144177000D01*
X62668400Y-140976600D02*
X62592200Y-141052800D01*
X62592200Y-141052800D02*
X62592200Y-142322800D01*
X62592200Y-142322800D02*
X64446400Y-144177000D01*
X69551800Y-141611600D02*
X69551800Y-140055600D01*
X69551800Y-140055600D02*
X69551800Y-138868400D01*
X69551800Y-141611600D02*
X69551800Y-142836900D01*
X69551800Y-142836900D02*
X69551800Y-144177000D01*
X71609200Y-136811000D02*
X72168000Y-136252200D01*
X69551800Y-138868400D02*
X71609200Y-136811000D01*
X54388000Y-131858000D02*
X54388000Y-137471400D01*
X54388000Y-137471400D02*
X54731221Y-137814621D01*
X62516000Y-134525000D02*
X61017400Y-133026400D01*
X62516000Y-131858000D02*
X61347600Y-133026400D01*
X61017400Y-133026400D02*
X61347600Y-133026400D01*
X62516000Y-134575800D02*
X62516000Y-134525000D01*
X65792600Y-140798800D02*
X65792600Y-137827000D01*
X65056000Y-133839200D02*
X65868800Y-134652000D01*
X65868800Y-134652000D02*
X65868800Y-137750800D01*
X65056000Y-133839200D02*
X65056000Y-131858000D01*
X65792600Y-137827000D02*
X65868800Y-137750800D01*
D28*
X46118302Y-143171702D02*
X50639502Y-143171702D01*
X50639502Y-143171702D02*
X50893502Y-143425702D01*
D29*
X35312600Y-148012400D02*
X35312600Y-149892000D01*
X43237400Y-144456400D02*
X43237400Y-140748000D01*
X43237400Y-150095200D02*
X43237400Y-144456400D01*
X35515800Y-150095200D02*
X39656000Y-150095200D01*
X39656000Y-150095200D02*
X43237400Y-150095200D01*
X35312600Y-149892000D02*
X35515800Y-150095200D01*
D27*
X35312600Y-142932400D02*
X37446200Y-142932400D01*
X38665400Y-144151600D02*
X39783000Y-144151600D01*
X37446200Y-142932400D02*
X38665400Y-144151600D01*
D29*
X39630600Y-146742400D02*
X37954200Y-146742400D01*
X36684200Y-145472400D02*
X35312600Y-145472400D01*
X37954200Y-146742400D02*
X36684200Y-145472400D01*
D28*
X43709298Y-136241498D02*
X43709298Y-136165298D01*
X35338000Y-134906000D02*
X38386000Y-134906000D01*
X38386000Y-134906000D02*
X39111898Y-135631898D01*
X39111898Y-135631898D02*
X38934098Y-135987498D01*
X50893502Y-143425702D02*
X50893502Y-143501902D01*
D29*
X51848000Y-131858000D02*
X49714400Y-131858000D01*
X49587400Y-131985000D02*
X49587400Y-140748000D01*
X49714400Y-131858000D02*
X49587400Y-131985000D01*
X52076600Y-140976600D02*
X52787800Y-140976600D01*
X51848000Y-140976600D02*
X52076600Y-140976600D01*
X50070000Y-140748000D02*
X49587400Y-140748000D01*
X49587400Y-140748000D02*
X43237400Y-140748000D01*
X51619400Y-140748000D02*
X50070000Y-140748000D01*
X51848000Y-140976600D02*
X51619400Y-140748000D01*
D27*
X35312600Y-148012400D02*
X35338000Y-148012400D01*
X46082200Y-116668800D02*
X46082200Y-114916200D01*
X44202600Y-114814600D02*
X45980600Y-114814600D01*
X35338000Y-118142000D02*
X35338000Y-115322600D01*
X43034200Y-114814600D02*
X43180000Y-114814600D01*
X43180000Y-114814600D02*
X44202600Y-114814600D01*
X46768000Y-117354600D02*
X46082200Y-116668800D01*
X46768000Y-117380000D02*
X51086000Y-117380000D01*
X46768000Y-117380000D02*
X46768000Y-117354600D01*
X46082200Y-114916200D02*
X45980600Y-114814600D01*
X35338000Y-115856000D02*
X35338000Y-118142000D01*
D29*
X38640000Y-140240000D02*
X41434000Y-140240000D01*
X39402000Y-139478000D02*
X38640000Y-140240000D01*
X41967400Y-140773400D02*
X41942000Y-140748000D01*
X41434000Y-140240000D02*
X41967400Y-140773400D01*
D27*
X39783000Y-141611600D02*
X39783000Y-140367000D01*
X39783000Y-140367000D02*
X40672000Y-139478000D01*
X69856600Y-135795000D02*
X72244200Y-136176000D01*
X72244200Y-136176000D02*
X72168000Y-136252200D01*
D29*
X86029800Y-131908800D02*
X86004400Y-131883400D01*
X84106000Y-134982200D02*
X86029800Y-131908800D01*
X73438000Y-134982200D02*
X84106000Y-134982200D01*
X72168000Y-136252200D02*
X73438000Y-134982200D01*
X39402000Y-139478000D02*
X40672000Y-139478000D01*
X40672000Y-139478000D02*
X41180000Y-139986000D01*
X41180000Y-139986000D02*
X41942000Y-140748000D01*
X41942000Y-140748000D02*
X43237400Y-140748000D01*
D31*
X56928000Y-129064000D02*
X56928000Y-131858000D01*
D32*
X56928000Y-129064000D02*
X56902600Y-129089400D01*
D27*
X45955200Y-149358600D02*
X45955200Y-149104600D01*
X35338000Y-137446000D02*
X35338000Y-138970000D01*
X35338000Y-138970000D02*
X35846000Y-139478000D01*
D29*
X35846000Y-139478000D02*
X39402000Y-139478000D01*
D27*
X39402000Y-139478000D02*
X41180000Y-139478000D01*
X39275000Y-135795000D02*
X39097200Y-135824396D01*
X39097200Y-135824396D02*
X38934098Y-135987498D01*
X38386000Y-134906000D02*
X39275000Y-135795000D01*
X39275000Y-135795000D02*
X39402000Y-135922000D01*
X35338000Y-128302000D02*
X35338000Y-132366000D01*
X41180000Y-131858000D02*
X41180000Y-139478000D01*
X41180000Y-139478000D02*
X41180000Y-139986000D01*
X54605898Y-132075898D02*
X54388000Y-131858000D01*
X70644000Y-136176000D02*
X69856600Y-135795000D01*
X56928000Y-131858000D02*
X56928000Y-134398000D01*
X56928000Y-134398000D02*
X59696600Y-135795000D01*
X81820000Y-131858000D02*
X84175600Y-131858000D01*
X84175600Y-131858000D02*
X86360000Y-131858000D01*
X67596000Y-131858000D02*
X69018400Y-131858000D01*
X69018400Y-131858000D02*
X68866000Y-131858000D01*
X68866000Y-131858000D02*
X71660000Y-131858000D01*
X87376000Y-128556000D02*
X89916000Y-128556000D01*
X77248000Y-118650000D02*
X77216000Y-128556000D01*
X74708000Y-118650000D02*
X74676000Y-128556000D01*
X72168000Y-118650000D02*
X72136000Y-128556000D01*
X67088000Y-82328000D02*
X67088000Y-94012000D01*
X67088000Y-94012000D02*
X70390000Y-94012000D01*
X67088000Y-67850000D02*
X67088000Y-82328000D01*
X67088000Y-82328000D02*
X67088000Y-82582000D01*
X95536000Y-104172000D02*
X93758000Y-104172000D01*
X93504000Y-103918000D02*
X93504000Y-98679000D01*
X93504000Y-98679000D02*
X93504000Y-96552000D01*
X93504000Y-96552000D02*
X97568000Y-96552000D01*
X93758000Y-104172000D02*
X93504000Y-103918000D01*
X90319974Y-111674026D02*
X90319974Y-103019974D01*
X90319974Y-103019974D02*
X90202000Y-102902000D01*
X90202000Y-102902000D02*
X89675948Y-102902000D01*
X58706000Y-117380000D02*
X58706000Y-103156000D01*
X89675948Y-102902000D02*
X58960000Y-102902000D01*
X58706000Y-117380000D02*
X51086000Y-117380000D01*
X58706000Y-103156000D02*
X58960000Y-102902000D01*
X51086000Y-117380000D02*
X51086000Y-115094000D01*
X53626000Y-106458000D02*
X53626000Y-106204000D01*
X53626000Y-106204000D02*
X53372000Y-105950000D01*
X53372000Y-105950000D02*
X41688000Y-105950000D01*
X54896000Y-103410000D02*
X56166000Y-103410000D01*
X56166000Y-103410000D02*
X56166000Y-115094000D01*
X53626000Y-115094000D02*
X53626000Y-106458000D01*
X55658000Y-103410000D02*
X54896000Y-103410000D01*
X54896000Y-103410000D02*
X41688000Y-103410000D01*
X75724000Y-94012000D02*
X72930000Y-94012000D01*
X85884000Y-94012000D02*
X87535000Y-94012000D01*
X100108000Y-115348000D02*
X100616000Y-115348000D01*
X106458000Y-103918000D02*
X103918000Y-103918000D01*
X103005780Y-103918000D02*
X103918000Y-103918000D01*
X106458000Y-109506000D02*
X106458000Y-107016460D01*
X106458000Y-107016460D02*
X106458000Y-103918000D01*
X100616000Y-115348000D02*
X106458000Y-109506000D01*
X100108000Y-115348000D02*
X105317180Y-115347660D01*
X105317180Y-115347660D02*
X105571180Y-115601660D01*
X100108000Y-117888000D02*
X100108000Y-118142000D01*
X100108000Y-117888000D02*
X105317180Y-117887660D01*
X105317180Y-117887660D02*
X105571180Y-118141660D01*
X100108000Y-112808000D02*
X98076000Y-112808000D01*
X97060000Y-111792000D02*
X95028000Y-111792000D01*
X98076000Y-112808000D02*
X97060000Y-111792000D01*
X95028000Y-114332000D02*
X96552000Y-114332000D01*
X97568000Y-115348000D02*
X100108000Y-115348000D01*
X96552000Y-114332000D02*
X97568000Y-115348000D01*
X90319974Y-111674026D02*
X90338026Y-111674026D01*
X92996000Y-114332000D02*
X93980000Y-114332000D01*
X93980000Y-114332000D02*
X95028000Y-114332000D01*
X90338026Y-111674026D02*
X92996000Y-114332000D01*
X94012000Y-109877974D02*
X94012000Y-110776000D01*
X94012000Y-110776000D02*
X95028000Y-111792000D01*
X92116026Y-109877974D02*
X94012000Y-109877974D01*
X94012000Y-109877974D02*
X94148026Y-109877974D01*
X94148026Y-109877974D02*
X95536000Y-108490000D01*
X96298000Y-65564000D02*
X103156000Y-65564000D01*
X107220000Y-65564000D02*
X107220000Y-33642800D01*
X103156000Y-65564000D02*
X107220000Y-65564000D01*
X105188000Y-83852000D02*
X101886000Y-83852000D01*
X105188000Y-81312000D02*
X97568000Y-81312000D01*
X102140000Y-92234000D02*
X101124000Y-92234000D01*
X101124000Y-92234000D02*
X101124000Y-92488000D01*
X101124000Y-91726000D02*
X101124000Y-92488000D01*
X101124000Y-92488000D02*
X102140000Y-93504000D01*
X98076000Y-108490000D02*
X98076000Y-104172000D01*
X98076000Y-104172000D02*
X98330000Y-103918000D01*
X98330000Y-103918000D02*
X102243780Y-103918000D01*
X102243780Y-103918000D02*
X103005780Y-103918000D01*
X95536000Y-104172000D02*
X95536000Y-108490000D01*
X96298000Y-70898000D02*
X96298000Y-68612000D01*
X96298000Y-68612000D02*
X96298000Y-67596000D01*
X96044000Y-68358000D02*
X96044000Y-70898000D01*
X96044000Y-70898000D02*
X96298000Y-70898000D01*
X91980000Y-70136000D02*
X92996000Y-70136000D01*
X93758000Y-70390000D02*
X94202500Y-70390000D01*
X94202500Y-70390000D02*
X95536000Y-70390000D01*
X93758000Y-70898000D02*
X93758000Y-70898000D01*
X93758000Y-70898000D02*
X93758000Y-70390000D01*
X93758000Y-70390000D02*
X93758000Y-70136000D01*
X91980000Y-63024000D02*
X91980000Y-68104000D01*
X91980000Y-68104000D02*
X92742000Y-68866000D01*
X96044000Y-68866000D02*
X92742000Y-68866000D01*
X92742000Y-68866000D02*
X91472000Y-68866000D01*
X91472000Y-69628000D02*
X96044000Y-69628000D01*
X91472000Y-63024000D02*
X91472000Y-68866000D01*
X91472000Y-68866000D02*
X91472000Y-69628000D01*
X91472000Y-69628000D02*
X91472000Y-70898000D01*
X90710000Y-63024000D02*
X90710000Y-69690000D01*
X90710000Y-69690000D02*
X90710000Y-70390000D01*
X92488000Y-70898000D02*
X91472000Y-70898000D01*
X89948000Y-64706500D02*
X89948000Y-63461900D01*
X90710000Y-63024000D02*
X89948000Y-63024000D01*
X89948000Y-63461900D02*
X89948000Y-63024000D01*
X92488000Y-70898000D02*
X93758000Y-70898000D01*
X93758000Y-70898000D02*
X96298000Y-70898000D01*
X96298000Y-70898000D02*
X96044000Y-70644000D01*
X96044000Y-70644000D02*
X96044000Y-69628000D01*
X96044000Y-69628000D02*
X96044000Y-68866000D01*
X96044000Y-68866000D02*
X96044000Y-68358000D01*
X92488000Y-60738000D02*
X92488000Y-58452000D01*
X92488000Y-58452000D02*
X92742000Y-58198000D01*
X99346000Y-86392000D02*
X101886000Y-83852000D01*
X97568000Y-86392000D02*
X99346000Y-86392000D01*
X97568000Y-81312000D02*
X100616000Y-81312000D01*
X102140000Y-91472000D02*
X102140000Y-92234000D01*
X102140000Y-92234000D02*
X102140000Y-93504000D01*
X102140000Y-93504000D02*
X102140000Y-94520000D01*
X101124000Y-91472000D02*
X101124000Y-91726000D01*
X101124000Y-91726000D02*
X101124000Y-93504000D01*
X101124000Y-93504000D02*
X101378000Y-93758000D01*
X102396180Y-94900660D02*
X100362000Y-92234000D01*
X100362000Y-92234000D02*
X101124000Y-91472000D01*
X97568000Y-91472000D02*
X101124000Y-91472000D01*
X101124000Y-91472000D02*
X102140000Y-91472000D01*
X102140000Y-91472000D02*
X102902000Y-90710000D01*
X97568000Y-88932000D02*
X99854000Y-88932000D01*
X100616000Y-88170000D02*
X102902000Y-88170000D01*
X99854000Y-88932000D02*
X100616000Y-88170000D01*
X93504000Y-77756000D02*
X93421200Y-77756000D01*
X93421200Y-77756000D02*
X92659200Y-77756000D01*
X92659200Y-77756000D02*
X91846980Y-80375860D01*
X91846980Y-80375860D02*
X91789780Y-80479860D01*
X93504000Y-83852000D02*
X93504000Y-77756000D01*
X93504000Y-94012000D02*
X97568000Y-94012000D01*
X90964000Y-94012000D02*
X87535000Y-94012000D01*
X87535000Y-94012000D02*
X87535000Y-90333499D01*
X87535000Y-90333499D02*
X87535000Y-87535000D01*
X87535000Y-87535000D02*
X87537180Y-86264660D01*
X82311380Y-67983260D02*
X82057380Y-67983260D01*
X82311380Y-67983260D02*
X82311380Y-67729260D01*
X82311380Y-67729260D02*
X82311380Y-67983260D01*
X89416780Y-68306860D02*
X89289780Y-68179860D01*
X85251180Y-84105660D02*
X85376000Y-84106000D01*
X85376000Y-82836000D02*
X85471000Y-79095600D01*
X85376000Y-84106000D02*
X85376000Y-82836000D01*
X74282300Y-75057000D02*
X71154180Y-75215660D01*
X69759360Y-77120320D02*
X69755000Y-78670400D01*
X78264000Y-100870000D02*
X79933800Y-100870000D01*
X80441800Y-74962000D02*
X84442300Y-75057000D01*
X80187800Y-75216000D02*
X80441800Y-74962000D01*
X80187800Y-100616000D02*
X80187800Y-75216000D01*
X79933800Y-100870000D02*
X80187800Y-100616000D01*
X41688000Y-95790000D02*
X63786000Y-95790000D01*
X65058180Y-95028000D02*
X65058180Y-71913660D01*
X63786000Y-95790000D02*
X65058180Y-95028000D01*
X41942000Y-98330000D02*
X41688000Y-98584000D01*
X41688000Y-100870000D02*
X78264000Y-100870000D01*
X78264000Y-100870000D02*
X78010000Y-100870000D01*
X44482000Y-87662000D02*
X39402000Y-87662000D01*
D32*
X44482000Y-87662000D02*
X44736000Y-87662000D01*
D27*
X104622600Y-33179000D02*
X104495600Y-33052000D01*
X104680000Y-63024000D02*
X104546400Y-63100200D01*
X51086000Y-41205400D02*
X51086000Y-80346460D01*
X86138000Y-41205400D02*
X86392000Y-41459400D01*
X86392000Y-41459400D02*
X86392000Y-42736000D01*
X51086000Y-41205400D02*
X86138000Y-41205400D01*
X51086000Y-80346460D02*
X50832000Y-80600460D01*
X55533180Y-86925400D02*
X55533180Y-46666400D01*
X55533180Y-46666400D02*
X55533180Y-46380400D01*
X44482000Y-87662000D02*
X54838600Y-87662000D01*
D32*
X54896000Y-87662000D02*
X55533180Y-86925400D01*
D27*
X53210842Y-43617847D02*
X84537800Y-43618400D01*
X41688000Y-80600460D02*
X50832000Y-80600460D01*
X41688000Y-31782000D02*
X41865800Y-31248600D01*
X41865800Y-31248600D02*
X89357200Y-31248600D01*
X89357200Y-31248600D02*
X89617800Y-31248600D01*
X41688000Y-31782000D02*
X41690000Y-56380000D01*
X92742000Y-68358000D02*
X92742000Y-63024000D01*
X92234000Y-63024000D02*
X91980000Y-63024000D01*
X91980000Y-63024000D02*
X91472000Y-63024000D01*
X91472000Y-63024000D02*
X90710000Y-63024000D01*
D28*
X104680000Y-63024000D02*
X96298000Y-63024000D01*
D27*
X41688027Y-83140898D02*
X53033069Y-83140345D01*
X53287069Y-82886345D02*
X53210842Y-43617847D01*
X53033069Y-83140345D02*
X53287069Y-82886345D01*
X92742000Y-58198000D02*
X96298000Y-58198000D01*
X96298000Y-58198000D02*
X96298000Y-60484000D01*
X92742000Y-68358000D02*
X96044000Y-68358000D01*
X96044000Y-68358000D02*
X96298000Y-68358000D01*
X96298000Y-68358000D02*
X96298000Y-67596000D01*
X96298000Y-67596000D02*
X96298000Y-65564000D01*
X92742000Y-58198000D02*
X92996000Y-58198000D01*
X41688000Y-121190000D02*
X41688000Y-118650000D01*
X84868000Y-121190000D02*
X84868000Y-118650000D01*
M02*
