G04 #@! TF.FileFunction,Copper,L2,Bot,Signal*
%FSLAX46Y46*%
G04 Gerber Fmt 4.6, Leading zero omitted, Abs format (unit mm)*
G04 Created by KiCad (PCBNEW 4.0.7) date 03/29/18 17:53:12*
%MOMM*%
%LPD*%
G01*
G04 APERTURE LIST*
%ADD10C,0.100000*%
%ADD11C,0.250000*%
%ADD12C,0.150000*%
%ADD13C,1.397000*%
%ADD14C,1.676400*%
%ADD15C,1.470000*%
%ADD16C,1.000000*%
G04 APERTURE END LIST*
D10*
D11*
X253000000Y-172500000D02*
G75*
G03X253000000Y-172500000I-17500000J0D01*
G01*
X216000000Y-172500000D02*
G75*
G03X216000000Y-172500000I-17500000J0D01*
G01*
X181000000Y-155000000D02*
X216000000Y-155000000D01*
X216000000Y-155000000D02*
X216000000Y-190000000D01*
X216000000Y-190000000D02*
X181000000Y-190000000D01*
X181000000Y-190000000D02*
X181000000Y-155000000D01*
X144000000Y-155000000D02*
X179000000Y-155000000D01*
X179000000Y-155000000D02*
X179000000Y-190000000D01*
X179000000Y-190000000D02*
X144000000Y-190000000D01*
X144000000Y-190000000D02*
X144000000Y-155000000D01*
X107000000Y-155000000D02*
X142000000Y-155000000D01*
X142000000Y-155000000D02*
X142000000Y-190000000D01*
X142000000Y-190000000D02*
X107000000Y-190000000D01*
X107000000Y-190000000D02*
X107000000Y-155000000D01*
X144000000Y-155000000D02*
X179000000Y-155000000D01*
X179000000Y-155000000D02*
X179000000Y-190000000D01*
X179000000Y-190000000D02*
X144000000Y-190000000D01*
X144000000Y-190000000D02*
X144000000Y-155000000D01*
X144000000Y-155000000D02*
X179000000Y-155000000D01*
X179000000Y-155000000D02*
X179000000Y-190000000D01*
X179000000Y-190000000D02*
X144000000Y-190000000D01*
X144000000Y-190000000D02*
X144000000Y-155000000D01*
X144000000Y-155000000D02*
X179000000Y-155000000D01*
X179000000Y-155000000D02*
X179000000Y-190000000D01*
X179000000Y-190000000D02*
X144000000Y-190000000D01*
X144000000Y-190000000D02*
X144000000Y-155000000D01*
X107000000Y-155000000D02*
X142000000Y-155000000D01*
X142000000Y-155000000D02*
X142000000Y-190000000D01*
X142000000Y-190000000D02*
X107000000Y-190000000D01*
X107000000Y-190000000D02*
X107000000Y-155000000D01*
X218000000Y-190000000D02*
X218000000Y-155000000D01*
X253000000Y-190000000D02*
X218000000Y-190000000D01*
X253000000Y-155000000D02*
X253000000Y-190000000D01*
X218000000Y-155000000D02*
X253000000Y-155000000D01*
X218000000Y-190000000D02*
X218000000Y-155000000D01*
X253000000Y-190000000D02*
X218000000Y-190000000D01*
X253000000Y-155000000D02*
X253000000Y-190000000D01*
X218000000Y-155000000D02*
X253000000Y-155000000D01*
X181000000Y-155000000D02*
X216000000Y-155000000D01*
X216000000Y-155000000D02*
X216000000Y-190000000D01*
X216000000Y-190000000D02*
X181000000Y-190000000D01*
X181000000Y-190000000D02*
X181000000Y-155000000D01*
X181000000Y-155000000D02*
X216000000Y-155000000D01*
X216000000Y-155000000D02*
X216000000Y-190000000D01*
X216000000Y-190000000D02*
X181000000Y-190000000D01*
X181000000Y-190000000D02*
X181000000Y-155000000D01*
X144000000Y-190000000D02*
X144000000Y-155000000D01*
X179000000Y-190000000D02*
X144000000Y-190000000D01*
X179000000Y-155000000D02*
X179000000Y-190000000D01*
X144000000Y-155000000D02*
X179000000Y-155000000D01*
X144000000Y-190000000D02*
X144000000Y-155000000D01*
X179000000Y-190000000D02*
X144000000Y-190000000D01*
X179000000Y-155000000D02*
X179000000Y-190000000D01*
X144000000Y-155000000D02*
X179000000Y-155000000D01*
X144000000Y-190000000D02*
X144000000Y-155000000D01*
X179000000Y-190000000D02*
X144000000Y-190000000D01*
X179000000Y-155000000D02*
X179000000Y-190000000D01*
X144000000Y-155000000D02*
X179000000Y-155000000D01*
X144000000Y-110000000D02*
X179000000Y-110000000D01*
X179000000Y-110000000D02*
X179000000Y-145000000D01*
X179000000Y-145000000D02*
X144000000Y-145000000D01*
X144000000Y-145000000D02*
X144000000Y-110000000D01*
X144000000Y-110000000D02*
X179000000Y-110000000D01*
X179000000Y-110000000D02*
X179000000Y-145000000D01*
X179000000Y-145000000D02*
X144000000Y-145000000D01*
X144000000Y-145000000D02*
X144000000Y-110000000D01*
X144000000Y-110000000D02*
X179000000Y-110000000D01*
X179000000Y-110000000D02*
X179000000Y-145000000D01*
X179000000Y-145000000D02*
X144000000Y-145000000D01*
X144000000Y-145000000D02*
X144000000Y-110000000D01*
X181000000Y-145000000D02*
X181000000Y-110000000D01*
X216000000Y-145000000D02*
X181000000Y-145000000D01*
X216000000Y-110000000D02*
X216000000Y-145000000D01*
X181000000Y-110000000D02*
X216000000Y-110000000D01*
X181000000Y-145000000D02*
X181000000Y-110000000D01*
X216000000Y-145000000D02*
X181000000Y-145000000D01*
X216000000Y-110000000D02*
X216000000Y-145000000D01*
X181000000Y-110000000D02*
X216000000Y-110000000D01*
X253000000Y-127500000D02*
G75*
G03X253000000Y-127500000I-17500000J0D01*
G01*
X218000000Y-110000000D02*
X253000000Y-110000000D01*
X253000000Y-110000000D02*
X253000000Y-145000000D01*
X253000000Y-145000000D02*
X218000000Y-145000000D01*
X218000000Y-145000000D02*
X218000000Y-110000000D01*
X218000000Y-110000000D02*
X253000000Y-110000000D01*
X253000000Y-110000000D02*
X253000000Y-145000000D01*
X253000000Y-145000000D02*
X218000000Y-145000000D01*
X218000000Y-145000000D02*
X218000000Y-110000000D01*
D12*
X107000000Y-190000000D02*
X107000000Y-110000000D01*
X253000000Y-190000000D02*
X107000000Y-190000000D01*
X253000000Y-110000000D02*
X253000000Y-190000000D01*
X107000000Y-110000000D02*
X253000000Y-110000000D01*
X100000000Y-200000000D02*
X100000000Y-100000000D01*
X260000000Y-200000000D02*
X100000000Y-200000000D01*
X260000000Y-100000000D02*
X260000000Y-200000000D01*
X100000000Y-100000000D02*
X260000000Y-100000000D01*
D11*
X142000000Y-127500000D02*
G75*
G03X142000000Y-127500000I-17500000J0D01*
G01*
X107000000Y-145000000D02*
X107000000Y-110000000D01*
X142000000Y-145000000D02*
X107000000Y-145000000D01*
X142000000Y-110000000D02*
X142000000Y-145000000D01*
X107000000Y-110000000D02*
X142000000Y-110000000D01*
X142000000Y-172500000D02*
G75*
G03X142000000Y-172500000I-17500000J0D01*
G01*
X107000000Y-190000000D02*
X107000000Y-155000000D01*
X142000000Y-190000000D02*
X107000000Y-190000000D01*
X142000000Y-155000000D02*
X142000000Y-190000000D01*
X107000000Y-155000000D02*
X142000000Y-155000000D01*
X179000000Y-127500000D02*
G75*
G03X179000000Y-127500000I-17500000J0D01*
G01*
X144000000Y-145000000D02*
X144000000Y-110000000D01*
X179000000Y-145000000D02*
X144000000Y-145000000D01*
X179000000Y-110000000D02*
X179000000Y-145000000D01*
X144000000Y-110000000D02*
X179000000Y-110000000D01*
X179000000Y-127500000D02*
G75*
G03X179000000Y-127500000I-17500000J0D01*
G01*
X144000000Y-145000000D02*
X144000000Y-110000000D01*
X179000000Y-145000000D02*
X144000000Y-145000000D01*
X179000000Y-110000000D02*
X179000000Y-145000000D01*
X144000000Y-110000000D02*
X179000000Y-110000000D01*
X179000000Y-127500000D02*
G75*
G03X179000000Y-127500000I-17500000J0D01*
G01*
X144000000Y-145000000D02*
X144000000Y-110000000D01*
X179000000Y-145000000D02*
X144000000Y-145000000D01*
X179000000Y-110000000D02*
X179000000Y-145000000D01*
X144000000Y-110000000D02*
X179000000Y-110000000D01*
X142000000Y-127500000D02*
G75*
G03X142000000Y-127500000I-17500000J0D01*
G01*
X107000000Y-145000000D02*
X107000000Y-110000000D01*
X142000000Y-145000000D02*
X107000000Y-145000000D01*
X142000000Y-110000000D02*
X142000000Y-145000000D01*
X107000000Y-110000000D02*
X142000000Y-110000000D01*
X142000000Y-172500000D02*
G75*
G03X142000000Y-172500000I-17500000J0D01*
G01*
X107000000Y-190000000D02*
X107000000Y-155000000D01*
X142000000Y-190000000D02*
X107000000Y-190000000D01*
X142000000Y-155000000D02*
X142000000Y-190000000D01*
X107000000Y-155000000D02*
X142000000Y-155000000D01*
X179000000Y-127500000D02*
G75*
G03X179000000Y-127500000I-17500000J0D01*
G01*
X144000000Y-145000000D02*
X144000000Y-110000000D01*
X179000000Y-145000000D02*
X144000000Y-145000000D01*
X179000000Y-110000000D02*
X179000000Y-145000000D01*
X144000000Y-110000000D02*
X179000000Y-110000000D01*
X179000000Y-172500000D02*
G75*
G03X179000000Y-172500000I-17500000J0D01*
G01*
X144000000Y-190000000D02*
X144000000Y-155000000D01*
X179000000Y-190000000D02*
X144000000Y-190000000D01*
X179000000Y-155000000D02*
X179000000Y-190000000D01*
X144000000Y-155000000D02*
X179000000Y-155000000D01*
X216000000Y-127500000D02*
G75*
G03X216000000Y-127500000I-17500000J0D01*
G01*
X181000000Y-145000000D02*
X181000000Y-110000000D01*
X216000000Y-145000000D02*
X181000000Y-145000000D01*
X216000000Y-110000000D02*
X216000000Y-145000000D01*
X181000000Y-110000000D02*
X216000000Y-110000000D01*
D13*
X133761400Y-172196400D03*
X120000000Y-176310000D03*
X120000000Y-168690000D03*
D14*
X125770000Y-160000000D03*
X123230000Y-160000000D03*
X133750000Y-163250000D03*
X115250000Y-163250000D03*
X124500000Y-182000000D03*
D13*
X137900000Y-176310000D03*
X137900000Y-173770000D03*
X137900000Y-171230000D03*
X111000000Y-168690000D03*
X111000000Y-171230000D03*
X111000000Y-173770000D03*
X120680400Y-186090200D03*
X123220400Y-186090200D03*
X231680400Y-186090200D03*
X234220400Y-186090200D03*
X222000000Y-168690000D03*
X222000000Y-171230000D03*
X222000000Y-173770000D03*
X248900000Y-176310000D03*
X248900000Y-173770000D03*
X248900000Y-171230000D03*
D14*
X235500000Y-182000000D03*
X226250000Y-163250000D03*
X244750000Y-163250000D03*
X236770000Y-160000000D03*
X234230000Y-160000000D03*
D13*
X231000000Y-176310000D03*
X231000000Y-168690000D03*
X244761400Y-172196400D03*
X207761400Y-172196400D03*
X194000000Y-176310000D03*
X194000000Y-168690000D03*
D14*
X199770000Y-160000000D03*
X197230000Y-160000000D03*
X207750000Y-163250000D03*
X189250000Y-163250000D03*
X198500000Y-182000000D03*
D13*
X211900000Y-176310000D03*
X211900000Y-173770000D03*
X211900000Y-171230000D03*
X185000000Y-168690000D03*
X185000000Y-171230000D03*
X185000000Y-173770000D03*
X194680400Y-186090200D03*
X197220400Y-186090200D03*
X157680400Y-186090200D03*
X160220400Y-186090200D03*
X148000000Y-168690000D03*
X148000000Y-171230000D03*
X148000000Y-173770000D03*
X174900000Y-176310000D03*
X174900000Y-173770000D03*
X174900000Y-171230000D03*
D14*
X161500000Y-182000000D03*
X152250000Y-163250000D03*
X170750000Y-163250000D03*
X162770000Y-160000000D03*
X160230000Y-160000000D03*
D13*
X157000000Y-176310000D03*
X157000000Y-168690000D03*
X170761400Y-172196400D03*
X170761400Y-127196400D03*
X157000000Y-131310000D03*
X157000000Y-123690000D03*
D14*
X162770000Y-115000000D03*
X160230000Y-115000000D03*
X170750000Y-118250000D03*
X152250000Y-118250000D03*
X161500000Y-137000000D03*
D13*
X174900000Y-131310000D03*
X174900000Y-128770000D03*
X174900000Y-126230000D03*
X148000000Y-123690000D03*
X148000000Y-126230000D03*
X148000000Y-128770000D03*
X157680400Y-141090200D03*
X160220400Y-141090200D03*
X194680400Y-141090200D03*
X197220400Y-141090200D03*
X185000000Y-123690000D03*
X185000000Y-126230000D03*
X185000000Y-128770000D03*
X211900000Y-131310000D03*
X211900000Y-128770000D03*
X211900000Y-126230000D03*
D14*
X198500000Y-137000000D03*
X189250000Y-118250000D03*
X207750000Y-118250000D03*
X199770000Y-115000000D03*
X197230000Y-115000000D03*
D13*
X194000000Y-131310000D03*
X194000000Y-123690000D03*
X207761400Y-127196400D03*
X244761400Y-127196400D03*
X231000000Y-131310000D03*
X231000000Y-123690000D03*
D14*
X236770000Y-115000000D03*
X234230000Y-115000000D03*
X244750000Y-118250000D03*
X226250000Y-118250000D03*
X235500000Y-137000000D03*
D13*
X248900000Y-131310000D03*
X248900000Y-128770000D03*
X248900000Y-126230000D03*
X222000000Y-123690000D03*
X222000000Y-126230000D03*
X222000000Y-128770000D03*
X231680400Y-141090200D03*
X234220400Y-141090200D03*
X120680400Y-141090200D03*
X123220400Y-141090200D03*
X111000000Y-123690000D03*
X111000000Y-126230000D03*
X111000000Y-128770000D03*
X137900000Y-131310000D03*
X137900000Y-128770000D03*
X137900000Y-126230000D03*
D14*
X124500000Y-137000000D03*
X115250000Y-118250000D03*
X133750000Y-118250000D03*
X125770000Y-115000000D03*
X123230000Y-115000000D03*
D13*
X120000000Y-131310000D03*
X120000000Y-123690000D03*
X133761400Y-127196400D03*
D15*
X122500000Y-179250000D02*
X124500000Y-179250000D01*
X120680400Y-186090200D02*
X120680400Y-186030200D01*
X131270000Y-165750000D02*
X131270000Y-165730000D01*
X125770000Y-164383360D02*
X125770000Y-163636600D01*
X125770000Y-165520000D02*
X125770000Y-164383360D01*
X126500000Y-165750000D02*
X126000000Y-165750000D01*
X126000000Y-165750000D02*
X125770000Y-165520000D01*
X128991160Y-165750000D02*
X126500000Y-165750000D01*
X130337600Y-165750000D02*
X128991160Y-165750000D01*
X131270000Y-165750000D02*
X130337600Y-165750000D01*
X116750000Y-168690000D02*
X116750000Y-172500000D01*
X116750000Y-172500000D02*
X122750000Y-172500000D01*
X122750000Y-177962200D02*
X122750000Y-179250000D01*
X122750000Y-172500000D02*
X122750000Y-177962200D01*
X122750000Y-179250000D02*
X122500000Y-179000000D01*
X122500000Y-179000000D02*
X122500000Y-179250000D01*
X116750000Y-165382600D02*
X116750000Y-168690000D01*
X116750000Y-165000000D02*
X116750000Y-165382600D01*
X124500000Y-179250000D02*
X127995600Y-179250000D01*
X131867370Y-165750000D02*
X131270000Y-165750000D01*
X132552360Y-166802360D02*
X131500000Y-165750000D01*
X131500000Y-165750000D02*
X131867370Y-165750000D01*
X135020000Y-169270000D02*
X132552360Y-166802360D01*
X135020000Y-169427800D02*
X135020000Y-169270000D01*
D16*
X113314400Y-171205800D02*
X113290200Y-171230000D01*
X113314400Y-176311200D02*
X113314400Y-171205800D01*
X120000000Y-162480000D02*
X123230000Y-160000000D01*
X120000000Y-168690000D02*
X120000000Y-162480000D01*
X126542374Y-188226686D02*
X126578280Y-188190780D01*
X123227324Y-188226686D02*
X126542374Y-188226686D01*
X128747440Y-188226686D02*
X128785886Y-188226686D01*
X126542374Y-188226686D02*
X128747440Y-188226686D01*
X129338914Y-188226686D02*
X129621200Y-187944400D01*
X128747440Y-188226686D02*
X129338914Y-188226686D01*
D15*
X125538080Y-172500000D02*
X125770000Y-172268080D01*
X125770000Y-172268080D02*
X125770000Y-165520000D01*
X124719000Y-172500000D02*
X125538080Y-172500000D01*
X122990600Y-172500000D02*
X124719000Y-172500000D01*
X122750000Y-172500000D02*
X122990600Y-172500000D01*
X128922820Y-165818340D02*
X128991160Y-165750000D01*
X127995600Y-166745560D02*
X128922820Y-165818340D01*
X127995600Y-167743780D02*
X127995600Y-166745560D01*
X127995600Y-168640400D02*
X127995600Y-167743780D01*
X127995600Y-173263200D02*
X127995600Y-168640400D01*
X127995600Y-178952800D02*
X127995600Y-173263200D01*
X127995600Y-179250000D02*
X127995600Y-178952800D01*
X128783000Y-169427800D02*
X127995600Y-168640400D01*
X129672000Y-169427800D02*
X128783000Y-169427800D01*
X135020000Y-169427800D02*
X129672000Y-169427800D01*
X127995600Y-173263200D02*
X127995600Y-173263200D01*
X127232400Y-172500000D02*
X127995600Y-173263200D01*
X126852600Y-172500000D02*
X127232400Y-172500000D01*
X125538080Y-172500000D02*
X126852600Y-172500000D01*
X126852600Y-165750000D02*
X126500000Y-165750000D01*
X126852600Y-172500000D02*
X126852600Y-165750000D01*
X133184820Y-168640400D02*
X133228000Y-168597220D01*
X127995600Y-168640400D02*
X133184820Y-168640400D01*
X132534580Y-167743780D02*
X132552360Y-167761560D01*
X132552360Y-167761560D02*
X132552360Y-166802360D01*
X127995600Y-167743780D02*
X132534580Y-167743780D01*
X131239180Y-166745560D02*
X131867370Y-166117370D01*
X131867370Y-166117370D02*
X131867370Y-165750000D01*
X127995600Y-166745560D02*
X131239180Y-166745560D01*
D16*
X112221000Y-168690000D02*
X112247600Y-168716600D01*
X111000000Y-168690000D02*
X112221000Y-168690000D01*
D15*
X115016200Y-168690000D02*
X116750000Y-168690000D01*
X113187400Y-168690000D02*
X115016200Y-168690000D01*
X112221000Y-168690000D02*
X113187400Y-168690000D01*
X127005000Y-177962200D02*
X127995600Y-178952800D01*
X123918900Y-177962200D02*
X127005000Y-177962200D01*
X122750000Y-177962200D02*
X123918900Y-177962200D01*
X123918900Y-173428300D02*
X122990600Y-172500000D01*
X123918900Y-177962200D02*
X123918900Y-173428300D01*
X123918900Y-177962200D02*
X123918900Y-177962200D01*
X124490400Y-177962200D02*
X123918900Y-177962200D01*
X125538080Y-176914520D02*
X124490400Y-177962200D01*
X125538080Y-172500000D02*
X125538080Y-176914520D01*
X124719000Y-177733600D02*
X124490400Y-177962200D01*
X124719000Y-172500000D02*
X124719000Y-177733600D01*
X126852600Y-177962200D02*
X127005000Y-177962200D01*
X126852600Y-172500000D02*
X126852600Y-177962200D01*
X125770000Y-163636600D02*
X125770000Y-163636600D01*
X123931600Y-163636600D02*
X125770000Y-163636600D01*
X124719000Y-164424000D02*
X123931600Y-163636600D01*
X124719000Y-172500000D02*
X124719000Y-164424000D01*
X126809420Y-163636600D02*
X128922820Y-165750000D01*
X128922820Y-165750000D02*
X128922820Y-165818340D01*
X125770000Y-163636600D02*
X126809420Y-163636600D01*
X125770000Y-164667400D02*
X126852600Y-165750000D01*
X125770000Y-164383360D02*
X125770000Y-164667400D01*
D16*
X136063840Y-176310000D02*
X136034700Y-176339140D01*
X137900000Y-176310000D02*
X136063840Y-176310000D01*
D15*
X131270000Y-179230000D02*
X131270000Y-179310000D01*
X131250000Y-179250000D02*
X131270000Y-179230000D01*
X135000000Y-179310000D02*
X131270000Y-179310000D01*
X135020000Y-179310000D02*
X135000000Y-179290000D01*
X135000000Y-179290000D02*
X135000000Y-179310000D01*
X135020000Y-177681500D02*
X135020000Y-179310000D01*
X127995600Y-179250000D02*
X131250000Y-179250000D01*
X135020000Y-176310000D02*
X135020000Y-177681500D01*
X135822680Y-176310000D02*
X135020000Y-176310000D01*
X136063840Y-176310000D02*
X135822680Y-176310000D01*
D16*
X135020000Y-171356960D02*
X135018700Y-171355660D01*
X135020000Y-174293140D02*
X135018700Y-174294440D01*
D15*
X135020000Y-175507320D02*
X135822680Y-176310000D01*
X135020000Y-174293140D02*
X135020000Y-175507320D01*
X135020000Y-171356960D02*
X135020000Y-169427800D01*
X135020000Y-175507320D02*
X135020000Y-177681500D01*
X113442600Y-168690000D02*
X116750000Y-165382600D01*
X113187400Y-168690000D02*
X113442600Y-168690000D01*
X115016200Y-168183200D02*
X116006800Y-167192600D01*
X115016200Y-168690000D02*
X115016200Y-168183200D01*
X115250000Y-163250000D02*
X115250000Y-163286200D01*
X115636600Y-163636600D02*
X116750000Y-164750000D01*
D16*
X115250000Y-163260800D02*
X115250000Y-163250000D01*
X115250000Y-163260800D02*
X115625800Y-163636600D01*
D15*
X116750000Y-165382600D02*
X116750000Y-164750000D01*
X115625800Y-163636600D02*
X115636600Y-163636600D01*
D16*
X124500000Y-180816600D02*
X124465000Y-180781600D01*
X124500000Y-180908600D02*
X124500000Y-180816600D01*
X124500000Y-182000000D02*
X124500000Y-180908600D01*
D15*
X124500000Y-180908600D02*
X124500000Y-179250000D01*
X120461800Y-184500000D02*
X120578800Y-184617000D01*
X122500000Y-179250000D02*
X118750000Y-179250000D01*
X118750000Y-184500000D02*
X118750000Y-179250000D01*
X118750000Y-184500000D02*
X119090200Y-184500000D01*
X119090200Y-184500000D02*
X120461800Y-184500000D01*
D16*
X120680400Y-184718600D02*
X120461800Y-184500000D01*
X120680400Y-186090200D02*
X120680400Y-184718600D01*
D15*
X133177200Y-163842800D02*
X131270000Y-165750000D01*
D16*
X133750000Y-163250000D02*
X133716200Y-163250000D01*
X133716200Y-163250000D02*
X133177200Y-163789000D01*
D15*
X133177200Y-163789000D02*
X133177200Y-163842800D01*
X135020000Y-172210400D02*
X135020000Y-171356960D01*
X135020000Y-174293140D02*
X135020000Y-172210400D01*
D16*
X134983200Y-172247200D02*
X135020000Y-172210400D01*
X133761400Y-172196400D02*
X134983200Y-172247200D01*
X113314400Y-171230000D02*
X113314400Y-171205800D01*
X111000000Y-171230000D02*
X113314400Y-171230000D01*
X140034000Y-173770000D02*
X140086000Y-173822000D01*
X140600000Y-175700000D02*
X140600000Y-173828000D01*
X138790600Y-179841800D02*
X138790600Y-178790600D01*
X138790600Y-178790600D02*
X139581200Y-178000000D01*
X139581200Y-178000000D02*
X139581200Y-177918800D01*
X139581200Y-177918800D02*
X140000000Y-177500000D01*
X140000000Y-177500000D02*
X140000000Y-176300000D01*
X140000000Y-176300000D02*
X140600000Y-175700000D01*
X140594000Y-173822000D02*
X140086000Y-173822000D01*
X140600000Y-173828000D02*
X140594000Y-173822000D01*
X140034000Y-173770000D02*
X137900000Y-173770000D01*
X138790600Y-180451400D02*
X138790600Y-179841800D01*
X132720000Y-186522000D02*
X138790600Y-180451400D01*
X131704000Y-186522000D02*
X132720000Y-186522000D01*
X130281600Y-187944400D02*
X131704000Y-186522000D01*
X129621200Y-187944400D02*
X130281600Y-187944400D01*
X113314400Y-176310000D02*
X113315600Y-176311200D01*
X113315600Y-176311200D02*
X113314400Y-176311200D01*
X120000000Y-176310000D02*
X113314400Y-176310000D01*
X123220400Y-188233610D02*
X123227324Y-188226686D01*
X123220400Y-186090200D02*
X123220400Y-188233610D01*
X120147000Y-188300000D02*
X119689800Y-187842800D01*
X119689800Y-187842800D02*
X118877000Y-187842800D01*
X120147000Y-188376200D02*
X123077810Y-188376200D01*
X123077810Y-188376200D02*
X123227324Y-188226686D01*
X113314400Y-176311200D02*
X113314400Y-182915200D01*
X118242000Y-187842800D02*
X113314400Y-182915200D01*
X118877000Y-187842800D02*
X118242000Y-187842800D01*
X120147000Y-188376200D02*
X120147000Y-188300000D01*
D15*
X123931600Y-171559000D02*
X122990600Y-172500000D01*
X123931600Y-163636600D02*
X123931600Y-171559000D01*
X122750000Y-163674200D02*
X122787600Y-163636600D01*
X122787600Y-163636600D02*
X123931600Y-163636600D01*
X122750000Y-172500000D02*
X122750000Y-163674200D01*
D16*
X125770000Y-160000000D02*
X125770000Y-156804000D01*
X125862000Y-156804000D02*
X125770000Y-156804000D01*
X137952000Y-171282000D02*
X137900000Y-171230000D01*
X140086000Y-167472000D02*
X140086000Y-171282000D01*
X139324000Y-166710000D02*
X140086000Y-167472000D01*
X139070000Y-166456000D02*
X139324000Y-166710000D01*
X139070000Y-165186000D02*
X139070000Y-166456000D01*
X132720000Y-158836000D02*
X139070000Y-165186000D01*
X132720000Y-158582000D02*
X132720000Y-158836000D01*
X131958000Y-157820000D02*
X132720000Y-158582000D01*
X130434000Y-157820000D02*
X131958000Y-157820000D01*
X129418000Y-156804000D02*
X130434000Y-157820000D01*
X128910000Y-156804000D02*
X129418000Y-156804000D01*
X140086000Y-171282000D02*
X137952000Y-171282000D01*
X128910000Y-156804000D02*
X125862000Y-156804000D01*
X119512000Y-156804000D02*
X125862000Y-156804000D01*
X108590000Y-167726000D02*
X108590000Y-169758000D01*
X109606000Y-166710000D02*
X108590000Y-167726000D01*
X109606000Y-165694000D02*
X109606000Y-166710000D01*
X112146000Y-163154000D02*
X109606000Y-165694000D01*
X112146000Y-161630000D02*
X112146000Y-163154000D01*
X114432000Y-159344000D02*
X112146000Y-161630000D01*
X115194000Y-159344000D02*
X114432000Y-159344000D01*
X116464000Y-158074000D02*
X115194000Y-159344000D01*
X118242000Y-158074000D02*
X116464000Y-158074000D01*
X119512000Y-156804000D02*
X118242000Y-158074000D01*
X111000000Y-173770000D02*
X108590000Y-173770000D01*
X108590000Y-169758000D02*
X108590000Y-173770000D01*
X219590000Y-169758000D02*
X219590000Y-173770000D01*
X222000000Y-173770000D02*
X219590000Y-173770000D01*
X230512000Y-156804000D02*
X229242000Y-158074000D01*
X229242000Y-158074000D02*
X227464000Y-158074000D01*
X227464000Y-158074000D02*
X226194000Y-159344000D01*
X226194000Y-159344000D02*
X225432000Y-159344000D01*
X225432000Y-159344000D02*
X223146000Y-161630000D01*
X223146000Y-161630000D02*
X223146000Y-163154000D01*
X223146000Y-163154000D02*
X220606000Y-165694000D01*
X220606000Y-165694000D02*
X220606000Y-166710000D01*
X220606000Y-166710000D02*
X219590000Y-167726000D01*
X219590000Y-167726000D02*
X219590000Y-169758000D01*
X230512000Y-156804000D02*
X236862000Y-156804000D01*
X239910000Y-156804000D02*
X236862000Y-156804000D01*
X251086000Y-171282000D02*
X248952000Y-171282000D01*
X239910000Y-156804000D02*
X240418000Y-156804000D01*
X240418000Y-156804000D02*
X241434000Y-157820000D01*
X241434000Y-157820000D02*
X242958000Y-157820000D01*
X242958000Y-157820000D02*
X243720000Y-158582000D01*
X243720000Y-158582000D02*
X243720000Y-158836000D01*
X243720000Y-158836000D02*
X250070000Y-165186000D01*
X250070000Y-165186000D02*
X250070000Y-166456000D01*
X250070000Y-166456000D02*
X250324000Y-166710000D01*
X250324000Y-166710000D02*
X251086000Y-167472000D01*
X251086000Y-167472000D02*
X251086000Y-171282000D01*
X248952000Y-171282000D02*
X248900000Y-171230000D01*
X236862000Y-156804000D02*
X236770000Y-156804000D01*
X236770000Y-160000000D02*
X236770000Y-156804000D01*
D15*
X233750000Y-172500000D02*
X233750000Y-163674200D01*
X233787600Y-163636600D02*
X234931600Y-163636600D01*
X233750000Y-163674200D02*
X233787600Y-163636600D01*
X234931600Y-163636600D02*
X234931600Y-171559000D01*
X234931600Y-171559000D02*
X233990600Y-172500000D01*
D16*
X231147000Y-188376200D02*
X231147000Y-188300000D01*
X229877000Y-187842800D02*
X229242000Y-187842800D01*
X229242000Y-187842800D02*
X224314400Y-182915200D01*
X224314400Y-176311200D02*
X224314400Y-182915200D01*
X234077810Y-188376200D02*
X234227324Y-188226686D01*
X231147000Y-188376200D02*
X234077810Y-188376200D01*
X230689800Y-187842800D02*
X229877000Y-187842800D01*
X231147000Y-188300000D02*
X230689800Y-187842800D01*
X234220400Y-186090200D02*
X234220400Y-188233610D01*
X234220400Y-188233610D02*
X234227324Y-188226686D01*
X231000000Y-176310000D02*
X224314400Y-176310000D01*
X224315600Y-176311200D02*
X224314400Y-176311200D01*
X224314400Y-176310000D02*
X224315600Y-176311200D01*
X240621200Y-187944400D02*
X241281600Y-187944400D01*
X241281600Y-187944400D02*
X242704000Y-186522000D01*
X242704000Y-186522000D02*
X243720000Y-186522000D01*
X243720000Y-186522000D02*
X249790600Y-180451400D01*
X249790600Y-180451400D02*
X249790600Y-179841800D01*
X251034000Y-173770000D02*
X248900000Y-173770000D01*
X251600000Y-173828000D02*
X251594000Y-173822000D01*
X251594000Y-173822000D02*
X251086000Y-173822000D01*
X251000000Y-176300000D02*
X251600000Y-175700000D01*
X251000000Y-177500000D02*
X251000000Y-176300000D01*
X250581200Y-177918800D02*
X251000000Y-177500000D01*
X250581200Y-178000000D02*
X250581200Y-177918800D01*
X249790600Y-178790600D02*
X250581200Y-178000000D01*
X249790600Y-179841800D02*
X249790600Y-178790600D01*
X251600000Y-175700000D02*
X251600000Y-173828000D01*
X251034000Y-173770000D02*
X251086000Y-173822000D01*
X222000000Y-171230000D02*
X224314400Y-171230000D01*
X224314400Y-171230000D02*
X224314400Y-171205800D01*
X244761400Y-172196400D02*
X245983200Y-172247200D01*
X245983200Y-172247200D02*
X246020000Y-172210400D01*
D15*
X246020000Y-174293140D02*
X246020000Y-172210400D01*
X246020000Y-172210400D02*
X246020000Y-171356960D01*
X244177200Y-163789000D02*
X244177200Y-163842800D01*
D16*
X244716200Y-163250000D02*
X244177200Y-163789000D01*
X244750000Y-163250000D02*
X244716200Y-163250000D01*
D15*
X244177200Y-163842800D02*
X242270000Y-165750000D01*
D16*
X231680400Y-186090200D02*
X231680400Y-184718600D01*
X231680400Y-184718600D02*
X231461800Y-184500000D01*
D15*
X230090200Y-184500000D02*
X231461800Y-184500000D01*
X229750000Y-184500000D02*
X230090200Y-184500000D01*
X229750000Y-184500000D02*
X229750000Y-179250000D01*
X233500000Y-179250000D02*
X229750000Y-179250000D01*
X231461800Y-184500000D02*
X231578800Y-184617000D01*
X235500000Y-180908600D02*
X235500000Y-179250000D01*
D16*
X235500000Y-182000000D02*
X235500000Y-180908600D01*
X235500000Y-180908600D02*
X235500000Y-180816600D01*
X235500000Y-180816600D02*
X235465000Y-180781600D01*
D15*
X226625800Y-163636600D02*
X226636600Y-163636600D01*
X227750000Y-165382600D02*
X227750000Y-164750000D01*
D16*
X226250000Y-163260800D02*
X226625800Y-163636600D01*
X226250000Y-163260800D02*
X226250000Y-163250000D01*
D15*
X226636600Y-163636600D02*
X227750000Y-164750000D01*
X226250000Y-163250000D02*
X226250000Y-163286200D01*
X226016200Y-168690000D02*
X226016200Y-168183200D01*
X226016200Y-168183200D02*
X227006800Y-167192600D01*
X224187400Y-168690000D02*
X224442600Y-168690000D01*
X224442600Y-168690000D02*
X227750000Y-165382600D01*
X246020000Y-175507320D02*
X246020000Y-177681500D01*
X246020000Y-171356960D02*
X246020000Y-169427800D01*
X246020000Y-174293140D02*
X246020000Y-175507320D01*
X246020000Y-175507320D02*
X246822680Y-176310000D01*
D16*
X246020000Y-174293140D02*
X246018700Y-174294440D01*
X246020000Y-171356960D02*
X246018700Y-171355660D01*
D15*
X247063840Y-176310000D02*
X246822680Y-176310000D01*
X246822680Y-176310000D02*
X246020000Y-176310000D01*
X246020000Y-176310000D02*
X246020000Y-177681500D01*
X238995600Y-179250000D02*
X242250000Y-179250000D01*
X246020000Y-177681500D02*
X246020000Y-179310000D01*
X246000000Y-179290000D02*
X246000000Y-179310000D01*
X246020000Y-179310000D02*
X246000000Y-179290000D01*
X246000000Y-179310000D02*
X242270000Y-179310000D01*
X242250000Y-179250000D02*
X242270000Y-179230000D01*
X242270000Y-179230000D02*
X242270000Y-179310000D01*
D16*
X248900000Y-176310000D02*
X247063840Y-176310000D01*
X247063840Y-176310000D02*
X247034700Y-176339140D01*
D15*
X236770000Y-164383360D02*
X236770000Y-164667400D01*
X236770000Y-164667400D02*
X237852600Y-165750000D01*
X236770000Y-163636600D02*
X237809420Y-163636600D01*
X239922820Y-165750000D02*
X239922820Y-165818340D01*
X237809420Y-163636600D02*
X239922820Y-165750000D01*
X235719000Y-172500000D02*
X235719000Y-164424000D01*
X235719000Y-164424000D02*
X234931600Y-163636600D01*
X234931600Y-163636600D02*
X236770000Y-163636600D01*
X236770000Y-163636600D02*
X236770000Y-163636600D01*
X237852600Y-172500000D02*
X237852600Y-177962200D01*
X237852600Y-177962200D02*
X238005000Y-177962200D01*
X235719000Y-172500000D02*
X235719000Y-177733600D01*
X235719000Y-177733600D02*
X235490400Y-177962200D01*
X236538080Y-172500000D02*
X236538080Y-176914520D01*
X236538080Y-176914520D02*
X235490400Y-177962200D01*
X235490400Y-177962200D02*
X234918900Y-177962200D01*
X234918900Y-177962200D02*
X234918900Y-177962200D01*
X234918900Y-177962200D02*
X234918900Y-173428300D01*
X234918900Y-173428300D02*
X233990600Y-172500000D01*
X233750000Y-177962200D02*
X234918900Y-177962200D01*
X234918900Y-177962200D02*
X238005000Y-177962200D01*
X238005000Y-177962200D02*
X238995600Y-178952800D01*
X223221000Y-168690000D02*
X224187400Y-168690000D01*
X224187400Y-168690000D02*
X226016200Y-168690000D01*
X226016200Y-168690000D02*
X227750000Y-168690000D01*
D16*
X222000000Y-168690000D02*
X223221000Y-168690000D01*
X223221000Y-168690000D02*
X223247600Y-168716600D01*
D15*
X238995600Y-166745560D02*
X242239180Y-166745560D01*
X242867370Y-166117370D02*
X242867370Y-165750000D01*
X242239180Y-166745560D02*
X242867370Y-166117370D01*
X238995600Y-167743780D02*
X243534580Y-167743780D01*
X243552360Y-167761560D02*
X243552360Y-166802360D01*
X243534580Y-167743780D02*
X243552360Y-167761560D01*
X238995600Y-168640400D02*
X244184820Y-168640400D01*
X244184820Y-168640400D02*
X244228000Y-168597220D01*
X237852600Y-172500000D02*
X237852600Y-165750000D01*
X237852600Y-165750000D02*
X237500000Y-165750000D01*
X236538080Y-172500000D02*
X237852600Y-172500000D01*
X237852600Y-172500000D02*
X238232400Y-172500000D01*
X238232400Y-172500000D02*
X238995600Y-173263200D01*
X238995600Y-173263200D02*
X238995600Y-173263200D01*
X246020000Y-169427800D02*
X240672000Y-169427800D01*
X240672000Y-169427800D02*
X239783000Y-169427800D01*
X239783000Y-169427800D02*
X238995600Y-168640400D01*
X238995600Y-179250000D02*
X238995600Y-178952800D01*
X238995600Y-178952800D02*
X238995600Y-173263200D01*
X238995600Y-173263200D02*
X238995600Y-168640400D01*
X238995600Y-168640400D02*
X238995600Y-167743780D01*
X238995600Y-167743780D02*
X238995600Y-166745560D01*
X238995600Y-166745560D02*
X239922820Y-165818340D01*
X239922820Y-165818340D02*
X239991160Y-165750000D01*
X233750000Y-172500000D02*
X233990600Y-172500000D01*
X233990600Y-172500000D02*
X235719000Y-172500000D01*
X235719000Y-172500000D02*
X236538080Y-172500000D01*
X236770000Y-172268080D02*
X236770000Y-165520000D01*
X236538080Y-172500000D02*
X236770000Y-172268080D01*
D16*
X239747440Y-188226686D02*
X240338914Y-188226686D01*
X240338914Y-188226686D02*
X240621200Y-187944400D01*
X237542374Y-188226686D02*
X239747440Y-188226686D01*
X239747440Y-188226686D02*
X239785886Y-188226686D01*
X234227324Y-188226686D02*
X237542374Y-188226686D01*
X237542374Y-188226686D02*
X237578280Y-188190780D01*
X231000000Y-168690000D02*
X231000000Y-162480000D01*
X231000000Y-162480000D02*
X234230000Y-160000000D01*
X224314400Y-176311200D02*
X224314400Y-171205800D01*
X224314400Y-171205800D02*
X224290200Y-171230000D01*
D15*
X246020000Y-169427800D02*
X246020000Y-169270000D01*
X246020000Y-169270000D02*
X243552360Y-166802360D01*
X242500000Y-165750000D02*
X242867370Y-165750000D01*
X243552360Y-166802360D02*
X242500000Y-165750000D01*
X242867370Y-165750000D02*
X242270000Y-165750000D01*
X235500000Y-179250000D02*
X238995600Y-179250000D01*
X227750000Y-165000000D02*
X227750000Y-165382600D01*
X227750000Y-165382600D02*
X227750000Y-168690000D01*
X233500000Y-179000000D02*
X233500000Y-179250000D01*
X233750000Y-179250000D02*
X233500000Y-179000000D01*
X233750000Y-172500000D02*
X233750000Y-177962200D01*
X233750000Y-177962200D02*
X233750000Y-179250000D01*
X227750000Y-172500000D02*
X233750000Y-172500000D01*
X227750000Y-168690000D02*
X227750000Y-172500000D01*
X242270000Y-165750000D02*
X241337600Y-165750000D01*
X241337600Y-165750000D02*
X239991160Y-165750000D01*
X239991160Y-165750000D02*
X237500000Y-165750000D01*
X237000000Y-165750000D02*
X236770000Y-165520000D01*
X237500000Y-165750000D02*
X237000000Y-165750000D01*
X236770000Y-165520000D02*
X236770000Y-164383360D01*
X236770000Y-164383360D02*
X236770000Y-163636600D01*
X242270000Y-165750000D02*
X242270000Y-165730000D01*
X231680400Y-186090200D02*
X231680400Y-186030200D01*
X233500000Y-179250000D02*
X235500000Y-179250000D01*
X196500000Y-179250000D02*
X198500000Y-179250000D01*
X194680400Y-186090200D02*
X194680400Y-186030200D01*
X205270000Y-165750000D02*
X205270000Y-165730000D01*
X199770000Y-164383360D02*
X199770000Y-163636600D01*
X199770000Y-165520000D02*
X199770000Y-164383360D01*
X200500000Y-165750000D02*
X200000000Y-165750000D01*
X200000000Y-165750000D02*
X199770000Y-165520000D01*
X202991160Y-165750000D02*
X200500000Y-165750000D01*
X204337600Y-165750000D02*
X202991160Y-165750000D01*
X205270000Y-165750000D02*
X204337600Y-165750000D01*
X190750000Y-168690000D02*
X190750000Y-172500000D01*
X190750000Y-172500000D02*
X196750000Y-172500000D01*
X196750000Y-177962200D02*
X196750000Y-179250000D01*
X196750000Y-172500000D02*
X196750000Y-177962200D01*
X196750000Y-179250000D02*
X196500000Y-179000000D01*
X196500000Y-179000000D02*
X196500000Y-179250000D01*
X190750000Y-165382600D02*
X190750000Y-168690000D01*
X190750000Y-165000000D02*
X190750000Y-165382600D01*
X198500000Y-179250000D02*
X201995600Y-179250000D01*
X205867370Y-165750000D02*
X205270000Y-165750000D01*
X206552360Y-166802360D02*
X205500000Y-165750000D01*
X205500000Y-165750000D02*
X205867370Y-165750000D01*
X209020000Y-169270000D02*
X206552360Y-166802360D01*
X209020000Y-169427800D02*
X209020000Y-169270000D01*
D16*
X187314400Y-171205800D02*
X187290200Y-171230000D01*
X187314400Y-176311200D02*
X187314400Y-171205800D01*
X194000000Y-162480000D02*
X197230000Y-160000000D01*
X194000000Y-168690000D02*
X194000000Y-162480000D01*
X200542374Y-188226686D02*
X200578280Y-188190780D01*
X197227324Y-188226686D02*
X200542374Y-188226686D01*
X202747440Y-188226686D02*
X202785886Y-188226686D01*
X200542374Y-188226686D02*
X202747440Y-188226686D01*
X203338914Y-188226686D02*
X203621200Y-187944400D01*
X202747440Y-188226686D02*
X203338914Y-188226686D01*
D15*
X199538080Y-172500000D02*
X199770000Y-172268080D01*
X199770000Y-172268080D02*
X199770000Y-165520000D01*
X198719000Y-172500000D02*
X199538080Y-172500000D01*
X196990600Y-172500000D02*
X198719000Y-172500000D01*
X196750000Y-172500000D02*
X196990600Y-172500000D01*
X202922820Y-165818340D02*
X202991160Y-165750000D01*
X201995600Y-166745560D02*
X202922820Y-165818340D01*
X201995600Y-167743780D02*
X201995600Y-166745560D01*
X201995600Y-168640400D02*
X201995600Y-167743780D01*
X201995600Y-173263200D02*
X201995600Y-168640400D01*
X201995600Y-178952800D02*
X201995600Y-173263200D01*
X201995600Y-179250000D02*
X201995600Y-178952800D01*
X202783000Y-169427800D02*
X201995600Y-168640400D01*
X203672000Y-169427800D02*
X202783000Y-169427800D01*
X209020000Y-169427800D02*
X203672000Y-169427800D01*
X201995600Y-173263200D02*
X201995600Y-173263200D01*
X201232400Y-172500000D02*
X201995600Y-173263200D01*
X200852600Y-172500000D02*
X201232400Y-172500000D01*
X199538080Y-172500000D02*
X200852600Y-172500000D01*
X200852600Y-165750000D02*
X200500000Y-165750000D01*
X200852600Y-172500000D02*
X200852600Y-165750000D01*
X207184820Y-168640400D02*
X207228000Y-168597220D01*
X201995600Y-168640400D02*
X207184820Y-168640400D01*
X206534580Y-167743780D02*
X206552360Y-167761560D01*
X206552360Y-167761560D02*
X206552360Y-166802360D01*
X201995600Y-167743780D02*
X206534580Y-167743780D01*
X205239180Y-166745560D02*
X205867370Y-166117370D01*
X205867370Y-166117370D02*
X205867370Y-165750000D01*
X201995600Y-166745560D02*
X205239180Y-166745560D01*
D16*
X186221000Y-168690000D02*
X186247600Y-168716600D01*
X185000000Y-168690000D02*
X186221000Y-168690000D01*
D15*
X189016200Y-168690000D02*
X190750000Y-168690000D01*
X187187400Y-168690000D02*
X189016200Y-168690000D01*
X186221000Y-168690000D02*
X187187400Y-168690000D01*
X201005000Y-177962200D02*
X201995600Y-178952800D01*
X197918900Y-177962200D02*
X201005000Y-177962200D01*
X196750000Y-177962200D02*
X197918900Y-177962200D01*
X197918900Y-173428300D02*
X196990600Y-172500000D01*
X197918900Y-177962200D02*
X197918900Y-173428300D01*
X197918900Y-177962200D02*
X197918900Y-177962200D01*
X198490400Y-177962200D02*
X197918900Y-177962200D01*
X199538080Y-176914520D02*
X198490400Y-177962200D01*
X199538080Y-172500000D02*
X199538080Y-176914520D01*
X198719000Y-177733600D02*
X198490400Y-177962200D01*
X198719000Y-172500000D02*
X198719000Y-177733600D01*
X200852600Y-177962200D02*
X201005000Y-177962200D01*
X200852600Y-172500000D02*
X200852600Y-177962200D01*
X199770000Y-163636600D02*
X199770000Y-163636600D01*
X197931600Y-163636600D02*
X199770000Y-163636600D01*
X198719000Y-164424000D02*
X197931600Y-163636600D01*
X198719000Y-172500000D02*
X198719000Y-164424000D01*
X200809420Y-163636600D02*
X202922820Y-165750000D01*
X202922820Y-165750000D02*
X202922820Y-165818340D01*
X199770000Y-163636600D02*
X200809420Y-163636600D01*
X199770000Y-164667400D02*
X200852600Y-165750000D01*
X199770000Y-164383360D02*
X199770000Y-164667400D01*
D16*
X210063840Y-176310000D02*
X210034700Y-176339140D01*
X211900000Y-176310000D02*
X210063840Y-176310000D01*
D15*
X205270000Y-179230000D02*
X205270000Y-179310000D01*
X205250000Y-179250000D02*
X205270000Y-179230000D01*
X209000000Y-179310000D02*
X205270000Y-179310000D01*
X209020000Y-179310000D02*
X209000000Y-179290000D01*
X209000000Y-179290000D02*
X209000000Y-179310000D01*
X209020000Y-177681500D02*
X209020000Y-179310000D01*
X201995600Y-179250000D02*
X205250000Y-179250000D01*
X209020000Y-176310000D02*
X209020000Y-177681500D01*
X209822680Y-176310000D02*
X209020000Y-176310000D01*
X210063840Y-176310000D02*
X209822680Y-176310000D01*
D16*
X209020000Y-171356960D02*
X209018700Y-171355660D01*
X209020000Y-174293140D02*
X209018700Y-174294440D01*
D15*
X209020000Y-175507320D02*
X209822680Y-176310000D01*
X209020000Y-174293140D02*
X209020000Y-175507320D01*
X209020000Y-171356960D02*
X209020000Y-169427800D01*
X209020000Y-175507320D02*
X209020000Y-177681500D01*
X187442600Y-168690000D02*
X190750000Y-165382600D01*
X187187400Y-168690000D02*
X187442600Y-168690000D01*
X189016200Y-168183200D02*
X190006800Y-167192600D01*
X189016200Y-168690000D02*
X189016200Y-168183200D01*
X189250000Y-163250000D02*
X189250000Y-163286200D01*
X189636600Y-163636600D02*
X190750000Y-164750000D01*
D16*
X189250000Y-163260800D02*
X189250000Y-163250000D01*
X189250000Y-163260800D02*
X189625800Y-163636600D01*
D15*
X190750000Y-165382600D02*
X190750000Y-164750000D01*
X189625800Y-163636600D02*
X189636600Y-163636600D01*
D16*
X198500000Y-180816600D02*
X198465000Y-180781600D01*
X198500000Y-180908600D02*
X198500000Y-180816600D01*
X198500000Y-182000000D02*
X198500000Y-180908600D01*
D15*
X198500000Y-180908600D02*
X198500000Y-179250000D01*
X194461800Y-184500000D02*
X194578800Y-184617000D01*
X196500000Y-179250000D02*
X192750000Y-179250000D01*
X192750000Y-184500000D02*
X192750000Y-179250000D01*
X192750000Y-184500000D02*
X193090200Y-184500000D01*
X193090200Y-184500000D02*
X194461800Y-184500000D01*
D16*
X194680400Y-184718600D02*
X194461800Y-184500000D01*
X194680400Y-186090200D02*
X194680400Y-184718600D01*
D15*
X207177200Y-163842800D02*
X205270000Y-165750000D01*
D16*
X207750000Y-163250000D02*
X207716200Y-163250000D01*
X207716200Y-163250000D02*
X207177200Y-163789000D01*
D15*
X207177200Y-163789000D02*
X207177200Y-163842800D01*
X209020000Y-172210400D02*
X209020000Y-171356960D01*
X209020000Y-174293140D02*
X209020000Y-172210400D01*
D16*
X208983200Y-172247200D02*
X209020000Y-172210400D01*
X207761400Y-172196400D02*
X208983200Y-172247200D01*
X187314400Y-171230000D02*
X187314400Y-171205800D01*
X185000000Y-171230000D02*
X187314400Y-171230000D01*
X214034000Y-173770000D02*
X214086000Y-173822000D01*
X214600000Y-175700000D02*
X214600000Y-173828000D01*
X212790600Y-179841800D02*
X212790600Y-178790600D01*
X212790600Y-178790600D02*
X213581200Y-178000000D01*
X213581200Y-178000000D02*
X213581200Y-177918800D01*
X213581200Y-177918800D02*
X214000000Y-177500000D01*
X214000000Y-177500000D02*
X214000000Y-176300000D01*
X214000000Y-176300000D02*
X214600000Y-175700000D01*
X214594000Y-173822000D02*
X214086000Y-173822000D01*
X214600000Y-173828000D02*
X214594000Y-173822000D01*
X214034000Y-173770000D02*
X211900000Y-173770000D01*
X212790600Y-180451400D02*
X212790600Y-179841800D01*
X206720000Y-186522000D02*
X212790600Y-180451400D01*
X205704000Y-186522000D02*
X206720000Y-186522000D01*
X204281600Y-187944400D02*
X205704000Y-186522000D01*
X203621200Y-187944400D02*
X204281600Y-187944400D01*
X187314400Y-176310000D02*
X187315600Y-176311200D01*
X187315600Y-176311200D02*
X187314400Y-176311200D01*
X194000000Y-176310000D02*
X187314400Y-176310000D01*
X197220400Y-188233610D02*
X197227324Y-188226686D01*
X197220400Y-186090200D02*
X197220400Y-188233610D01*
X194147000Y-188300000D02*
X193689800Y-187842800D01*
X193689800Y-187842800D02*
X192877000Y-187842800D01*
X194147000Y-188376200D02*
X197077810Y-188376200D01*
X197077810Y-188376200D02*
X197227324Y-188226686D01*
X187314400Y-176311200D02*
X187314400Y-182915200D01*
X192242000Y-187842800D02*
X187314400Y-182915200D01*
X192877000Y-187842800D02*
X192242000Y-187842800D01*
X194147000Y-188376200D02*
X194147000Y-188300000D01*
D15*
X197931600Y-171559000D02*
X196990600Y-172500000D01*
X197931600Y-163636600D02*
X197931600Y-171559000D01*
X196750000Y-163674200D02*
X196787600Y-163636600D01*
X196787600Y-163636600D02*
X197931600Y-163636600D01*
X196750000Y-172500000D02*
X196750000Y-163674200D01*
D16*
X199770000Y-160000000D02*
X199770000Y-156804000D01*
X199862000Y-156804000D02*
X199770000Y-156804000D01*
X211952000Y-171282000D02*
X211900000Y-171230000D01*
X214086000Y-167472000D02*
X214086000Y-171282000D01*
X213324000Y-166710000D02*
X214086000Y-167472000D01*
X213070000Y-166456000D02*
X213324000Y-166710000D01*
X213070000Y-165186000D02*
X213070000Y-166456000D01*
X206720000Y-158836000D02*
X213070000Y-165186000D01*
X206720000Y-158582000D02*
X206720000Y-158836000D01*
X205958000Y-157820000D02*
X206720000Y-158582000D01*
X204434000Y-157820000D02*
X205958000Y-157820000D01*
X203418000Y-156804000D02*
X204434000Y-157820000D01*
X202910000Y-156804000D02*
X203418000Y-156804000D01*
X214086000Y-171282000D02*
X211952000Y-171282000D01*
X202910000Y-156804000D02*
X199862000Y-156804000D01*
X193512000Y-156804000D02*
X199862000Y-156804000D01*
X182590000Y-167726000D02*
X182590000Y-169758000D01*
X183606000Y-166710000D02*
X182590000Y-167726000D01*
X183606000Y-165694000D02*
X183606000Y-166710000D01*
X186146000Y-163154000D02*
X183606000Y-165694000D01*
X186146000Y-161630000D02*
X186146000Y-163154000D01*
X188432000Y-159344000D02*
X186146000Y-161630000D01*
X189194000Y-159344000D02*
X188432000Y-159344000D01*
X190464000Y-158074000D02*
X189194000Y-159344000D01*
X192242000Y-158074000D02*
X190464000Y-158074000D01*
X193512000Y-156804000D02*
X192242000Y-158074000D01*
X185000000Y-173770000D02*
X182590000Y-173770000D01*
X182590000Y-169758000D02*
X182590000Y-173770000D01*
X145590000Y-169758000D02*
X145590000Y-173770000D01*
X148000000Y-173770000D02*
X145590000Y-173770000D01*
X156512000Y-156804000D02*
X155242000Y-158074000D01*
X155242000Y-158074000D02*
X153464000Y-158074000D01*
X153464000Y-158074000D02*
X152194000Y-159344000D01*
X152194000Y-159344000D02*
X151432000Y-159344000D01*
X151432000Y-159344000D02*
X149146000Y-161630000D01*
X149146000Y-161630000D02*
X149146000Y-163154000D01*
X149146000Y-163154000D02*
X146606000Y-165694000D01*
X146606000Y-165694000D02*
X146606000Y-166710000D01*
X146606000Y-166710000D02*
X145590000Y-167726000D01*
X145590000Y-167726000D02*
X145590000Y-169758000D01*
X156512000Y-156804000D02*
X162862000Y-156804000D01*
X165910000Y-156804000D02*
X162862000Y-156804000D01*
X177086000Y-171282000D02*
X174952000Y-171282000D01*
X165910000Y-156804000D02*
X166418000Y-156804000D01*
X166418000Y-156804000D02*
X167434000Y-157820000D01*
X167434000Y-157820000D02*
X168958000Y-157820000D01*
X168958000Y-157820000D02*
X169720000Y-158582000D01*
X169720000Y-158582000D02*
X169720000Y-158836000D01*
X169720000Y-158836000D02*
X176070000Y-165186000D01*
X176070000Y-165186000D02*
X176070000Y-166456000D01*
X176070000Y-166456000D02*
X176324000Y-166710000D01*
X176324000Y-166710000D02*
X177086000Y-167472000D01*
X177086000Y-167472000D02*
X177086000Y-171282000D01*
X174952000Y-171282000D02*
X174900000Y-171230000D01*
X162862000Y-156804000D02*
X162770000Y-156804000D01*
X162770000Y-160000000D02*
X162770000Y-156804000D01*
D15*
X159750000Y-172500000D02*
X159750000Y-163674200D01*
X159787600Y-163636600D02*
X160931600Y-163636600D01*
X159750000Y-163674200D02*
X159787600Y-163636600D01*
X160931600Y-163636600D02*
X160931600Y-171559000D01*
X160931600Y-171559000D02*
X159990600Y-172500000D01*
D16*
X157147000Y-188376200D02*
X157147000Y-188300000D01*
X155877000Y-187842800D02*
X155242000Y-187842800D01*
X155242000Y-187842800D02*
X150314400Y-182915200D01*
X150314400Y-176311200D02*
X150314400Y-182915200D01*
X160077810Y-188376200D02*
X160227324Y-188226686D01*
X157147000Y-188376200D02*
X160077810Y-188376200D01*
X156689800Y-187842800D02*
X155877000Y-187842800D01*
X157147000Y-188300000D02*
X156689800Y-187842800D01*
X160220400Y-186090200D02*
X160220400Y-188233610D01*
X160220400Y-188233610D02*
X160227324Y-188226686D01*
X157000000Y-176310000D02*
X150314400Y-176310000D01*
X150315600Y-176311200D02*
X150314400Y-176311200D01*
X150314400Y-176310000D02*
X150315600Y-176311200D01*
X166621200Y-187944400D02*
X167281600Y-187944400D01*
X167281600Y-187944400D02*
X168704000Y-186522000D01*
X168704000Y-186522000D02*
X169720000Y-186522000D01*
X169720000Y-186522000D02*
X175790600Y-180451400D01*
X175790600Y-180451400D02*
X175790600Y-179841800D01*
X177034000Y-173770000D02*
X174900000Y-173770000D01*
X177600000Y-173828000D02*
X177594000Y-173822000D01*
X177594000Y-173822000D02*
X177086000Y-173822000D01*
X177000000Y-176300000D02*
X177600000Y-175700000D01*
X177000000Y-177500000D02*
X177000000Y-176300000D01*
X176581200Y-177918800D02*
X177000000Y-177500000D01*
X176581200Y-178000000D02*
X176581200Y-177918800D01*
X175790600Y-178790600D02*
X176581200Y-178000000D01*
X175790600Y-179841800D02*
X175790600Y-178790600D01*
X177600000Y-175700000D02*
X177600000Y-173828000D01*
X177034000Y-173770000D02*
X177086000Y-173822000D01*
X148000000Y-171230000D02*
X150314400Y-171230000D01*
X150314400Y-171230000D02*
X150314400Y-171205800D01*
X170761400Y-172196400D02*
X171983200Y-172247200D01*
X171983200Y-172247200D02*
X172020000Y-172210400D01*
D15*
X172020000Y-174293140D02*
X172020000Y-172210400D01*
X172020000Y-172210400D02*
X172020000Y-171356960D01*
X170177200Y-163789000D02*
X170177200Y-163842800D01*
D16*
X170716200Y-163250000D02*
X170177200Y-163789000D01*
X170750000Y-163250000D02*
X170716200Y-163250000D01*
D15*
X170177200Y-163842800D02*
X168270000Y-165750000D01*
D16*
X157680400Y-186090200D02*
X157680400Y-184718600D01*
X157680400Y-184718600D02*
X157461800Y-184500000D01*
D15*
X156090200Y-184500000D02*
X157461800Y-184500000D01*
X155750000Y-184500000D02*
X156090200Y-184500000D01*
X155750000Y-184500000D02*
X155750000Y-179250000D01*
X159500000Y-179250000D02*
X155750000Y-179250000D01*
X157461800Y-184500000D02*
X157578800Y-184617000D01*
X161500000Y-180908600D02*
X161500000Y-179250000D01*
D16*
X161500000Y-182000000D02*
X161500000Y-180908600D01*
X161500000Y-180908600D02*
X161500000Y-180816600D01*
X161500000Y-180816600D02*
X161465000Y-180781600D01*
D15*
X152625800Y-163636600D02*
X152636600Y-163636600D01*
X153750000Y-165382600D02*
X153750000Y-164750000D01*
D16*
X152250000Y-163260800D02*
X152625800Y-163636600D01*
X152250000Y-163260800D02*
X152250000Y-163250000D01*
D15*
X152636600Y-163636600D02*
X153750000Y-164750000D01*
X152250000Y-163250000D02*
X152250000Y-163286200D01*
X152016200Y-168690000D02*
X152016200Y-168183200D01*
X152016200Y-168183200D02*
X153006800Y-167192600D01*
X150187400Y-168690000D02*
X150442600Y-168690000D01*
X150442600Y-168690000D02*
X153750000Y-165382600D01*
X172020000Y-175507320D02*
X172020000Y-177681500D01*
X172020000Y-171356960D02*
X172020000Y-169427800D01*
X172020000Y-174293140D02*
X172020000Y-175507320D01*
X172020000Y-175507320D02*
X172822680Y-176310000D01*
D16*
X172020000Y-174293140D02*
X172018700Y-174294440D01*
X172020000Y-171356960D02*
X172018700Y-171355660D01*
D15*
X173063840Y-176310000D02*
X172822680Y-176310000D01*
X172822680Y-176310000D02*
X172020000Y-176310000D01*
X172020000Y-176310000D02*
X172020000Y-177681500D01*
X164995600Y-179250000D02*
X168250000Y-179250000D01*
X172020000Y-177681500D02*
X172020000Y-179310000D01*
X172000000Y-179290000D02*
X172000000Y-179310000D01*
X172020000Y-179310000D02*
X172000000Y-179290000D01*
X172000000Y-179310000D02*
X168270000Y-179310000D01*
X168250000Y-179250000D02*
X168270000Y-179230000D01*
X168270000Y-179230000D02*
X168270000Y-179310000D01*
D16*
X174900000Y-176310000D02*
X173063840Y-176310000D01*
X173063840Y-176310000D02*
X173034700Y-176339140D01*
D15*
X162770000Y-164383360D02*
X162770000Y-164667400D01*
X162770000Y-164667400D02*
X163852600Y-165750000D01*
X162770000Y-163636600D02*
X163809420Y-163636600D01*
X165922820Y-165750000D02*
X165922820Y-165818340D01*
X163809420Y-163636600D02*
X165922820Y-165750000D01*
X161719000Y-172500000D02*
X161719000Y-164424000D01*
X161719000Y-164424000D02*
X160931600Y-163636600D01*
X160931600Y-163636600D02*
X162770000Y-163636600D01*
X162770000Y-163636600D02*
X162770000Y-163636600D01*
X163852600Y-172500000D02*
X163852600Y-177962200D01*
X163852600Y-177962200D02*
X164005000Y-177962200D01*
X161719000Y-172500000D02*
X161719000Y-177733600D01*
X161719000Y-177733600D02*
X161490400Y-177962200D01*
X162538080Y-172500000D02*
X162538080Y-176914520D01*
X162538080Y-176914520D02*
X161490400Y-177962200D01*
X161490400Y-177962200D02*
X160918900Y-177962200D01*
X160918900Y-177962200D02*
X160918900Y-177962200D01*
X160918900Y-177962200D02*
X160918900Y-173428300D01*
X160918900Y-173428300D02*
X159990600Y-172500000D01*
X159750000Y-177962200D02*
X160918900Y-177962200D01*
X160918900Y-177962200D02*
X164005000Y-177962200D01*
X164005000Y-177962200D02*
X164995600Y-178952800D01*
X149221000Y-168690000D02*
X150187400Y-168690000D01*
X150187400Y-168690000D02*
X152016200Y-168690000D01*
X152016200Y-168690000D02*
X153750000Y-168690000D01*
D16*
X148000000Y-168690000D02*
X149221000Y-168690000D01*
X149221000Y-168690000D02*
X149247600Y-168716600D01*
D15*
X164995600Y-166745560D02*
X168239180Y-166745560D01*
X168867370Y-166117370D02*
X168867370Y-165750000D01*
X168239180Y-166745560D02*
X168867370Y-166117370D01*
X164995600Y-167743780D02*
X169534580Y-167743780D01*
X169552360Y-167761560D02*
X169552360Y-166802360D01*
X169534580Y-167743780D02*
X169552360Y-167761560D01*
X164995600Y-168640400D02*
X170184820Y-168640400D01*
X170184820Y-168640400D02*
X170228000Y-168597220D01*
X163852600Y-172500000D02*
X163852600Y-165750000D01*
X163852600Y-165750000D02*
X163500000Y-165750000D01*
X162538080Y-172500000D02*
X163852600Y-172500000D01*
X163852600Y-172500000D02*
X164232400Y-172500000D01*
X164232400Y-172500000D02*
X164995600Y-173263200D01*
X164995600Y-173263200D02*
X164995600Y-173263200D01*
X172020000Y-169427800D02*
X166672000Y-169427800D01*
X166672000Y-169427800D02*
X165783000Y-169427800D01*
X165783000Y-169427800D02*
X164995600Y-168640400D01*
X164995600Y-179250000D02*
X164995600Y-178952800D01*
X164995600Y-178952800D02*
X164995600Y-173263200D01*
X164995600Y-173263200D02*
X164995600Y-168640400D01*
X164995600Y-168640400D02*
X164995600Y-167743780D01*
X164995600Y-167743780D02*
X164995600Y-166745560D01*
X164995600Y-166745560D02*
X165922820Y-165818340D01*
X165922820Y-165818340D02*
X165991160Y-165750000D01*
X159750000Y-172500000D02*
X159990600Y-172500000D01*
X159990600Y-172500000D02*
X161719000Y-172500000D01*
X161719000Y-172500000D02*
X162538080Y-172500000D01*
X162770000Y-172268080D02*
X162770000Y-165520000D01*
X162538080Y-172500000D02*
X162770000Y-172268080D01*
D16*
X165747440Y-188226686D02*
X166338914Y-188226686D01*
X166338914Y-188226686D02*
X166621200Y-187944400D01*
X163542374Y-188226686D02*
X165747440Y-188226686D01*
X165747440Y-188226686D02*
X165785886Y-188226686D01*
X160227324Y-188226686D02*
X163542374Y-188226686D01*
X163542374Y-188226686D02*
X163578280Y-188190780D01*
X157000000Y-168690000D02*
X157000000Y-162480000D01*
X157000000Y-162480000D02*
X160230000Y-160000000D01*
X150314400Y-176311200D02*
X150314400Y-171205800D01*
X150314400Y-171205800D02*
X150290200Y-171230000D01*
D15*
X172020000Y-169427800D02*
X172020000Y-169270000D01*
X172020000Y-169270000D02*
X169552360Y-166802360D01*
X168500000Y-165750000D02*
X168867370Y-165750000D01*
X169552360Y-166802360D02*
X168500000Y-165750000D01*
X168867370Y-165750000D02*
X168270000Y-165750000D01*
X161500000Y-179250000D02*
X164995600Y-179250000D01*
X153750000Y-165000000D02*
X153750000Y-165382600D01*
X153750000Y-165382600D02*
X153750000Y-168690000D01*
X159500000Y-179000000D02*
X159500000Y-179250000D01*
X159750000Y-179250000D02*
X159500000Y-179000000D01*
X159750000Y-172500000D02*
X159750000Y-177962200D01*
X159750000Y-177962200D02*
X159750000Y-179250000D01*
X153750000Y-172500000D02*
X159750000Y-172500000D01*
X153750000Y-168690000D02*
X153750000Y-172500000D01*
X168270000Y-165750000D02*
X167337600Y-165750000D01*
X167337600Y-165750000D02*
X165991160Y-165750000D01*
X165991160Y-165750000D02*
X163500000Y-165750000D01*
X163000000Y-165750000D02*
X162770000Y-165520000D01*
X163500000Y-165750000D02*
X163000000Y-165750000D01*
X162770000Y-165520000D02*
X162770000Y-164383360D01*
X162770000Y-164383360D02*
X162770000Y-163636600D01*
X168270000Y-165750000D02*
X168270000Y-165730000D01*
X157680400Y-186090200D02*
X157680400Y-186030200D01*
X159500000Y-179250000D02*
X161500000Y-179250000D01*
X159500000Y-134250000D02*
X161500000Y-134250000D01*
X157680400Y-141090200D02*
X157680400Y-141030200D01*
X168270000Y-120750000D02*
X168270000Y-120730000D01*
X162770000Y-119383360D02*
X162770000Y-118636600D01*
X162770000Y-120520000D02*
X162770000Y-119383360D01*
X163500000Y-120750000D02*
X163000000Y-120750000D01*
X163000000Y-120750000D02*
X162770000Y-120520000D01*
X165991160Y-120750000D02*
X163500000Y-120750000D01*
X167337600Y-120750000D02*
X165991160Y-120750000D01*
X168270000Y-120750000D02*
X167337600Y-120750000D01*
X153750000Y-123690000D02*
X153750000Y-127500000D01*
X153750000Y-127500000D02*
X159750000Y-127500000D01*
X159750000Y-132962200D02*
X159750000Y-134250000D01*
X159750000Y-127500000D02*
X159750000Y-132962200D01*
X159750000Y-134250000D02*
X159500000Y-134000000D01*
X159500000Y-134000000D02*
X159500000Y-134250000D01*
X153750000Y-120382600D02*
X153750000Y-123690000D01*
X153750000Y-120000000D02*
X153750000Y-120382600D01*
X161500000Y-134250000D02*
X164995600Y-134250000D01*
X168867370Y-120750000D02*
X168270000Y-120750000D01*
X169552360Y-121802360D02*
X168500000Y-120750000D01*
X168500000Y-120750000D02*
X168867370Y-120750000D01*
X172020000Y-124270000D02*
X169552360Y-121802360D01*
X172020000Y-124427800D02*
X172020000Y-124270000D01*
D16*
X150314400Y-126205800D02*
X150290200Y-126230000D01*
X150314400Y-131311200D02*
X150314400Y-126205800D01*
X157000000Y-117480000D02*
X160230000Y-115000000D01*
X157000000Y-123690000D02*
X157000000Y-117480000D01*
X163542374Y-143226686D02*
X163578280Y-143190780D01*
X160227324Y-143226686D02*
X163542374Y-143226686D01*
X165747440Y-143226686D02*
X165785886Y-143226686D01*
X163542374Y-143226686D02*
X165747440Y-143226686D01*
X166338914Y-143226686D02*
X166621200Y-142944400D01*
X165747440Y-143226686D02*
X166338914Y-143226686D01*
D15*
X162538080Y-127500000D02*
X162770000Y-127268080D01*
X162770000Y-127268080D02*
X162770000Y-120520000D01*
X161719000Y-127500000D02*
X162538080Y-127500000D01*
X159990600Y-127500000D02*
X161719000Y-127500000D01*
X159750000Y-127500000D02*
X159990600Y-127500000D01*
X165922820Y-120818340D02*
X165991160Y-120750000D01*
X164995600Y-121745560D02*
X165922820Y-120818340D01*
X164995600Y-122743780D02*
X164995600Y-121745560D01*
X164995600Y-123640400D02*
X164995600Y-122743780D01*
X164995600Y-128263200D02*
X164995600Y-123640400D01*
X164995600Y-133952800D02*
X164995600Y-128263200D01*
X164995600Y-134250000D02*
X164995600Y-133952800D01*
X165783000Y-124427800D02*
X164995600Y-123640400D01*
X166672000Y-124427800D02*
X165783000Y-124427800D01*
X172020000Y-124427800D02*
X166672000Y-124427800D01*
X164995600Y-128263200D02*
X164995600Y-128263200D01*
X164232400Y-127500000D02*
X164995600Y-128263200D01*
X163852600Y-127500000D02*
X164232400Y-127500000D01*
X162538080Y-127500000D02*
X163852600Y-127500000D01*
X163852600Y-120750000D02*
X163500000Y-120750000D01*
X163852600Y-127500000D02*
X163852600Y-120750000D01*
X170184820Y-123640400D02*
X170228000Y-123597220D01*
X164995600Y-123640400D02*
X170184820Y-123640400D01*
X169534580Y-122743780D02*
X169552360Y-122761560D01*
X169552360Y-122761560D02*
X169552360Y-121802360D01*
X164995600Y-122743780D02*
X169534580Y-122743780D01*
X168239180Y-121745560D02*
X168867370Y-121117370D01*
X168867370Y-121117370D02*
X168867370Y-120750000D01*
X164995600Y-121745560D02*
X168239180Y-121745560D01*
D16*
X149221000Y-123690000D02*
X149247600Y-123716600D01*
X148000000Y-123690000D02*
X149221000Y-123690000D01*
D15*
X152016200Y-123690000D02*
X153750000Y-123690000D01*
X150187400Y-123690000D02*
X152016200Y-123690000D01*
X149221000Y-123690000D02*
X150187400Y-123690000D01*
X164005000Y-132962200D02*
X164995600Y-133952800D01*
X160918900Y-132962200D02*
X164005000Y-132962200D01*
X159750000Y-132962200D02*
X160918900Y-132962200D01*
X160918900Y-128428300D02*
X159990600Y-127500000D01*
X160918900Y-132962200D02*
X160918900Y-128428300D01*
X160918900Y-132962200D02*
X160918900Y-132962200D01*
X161490400Y-132962200D02*
X160918900Y-132962200D01*
X162538080Y-131914520D02*
X161490400Y-132962200D01*
X162538080Y-127500000D02*
X162538080Y-131914520D01*
X161719000Y-132733600D02*
X161490400Y-132962200D01*
X161719000Y-127500000D02*
X161719000Y-132733600D01*
X163852600Y-132962200D02*
X164005000Y-132962200D01*
X163852600Y-127500000D02*
X163852600Y-132962200D01*
X162770000Y-118636600D02*
X162770000Y-118636600D01*
X160931600Y-118636600D02*
X162770000Y-118636600D01*
X161719000Y-119424000D02*
X160931600Y-118636600D01*
X161719000Y-127500000D02*
X161719000Y-119424000D01*
X163809420Y-118636600D02*
X165922820Y-120750000D01*
X165922820Y-120750000D02*
X165922820Y-120818340D01*
X162770000Y-118636600D02*
X163809420Y-118636600D01*
X162770000Y-119667400D02*
X163852600Y-120750000D01*
X162770000Y-119383360D02*
X162770000Y-119667400D01*
D16*
X173063840Y-131310000D02*
X173034700Y-131339140D01*
X174900000Y-131310000D02*
X173063840Y-131310000D01*
D15*
X168270000Y-134230000D02*
X168270000Y-134310000D01*
X168250000Y-134250000D02*
X168270000Y-134230000D01*
X172000000Y-134310000D02*
X168270000Y-134310000D01*
X172020000Y-134310000D02*
X172000000Y-134290000D01*
X172000000Y-134290000D02*
X172000000Y-134310000D01*
X172020000Y-132681500D02*
X172020000Y-134310000D01*
X164995600Y-134250000D02*
X168250000Y-134250000D01*
X172020000Y-131310000D02*
X172020000Y-132681500D01*
X172822680Y-131310000D02*
X172020000Y-131310000D01*
X173063840Y-131310000D02*
X172822680Y-131310000D01*
D16*
X172020000Y-126356960D02*
X172018700Y-126355660D01*
X172020000Y-129293140D02*
X172018700Y-129294440D01*
D15*
X172020000Y-130507320D02*
X172822680Y-131310000D01*
X172020000Y-129293140D02*
X172020000Y-130507320D01*
X172020000Y-126356960D02*
X172020000Y-124427800D01*
X172020000Y-130507320D02*
X172020000Y-132681500D01*
X150442600Y-123690000D02*
X153750000Y-120382600D01*
X150187400Y-123690000D02*
X150442600Y-123690000D01*
X152016200Y-123183200D02*
X153006800Y-122192600D01*
X152016200Y-123690000D02*
X152016200Y-123183200D01*
X152250000Y-118250000D02*
X152250000Y-118286200D01*
X152636600Y-118636600D02*
X153750000Y-119750000D01*
D16*
X152250000Y-118260800D02*
X152250000Y-118250000D01*
X152250000Y-118260800D02*
X152625800Y-118636600D01*
D15*
X153750000Y-120382600D02*
X153750000Y-119750000D01*
X152625800Y-118636600D02*
X152636600Y-118636600D01*
D16*
X161500000Y-135816600D02*
X161465000Y-135781600D01*
X161500000Y-135908600D02*
X161500000Y-135816600D01*
X161500000Y-137000000D02*
X161500000Y-135908600D01*
D15*
X161500000Y-135908600D02*
X161500000Y-134250000D01*
X157461800Y-139500000D02*
X157578800Y-139617000D01*
X159500000Y-134250000D02*
X155750000Y-134250000D01*
X155750000Y-139500000D02*
X155750000Y-134250000D01*
X155750000Y-139500000D02*
X156090200Y-139500000D01*
X156090200Y-139500000D02*
X157461800Y-139500000D01*
D16*
X157680400Y-139718600D02*
X157461800Y-139500000D01*
X157680400Y-141090200D02*
X157680400Y-139718600D01*
D15*
X170177200Y-118842800D02*
X168270000Y-120750000D01*
D16*
X170750000Y-118250000D02*
X170716200Y-118250000D01*
X170716200Y-118250000D02*
X170177200Y-118789000D01*
D15*
X170177200Y-118789000D02*
X170177200Y-118842800D01*
X172020000Y-127210400D02*
X172020000Y-126356960D01*
X172020000Y-129293140D02*
X172020000Y-127210400D01*
D16*
X171983200Y-127247200D02*
X172020000Y-127210400D01*
X170761400Y-127196400D02*
X171983200Y-127247200D01*
X150314400Y-126230000D02*
X150314400Y-126205800D01*
X148000000Y-126230000D02*
X150314400Y-126230000D01*
X177034000Y-128770000D02*
X177086000Y-128822000D01*
X177600000Y-130700000D02*
X177600000Y-128828000D01*
X175790600Y-134841800D02*
X175790600Y-133790600D01*
X175790600Y-133790600D02*
X176581200Y-133000000D01*
X176581200Y-133000000D02*
X176581200Y-132918800D01*
X176581200Y-132918800D02*
X177000000Y-132500000D01*
X177000000Y-132500000D02*
X177000000Y-131300000D01*
X177000000Y-131300000D02*
X177600000Y-130700000D01*
X177594000Y-128822000D02*
X177086000Y-128822000D01*
X177600000Y-128828000D02*
X177594000Y-128822000D01*
X177034000Y-128770000D02*
X174900000Y-128770000D01*
X175790600Y-135451400D02*
X175790600Y-134841800D01*
X169720000Y-141522000D02*
X175790600Y-135451400D01*
X168704000Y-141522000D02*
X169720000Y-141522000D01*
X167281600Y-142944400D02*
X168704000Y-141522000D01*
X166621200Y-142944400D02*
X167281600Y-142944400D01*
X150314400Y-131310000D02*
X150315600Y-131311200D01*
X150315600Y-131311200D02*
X150314400Y-131311200D01*
X157000000Y-131310000D02*
X150314400Y-131310000D01*
X160220400Y-143233610D02*
X160227324Y-143226686D01*
X160220400Y-141090200D02*
X160220400Y-143233610D01*
X157147000Y-143300000D02*
X156689800Y-142842800D01*
X156689800Y-142842800D02*
X155877000Y-142842800D01*
X157147000Y-143376200D02*
X160077810Y-143376200D01*
X160077810Y-143376200D02*
X160227324Y-143226686D01*
X150314400Y-131311200D02*
X150314400Y-137915200D01*
X155242000Y-142842800D02*
X150314400Y-137915200D01*
X155877000Y-142842800D02*
X155242000Y-142842800D01*
X157147000Y-143376200D02*
X157147000Y-143300000D01*
D15*
X160931600Y-126559000D02*
X159990600Y-127500000D01*
X160931600Y-118636600D02*
X160931600Y-126559000D01*
X159750000Y-118674200D02*
X159787600Y-118636600D01*
X159787600Y-118636600D02*
X160931600Y-118636600D01*
X159750000Y-127500000D02*
X159750000Y-118674200D01*
D16*
X162770000Y-115000000D02*
X162770000Y-111804000D01*
X162862000Y-111804000D02*
X162770000Y-111804000D01*
X174952000Y-126282000D02*
X174900000Y-126230000D01*
X177086000Y-122472000D02*
X177086000Y-126282000D01*
X176324000Y-121710000D02*
X177086000Y-122472000D01*
X176070000Y-121456000D02*
X176324000Y-121710000D01*
X176070000Y-120186000D02*
X176070000Y-121456000D01*
X169720000Y-113836000D02*
X176070000Y-120186000D01*
X169720000Y-113582000D02*
X169720000Y-113836000D01*
X168958000Y-112820000D02*
X169720000Y-113582000D01*
X167434000Y-112820000D02*
X168958000Y-112820000D01*
X166418000Y-111804000D02*
X167434000Y-112820000D01*
X165910000Y-111804000D02*
X166418000Y-111804000D01*
X177086000Y-126282000D02*
X174952000Y-126282000D01*
X165910000Y-111804000D02*
X162862000Y-111804000D01*
X156512000Y-111804000D02*
X162862000Y-111804000D01*
X145590000Y-122726000D02*
X145590000Y-124758000D01*
X146606000Y-121710000D02*
X145590000Y-122726000D01*
X146606000Y-120694000D02*
X146606000Y-121710000D01*
X149146000Y-118154000D02*
X146606000Y-120694000D01*
X149146000Y-116630000D02*
X149146000Y-118154000D01*
X151432000Y-114344000D02*
X149146000Y-116630000D01*
X152194000Y-114344000D02*
X151432000Y-114344000D01*
X153464000Y-113074000D02*
X152194000Y-114344000D01*
X155242000Y-113074000D02*
X153464000Y-113074000D01*
X156512000Y-111804000D02*
X155242000Y-113074000D01*
X148000000Y-128770000D02*
X145590000Y-128770000D01*
X145590000Y-124758000D02*
X145590000Y-128770000D01*
X182590000Y-124758000D02*
X182590000Y-128770000D01*
X185000000Y-128770000D02*
X182590000Y-128770000D01*
X193512000Y-111804000D02*
X192242000Y-113074000D01*
X192242000Y-113074000D02*
X190464000Y-113074000D01*
X190464000Y-113074000D02*
X189194000Y-114344000D01*
X189194000Y-114344000D02*
X188432000Y-114344000D01*
X188432000Y-114344000D02*
X186146000Y-116630000D01*
X186146000Y-116630000D02*
X186146000Y-118154000D01*
X186146000Y-118154000D02*
X183606000Y-120694000D01*
X183606000Y-120694000D02*
X183606000Y-121710000D01*
X183606000Y-121710000D02*
X182590000Y-122726000D01*
X182590000Y-122726000D02*
X182590000Y-124758000D01*
X193512000Y-111804000D02*
X199862000Y-111804000D01*
X202910000Y-111804000D02*
X199862000Y-111804000D01*
X214086000Y-126282000D02*
X211952000Y-126282000D01*
X202910000Y-111804000D02*
X203418000Y-111804000D01*
X203418000Y-111804000D02*
X204434000Y-112820000D01*
X204434000Y-112820000D02*
X205958000Y-112820000D01*
X205958000Y-112820000D02*
X206720000Y-113582000D01*
X206720000Y-113582000D02*
X206720000Y-113836000D01*
X206720000Y-113836000D02*
X213070000Y-120186000D01*
X213070000Y-120186000D02*
X213070000Y-121456000D01*
X213070000Y-121456000D02*
X213324000Y-121710000D01*
X213324000Y-121710000D02*
X214086000Y-122472000D01*
X214086000Y-122472000D02*
X214086000Y-126282000D01*
X211952000Y-126282000D02*
X211900000Y-126230000D01*
X199862000Y-111804000D02*
X199770000Y-111804000D01*
X199770000Y-115000000D02*
X199770000Y-111804000D01*
D15*
X196750000Y-127500000D02*
X196750000Y-118674200D01*
X196787600Y-118636600D02*
X197931600Y-118636600D01*
X196750000Y-118674200D02*
X196787600Y-118636600D01*
X197931600Y-118636600D02*
X197931600Y-126559000D01*
X197931600Y-126559000D02*
X196990600Y-127500000D01*
D16*
X194147000Y-143376200D02*
X194147000Y-143300000D01*
X192877000Y-142842800D02*
X192242000Y-142842800D01*
X192242000Y-142842800D02*
X187314400Y-137915200D01*
X187314400Y-131311200D02*
X187314400Y-137915200D01*
X197077810Y-143376200D02*
X197227324Y-143226686D01*
X194147000Y-143376200D02*
X197077810Y-143376200D01*
X193689800Y-142842800D02*
X192877000Y-142842800D01*
X194147000Y-143300000D02*
X193689800Y-142842800D01*
X197220400Y-141090200D02*
X197220400Y-143233610D01*
X197220400Y-143233610D02*
X197227324Y-143226686D01*
X194000000Y-131310000D02*
X187314400Y-131310000D01*
X187315600Y-131311200D02*
X187314400Y-131311200D01*
X187314400Y-131310000D02*
X187315600Y-131311200D01*
X203621200Y-142944400D02*
X204281600Y-142944400D01*
X204281600Y-142944400D02*
X205704000Y-141522000D01*
X205704000Y-141522000D02*
X206720000Y-141522000D01*
X206720000Y-141522000D02*
X212790600Y-135451400D01*
X212790600Y-135451400D02*
X212790600Y-134841800D01*
X214034000Y-128770000D02*
X211900000Y-128770000D01*
X214600000Y-128828000D02*
X214594000Y-128822000D01*
X214594000Y-128822000D02*
X214086000Y-128822000D01*
X214000000Y-131300000D02*
X214600000Y-130700000D01*
X214000000Y-132500000D02*
X214000000Y-131300000D01*
X213581200Y-132918800D02*
X214000000Y-132500000D01*
X213581200Y-133000000D02*
X213581200Y-132918800D01*
X212790600Y-133790600D02*
X213581200Y-133000000D01*
X212790600Y-134841800D02*
X212790600Y-133790600D01*
X214600000Y-130700000D02*
X214600000Y-128828000D01*
X214034000Y-128770000D02*
X214086000Y-128822000D01*
X185000000Y-126230000D02*
X187314400Y-126230000D01*
X187314400Y-126230000D02*
X187314400Y-126205800D01*
X207761400Y-127196400D02*
X208983200Y-127247200D01*
X208983200Y-127247200D02*
X209020000Y-127210400D01*
D15*
X209020000Y-129293140D02*
X209020000Y-127210400D01*
X209020000Y-127210400D02*
X209020000Y-126356960D01*
X207177200Y-118789000D02*
X207177200Y-118842800D01*
D16*
X207716200Y-118250000D02*
X207177200Y-118789000D01*
X207750000Y-118250000D02*
X207716200Y-118250000D01*
D15*
X207177200Y-118842800D02*
X205270000Y-120750000D01*
D16*
X194680400Y-141090200D02*
X194680400Y-139718600D01*
X194680400Y-139718600D02*
X194461800Y-139500000D01*
D15*
X193090200Y-139500000D02*
X194461800Y-139500000D01*
X192750000Y-139500000D02*
X193090200Y-139500000D01*
X192750000Y-139500000D02*
X192750000Y-134250000D01*
X196500000Y-134250000D02*
X192750000Y-134250000D01*
X194461800Y-139500000D02*
X194578800Y-139617000D01*
X198500000Y-135908600D02*
X198500000Y-134250000D01*
D16*
X198500000Y-137000000D02*
X198500000Y-135908600D01*
X198500000Y-135908600D02*
X198500000Y-135816600D01*
X198500000Y-135816600D02*
X198465000Y-135781600D01*
D15*
X189625800Y-118636600D02*
X189636600Y-118636600D01*
X190750000Y-120382600D02*
X190750000Y-119750000D01*
D16*
X189250000Y-118260800D02*
X189625800Y-118636600D01*
X189250000Y-118260800D02*
X189250000Y-118250000D01*
D15*
X189636600Y-118636600D02*
X190750000Y-119750000D01*
X189250000Y-118250000D02*
X189250000Y-118286200D01*
X189016200Y-123690000D02*
X189016200Y-123183200D01*
X189016200Y-123183200D02*
X190006800Y-122192600D01*
X187187400Y-123690000D02*
X187442600Y-123690000D01*
X187442600Y-123690000D02*
X190750000Y-120382600D01*
X209020000Y-130507320D02*
X209020000Y-132681500D01*
X209020000Y-126356960D02*
X209020000Y-124427800D01*
X209020000Y-129293140D02*
X209020000Y-130507320D01*
X209020000Y-130507320D02*
X209822680Y-131310000D01*
D16*
X209020000Y-129293140D02*
X209018700Y-129294440D01*
X209020000Y-126356960D02*
X209018700Y-126355660D01*
D15*
X210063840Y-131310000D02*
X209822680Y-131310000D01*
X209822680Y-131310000D02*
X209020000Y-131310000D01*
X209020000Y-131310000D02*
X209020000Y-132681500D01*
X201995600Y-134250000D02*
X205250000Y-134250000D01*
X209020000Y-132681500D02*
X209020000Y-134310000D01*
X209000000Y-134290000D02*
X209000000Y-134310000D01*
X209020000Y-134310000D02*
X209000000Y-134290000D01*
X209000000Y-134310000D02*
X205270000Y-134310000D01*
X205250000Y-134250000D02*
X205270000Y-134230000D01*
X205270000Y-134230000D02*
X205270000Y-134310000D01*
D16*
X211900000Y-131310000D02*
X210063840Y-131310000D01*
X210063840Y-131310000D02*
X210034700Y-131339140D01*
D15*
X199770000Y-119383360D02*
X199770000Y-119667400D01*
X199770000Y-119667400D02*
X200852600Y-120750000D01*
X199770000Y-118636600D02*
X200809420Y-118636600D01*
X202922820Y-120750000D02*
X202922820Y-120818340D01*
X200809420Y-118636600D02*
X202922820Y-120750000D01*
X198719000Y-127500000D02*
X198719000Y-119424000D01*
X198719000Y-119424000D02*
X197931600Y-118636600D01*
X197931600Y-118636600D02*
X199770000Y-118636600D01*
X199770000Y-118636600D02*
X199770000Y-118636600D01*
X200852600Y-127500000D02*
X200852600Y-132962200D01*
X200852600Y-132962200D02*
X201005000Y-132962200D01*
X198719000Y-127500000D02*
X198719000Y-132733600D01*
X198719000Y-132733600D02*
X198490400Y-132962200D01*
X199538080Y-127500000D02*
X199538080Y-131914520D01*
X199538080Y-131914520D02*
X198490400Y-132962200D01*
X198490400Y-132962200D02*
X197918900Y-132962200D01*
X197918900Y-132962200D02*
X197918900Y-132962200D01*
X197918900Y-132962200D02*
X197918900Y-128428300D01*
X197918900Y-128428300D02*
X196990600Y-127500000D01*
X196750000Y-132962200D02*
X197918900Y-132962200D01*
X197918900Y-132962200D02*
X201005000Y-132962200D01*
X201005000Y-132962200D02*
X201995600Y-133952800D01*
X186221000Y-123690000D02*
X187187400Y-123690000D01*
X187187400Y-123690000D02*
X189016200Y-123690000D01*
X189016200Y-123690000D02*
X190750000Y-123690000D01*
D16*
X185000000Y-123690000D02*
X186221000Y-123690000D01*
X186221000Y-123690000D02*
X186247600Y-123716600D01*
D15*
X201995600Y-121745560D02*
X205239180Y-121745560D01*
X205867370Y-121117370D02*
X205867370Y-120750000D01*
X205239180Y-121745560D02*
X205867370Y-121117370D01*
X201995600Y-122743780D02*
X206534580Y-122743780D01*
X206552360Y-122761560D02*
X206552360Y-121802360D01*
X206534580Y-122743780D02*
X206552360Y-122761560D01*
X201995600Y-123640400D02*
X207184820Y-123640400D01*
X207184820Y-123640400D02*
X207228000Y-123597220D01*
X200852600Y-127500000D02*
X200852600Y-120750000D01*
X200852600Y-120750000D02*
X200500000Y-120750000D01*
X199538080Y-127500000D02*
X200852600Y-127500000D01*
X200852600Y-127500000D02*
X201232400Y-127500000D01*
X201232400Y-127500000D02*
X201995600Y-128263200D01*
X201995600Y-128263200D02*
X201995600Y-128263200D01*
X209020000Y-124427800D02*
X203672000Y-124427800D01*
X203672000Y-124427800D02*
X202783000Y-124427800D01*
X202783000Y-124427800D02*
X201995600Y-123640400D01*
X201995600Y-134250000D02*
X201995600Y-133952800D01*
X201995600Y-133952800D02*
X201995600Y-128263200D01*
X201995600Y-128263200D02*
X201995600Y-123640400D01*
X201995600Y-123640400D02*
X201995600Y-122743780D01*
X201995600Y-122743780D02*
X201995600Y-121745560D01*
X201995600Y-121745560D02*
X202922820Y-120818340D01*
X202922820Y-120818340D02*
X202991160Y-120750000D01*
X196750000Y-127500000D02*
X196990600Y-127500000D01*
X196990600Y-127500000D02*
X198719000Y-127500000D01*
X198719000Y-127500000D02*
X199538080Y-127500000D01*
X199770000Y-127268080D02*
X199770000Y-120520000D01*
X199538080Y-127500000D02*
X199770000Y-127268080D01*
D16*
X202747440Y-143226686D02*
X203338914Y-143226686D01*
X203338914Y-143226686D02*
X203621200Y-142944400D01*
X200542374Y-143226686D02*
X202747440Y-143226686D01*
X202747440Y-143226686D02*
X202785886Y-143226686D01*
X197227324Y-143226686D02*
X200542374Y-143226686D01*
X200542374Y-143226686D02*
X200578280Y-143190780D01*
X194000000Y-123690000D02*
X194000000Y-117480000D01*
X194000000Y-117480000D02*
X197230000Y-115000000D01*
X187314400Y-131311200D02*
X187314400Y-126205800D01*
X187314400Y-126205800D02*
X187290200Y-126230000D01*
D15*
X209020000Y-124427800D02*
X209020000Y-124270000D01*
X209020000Y-124270000D02*
X206552360Y-121802360D01*
X205500000Y-120750000D02*
X205867370Y-120750000D01*
X206552360Y-121802360D02*
X205500000Y-120750000D01*
X205867370Y-120750000D02*
X205270000Y-120750000D01*
X198500000Y-134250000D02*
X201995600Y-134250000D01*
X190750000Y-120000000D02*
X190750000Y-120382600D01*
X190750000Y-120382600D02*
X190750000Y-123690000D01*
X196500000Y-134000000D02*
X196500000Y-134250000D01*
X196750000Y-134250000D02*
X196500000Y-134000000D01*
X196750000Y-127500000D02*
X196750000Y-132962200D01*
X196750000Y-132962200D02*
X196750000Y-134250000D01*
X190750000Y-127500000D02*
X196750000Y-127500000D01*
X190750000Y-123690000D02*
X190750000Y-127500000D01*
X205270000Y-120750000D02*
X204337600Y-120750000D01*
X204337600Y-120750000D02*
X202991160Y-120750000D01*
X202991160Y-120750000D02*
X200500000Y-120750000D01*
X200000000Y-120750000D02*
X199770000Y-120520000D01*
X200500000Y-120750000D02*
X200000000Y-120750000D01*
X199770000Y-120520000D02*
X199770000Y-119383360D01*
X199770000Y-119383360D02*
X199770000Y-118636600D01*
X205270000Y-120750000D02*
X205270000Y-120730000D01*
X194680400Y-141090200D02*
X194680400Y-141030200D01*
X196500000Y-134250000D02*
X198500000Y-134250000D01*
X233500000Y-134250000D02*
X235500000Y-134250000D01*
X231680400Y-141090200D02*
X231680400Y-141030200D01*
X242270000Y-120750000D02*
X242270000Y-120730000D01*
X236770000Y-119383360D02*
X236770000Y-118636600D01*
X236770000Y-120520000D02*
X236770000Y-119383360D01*
X237500000Y-120750000D02*
X237000000Y-120750000D01*
X237000000Y-120750000D02*
X236770000Y-120520000D01*
X239991160Y-120750000D02*
X237500000Y-120750000D01*
X241337600Y-120750000D02*
X239991160Y-120750000D01*
X242270000Y-120750000D02*
X241337600Y-120750000D01*
X227750000Y-123690000D02*
X227750000Y-127500000D01*
X227750000Y-127500000D02*
X233750000Y-127500000D01*
X233750000Y-132962200D02*
X233750000Y-134250000D01*
X233750000Y-127500000D02*
X233750000Y-132962200D01*
X233750000Y-134250000D02*
X233500000Y-134000000D01*
X233500000Y-134000000D02*
X233500000Y-134250000D01*
X227750000Y-120382600D02*
X227750000Y-123690000D01*
X227750000Y-120000000D02*
X227750000Y-120382600D01*
X235500000Y-134250000D02*
X238995600Y-134250000D01*
X242867370Y-120750000D02*
X242270000Y-120750000D01*
X243552360Y-121802360D02*
X242500000Y-120750000D01*
X242500000Y-120750000D02*
X242867370Y-120750000D01*
X246020000Y-124270000D02*
X243552360Y-121802360D01*
X246020000Y-124427800D02*
X246020000Y-124270000D01*
D16*
X224314400Y-126205800D02*
X224290200Y-126230000D01*
X224314400Y-131311200D02*
X224314400Y-126205800D01*
X231000000Y-117480000D02*
X234230000Y-115000000D01*
X231000000Y-123690000D02*
X231000000Y-117480000D01*
X237542374Y-143226686D02*
X237578280Y-143190780D01*
X234227324Y-143226686D02*
X237542374Y-143226686D01*
X239747440Y-143226686D02*
X239785886Y-143226686D01*
X237542374Y-143226686D02*
X239747440Y-143226686D01*
X240338914Y-143226686D02*
X240621200Y-142944400D01*
X239747440Y-143226686D02*
X240338914Y-143226686D01*
D15*
X236538080Y-127500000D02*
X236770000Y-127268080D01*
X236770000Y-127268080D02*
X236770000Y-120520000D01*
X235719000Y-127500000D02*
X236538080Y-127500000D01*
X233990600Y-127500000D02*
X235719000Y-127500000D01*
X233750000Y-127500000D02*
X233990600Y-127500000D01*
X239922820Y-120818340D02*
X239991160Y-120750000D01*
X238995600Y-121745560D02*
X239922820Y-120818340D01*
X238995600Y-122743780D02*
X238995600Y-121745560D01*
X238995600Y-123640400D02*
X238995600Y-122743780D01*
X238995600Y-128263200D02*
X238995600Y-123640400D01*
X238995600Y-133952800D02*
X238995600Y-128263200D01*
X238995600Y-134250000D02*
X238995600Y-133952800D01*
X239783000Y-124427800D02*
X238995600Y-123640400D01*
X240672000Y-124427800D02*
X239783000Y-124427800D01*
X246020000Y-124427800D02*
X240672000Y-124427800D01*
X238995600Y-128263200D02*
X238995600Y-128263200D01*
X238232400Y-127500000D02*
X238995600Y-128263200D01*
X237852600Y-127500000D02*
X238232400Y-127500000D01*
X236538080Y-127500000D02*
X237852600Y-127500000D01*
X237852600Y-120750000D02*
X237500000Y-120750000D01*
X237852600Y-127500000D02*
X237852600Y-120750000D01*
X244184820Y-123640400D02*
X244228000Y-123597220D01*
X238995600Y-123640400D02*
X244184820Y-123640400D01*
X243534580Y-122743780D02*
X243552360Y-122761560D01*
X243552360Y-122761560D02*
X243552360Y-121802360D01*
X238995600Y-122743780D02*
X243534580Y-122743780D01*
X242239180Y-121745560D02*
X242867370Y-121117370D01*
X242867370Y-121117370D02*
X242867370Y-120750000D01*
X238995600Y-121745560D02*
X242239180Y-121745560D01*
D16*
X223221000Y-123690000D02*
X223247600Y-123716600D01*
X222000000Y-123690000D02*
X223221000Y-123690000D01*
D15*
X226016200Y-123690000D02*
X227750000Y-123690000D01*
X224187400Y-123690000D02*
X226016200Y-123690000D01*
X223221000Y-123690000D02*
X224187400Y-123690000D01*
X238005000Y-132962200D02*
X238995600Y-133952800D01*
X234918900Y-132962200D02*
X238005000Y-132962200D01*
X233750000Y-132962200D02*
X234918900Y-132962200D01*
X234918900Y-128428300D02*
X233990600Y-127500000D01*
X234918900Y-132962200D02*
X234918900Y-128428300D01*
X234918900Y-132962200D02*
X234918900Y-132962200D01*
X235490400Y-132962200D02*
X234918900Y-132962200D01*
X236538080Y-131914520D02*
X235490400Y-132962200D01*
X236538080Y-127500000D02*
X236538080Y-131914520D01*
X235719000Y-132733600D02*
X235490400Y-132962200D01*
X235719000Y-127500000D02*
X235719000Y-132733600D01*
X237852600Y-132962200D02*
X238005000Y-132962200D01*
X237852600Y-127500000D02*
X237852600Y-132962200D01*
X236770000Y-118636600D02*
X236770000Y-118636600D01*
X234931600Y-118636600D02*
X236770000Y-118636600D01*
X235719000Y-119424000D02*
X234931600Y-118636600D01*
X235719000Y-127500000D02*
X235719000Y-119424000D01*
X237809420Y-118636600D02*
X239922820Y-120750000D01*
X239922820Y-120750000D02*
X239922820Y-120818340D01*
X236770000Y-118636600D02*
X237809420Y-118636600D01*
X236770000Y-119667400D02*
X237852600Y-120750000D01*
X236770000Y-119383360D02*
X236770000Y-119667400D01*
D16*
X247063840Y-131310000D02*
X247034700Y-131339140D01*
X248900000Y-131310000D02*
X247063840Y-131310000D01*
D15*
X242270000Y-134230000D02*
X242270000Y-134310000D01*
X242250000Y-134250000D02*
X242270000Y-134230000D01*
X246000000Y-134310000D02*
X242270000Y-134310000D01*
X246020000Y-134310000D02*
X246000000Y-134290000D01*
X246000000Y-134290000D02*
X246000000Y-134310000D01*
X246020000Y-132681500D02*
X246020000Y-134310000D01*
X238995600Y-134250000D02*
X242250000Y-134250000D01*
X246020000Y-131310000D02*
X246020000Y-132681500D01*
X246822680Y-131310000D02*
X246020000Y-131310000D01*
X247063840Y-131310000D02*
X246822680Y-131310000D01*
D16*
X246020000Y-126356960D02*
X246018700Y-126355660D01*
X246020000Y-129293140D02*
X246018700Y-129294440D01*
D15*
X246020000Y-130507320D02*
X246822680Y-131310000D01*
X246020000Y-129293140D02*
X246020000Y-130507320D01*
X246020000Y-126356960D02*
X246020000Y-124427800D01*
X246020000Y-130507320D02*
X246020000Y-132681500D01*
X224442600Y-123690000D02*
X227750000Y-120382600D01*
X224187400Y-123690000D02*
X224442600Y-123690000D01*
X226016200Y-123183200D02*
X227006800Y-122192600D01*
X226016200Y-123690000D02*
X226016200Y-123183200D01*
X226250000Y-118250000D02*
X226250000Y-118286200D01*
X226636600Y-118636600D02*
X227750000Y-119750000D01*
D16*
X226250000Y-118260800D02*
X226250000Y-118250000D01*
X226250000Y-118260800D02*
X226625800Y-118636600D01*
D15*
X227750000Y-120382600D02*
X227750000Y-119750000D01*
X226625800Y-118636600D02*
X226636600Y-118636600D01*
D16*
X235500000Y-135816600D02*
X235465000Y-135781600D01*
X235500000Y-135908600D02*
X235500000Y-135816600D01*
X235500000Y-137000000D02*
X235500000Y-135908600D01*
D15*
X235500000Y-135908600D02*
X235500000Y-134250000D01*
X231461800Y-139500000D02*
X231578800Y-139617000D01*
X233500000Y-134250000D02*
X229750000Y-134250000D01*
X229750000Y-139500000D02*
X229750000Y-134250000D01*
X229750000Y-139500000D02*
X230090200Y-139500000D01*
X230090200Y-139500000D02*
X231461800Y-139500000D01*
D16*
X231680400Y-139718600D02*
X231461800Y-139500000D01*
X231680400Y-141090200D02*
X231680400Y-139718600D01*
D15*
X244177200Y-118842800D02*
X242270000Y-120750000D01*
D16*
X244750000Y-118250000D02*
X244716200Y-118250000D01*
X244716200Y-118250000D02*
X244177200Y-118789000D01*
D15*
X244177200Y-118789000D02*
X244177200Y-118842800D01*
X246020000Y-127210400D02*
X246020000Y-126356960D01*
X246020000Y-129293140D02*
X246020000Y-127210400D01*
D16*
X245983200Y-127247200D02*
X246020000Y-127210400D01*
X244761400Y-127196400D02*
X245983200Y-127247200D01*
X224314400Y-126230000D02*
X224314400Y-126205800D01*
X222000000Y-126230000D02*
X224314400Y-126230000D01*
X251034000Y-128770000D02*
X251086000Y-128822000D01*
X251600000Y-130700000D02*
X251600000Y-128828000D01*
X249790600Y-134841800D02*
X249790600Y-133790600D01*
X249790600Y-133790600D02*
X250581200Y-133000000D01*
X250581200Y-133000000D02*
X250581200Y-132918800D01*
X250581200Y-132918800D02*
X251000000Y-132500000D01*
X251000000Y-132500000D02*
X251000000Y-131300000D01*
X251000000Y-131300000D02*
X251600000Y-130700000D01*
X251594000Y-128822000D02*
X251086000Y-128822000D01*
X251600000Y-128828000D02*
X251594000Y-128822000D01*
X251034000Y-128770000D02*
X248900000Y-128770000D01*
X249790600Y-135451400D02*
X249790600Y-134841800D01*
X243720000Y-141522000D02*
X249790600Y-135451400D01*
X242704000Y-141522000D02*
X243720000Y-141522000D01*
X241281600Y-142944400D02*
X242704000Y-141522000D01*
X240621200Y-142944400D02*
X241281600Y-142944400D01*
X224314400Y-131310000D02*
X224315600Y-131311200D01*
X224315600Y-131311200D02*
X224314400Y-131311200D01*
X231000000Y-131310000D02*
X224314400Y-131310000D01*
X234220400Y-143233610D02*
X234227324Y-143226686D01*
X234220400Y-141090200D02*
X234220400Y-143233610D01*
X231147000Y-143300000D02*
X230689800Y-142842800D01*
X230689800Y-142842800D02*
X229877000Y-142842800D01*
X231147000Y-143376200D02*
X234077810Y-143376200D01*
X234077810Y-143376200D02*
X234227324Y-143226686D01*
X224314400Y-131311200D02*
X224314400Y-137915200D01*
X229242000Y-142842800D02*
X224314400Y-137915200D01*
X229877000Y-142842800D02*
X229242000Y-142842800D01*
X231147000Y-143376200D02*
X231147000Y-143300000D01*
D15*
X234931600Y-126559000D02*
X233990600Y-127500000D01*
X234931600Y-118636600D02*
X234931600Y-126559000D01*
X233750000Y-118674200D02*
X233787600Y-118636600D01*
X233787600Y-118636600D02*
X234931600Y-118636600D01*
X233750000Y-127500000D02*
X233750000Y-118674200D01*
D16*
X236770000Y-115000000D02*
X236770000Y-111804000D01*
X236862000Y-111804000D02*
X236770000Y-111804000D01*
X248952000Y-126282000D02*
X248900000Y-126230000D01*
X251086000Y-122472000D02*
X251086000Y-126282000D01*
X250324000Y-121710000D02*
X251086000Y-122472000D01*
X250070000Y-121456000D02*
X250324000Y-121710000D01*
X250070000Y-120186000D02*
X250070000Y-121456000D01*
X243720000Y-113836000D02*
X250070000Y-120186000D01*
X243720000Y-113582000D02*
X243720000Y-113836000D01*
X242958000Y-112820000D02*
X243720000Y-113582000D01*
X241434000Y-112820000D02*
X242958000Y-112820000D01*
X240418000Y-111804000D02*
X241434000Y-112820000D01*
X239910000Y-111804000D02*
X240418000Y-111804000D01*
X251086000Y-126282000D02*
X248952000Y-126282000D01*
X239910000Y-111804000D02*
X236862000Y-111804000D01*
X230512000Y-111804000D02*
X236862000Y-111804000D01*
X219590000Y-122726000D02*
X219590000Y-124758000D01*
X220606000Y-121710000D02*
X219590000Y-122726000D01*
X220606000Y-120694000D02*
X220606000Y-121710000D01*
X223146000Y-118154000D02*
X220606000Y-120694000D01*
X223146000Y-116630000D02*
X223146000Y-118154000D01*
X225432000Y-114344000D02*
X223146000Y-116630000D01*
X226194000Y-114344000D02*
X225432000Y-114344000D01*
X227464000Y-113074000D02*
X226194000Y-114344000D01*
X229242000Y-113074000D02*
X227464000Y-113074000D01*
X230512000Y-111804000D02*
X229242000Y-113074000D01*
X222000000Y-128770000D02*
X219590000Y-128770000D01*
X219590000Y-124758000D02*
X219590000Y-128770000D01*
X108590000Y-124758000D02*
X108590000Y-128770000D01*
X111000000Y-128770000D02*
X108590000Y-128770000D01*
X119512000Y-111804000D02*
X118242000Y-113074000D01*
X118242000Y-113074000D02*
X116464000Y-113074000D01*
X116464000Y-113074000D02*
X115194000Y-114344000D01*
X115194000Y-114344000D02*
X114432000Y-114344000D01*
X114432000Y-114344000D02*
X112146000Y-116630000D01*
X112146000Y-116630000D02*
X112146000Y-118154000D01*
X112146000Y-118154000D02*
X109606000Y-120694000D01*
X109606000Y-120694000D02*
X109606000Y-121710000D01*
X109606000Y-121710000D02*
X108590000Y-122726000D01*
X108590000Y-122726000D02*
X108590000Y-124758000D01*
X119512000Y-111804000D02*
X125862000Y-111804000D01*
X128910000Y-111804000D02*
X125862000Y-111804000D01*
X140086000Y-126282000D02*
X137952000Y-126282000D01*
X128910000Y-111804000D02*
X129418000Y-111804000D01*
X129418000Y-111804000D02*
X130434000Y-112820000D01*
X130434000Y-112820000D02*
X131958000Y-112820000D01*
X131958000Y-112820000D02*
X132720000Y-113582000D01*
X132720000Y-113582000D02*
X132720000Y-113836000D01*
X132720000Y-113836000D02*
X139070000Y-120186000D01*
X139070000Y-120186000D02*
X139070000Y-121456000D01*
X139070000Y-121456000D02*
X139324000Y-121710000D01*
X139324000Y-121710000D02*
X140086000Y-122472000D01*
X140086000Y-122472000D02*
X140086000Y-126282000D01*
X137952000Y-126282000D02*
X137900000Y-126230000D01*
X125862000Y-111804000D02*
X125770000Y-111804000D01*
X125770000Y-115000000D02*
X125770000Y-111804000D01*
D15*
X122750000Y-127500000D02*
X122750000Y-118674200D01*
X122787600Y-118636600D02*
X123931600Y-118636600D01*
X122750000Y-118674200D02*
X122787600Y-118636600D01*
X123931600Y-118636600D02*
X123931600Y-126559000D01*
X123931600Y-126559000D02*
X122990600Y-127500000D01*
D16*
X120147000Y-143376200D02*
X120147000Y-143300000D01*
X118877000Y-142842800D02*
X118242000Y-142842800D01*
X118242000Y-142842800D02*
X113314400Y-137915200D01*
X113314400Y-131311200D02*
X113314400Y-137915200D01*
X123077810Y-143376200D02*
X123227324Y-143226686D01*
X120147000Y-143376200D02*
X123077810Y-143376200D01*
X119689800Y-142842800D02*
X118877000Y-142842800D01*
X120147000Y-143300000D02*
X119689800Y-142842800D01*
X123220400Y-141090200D02*
X123220400Y-143233610D01*
X123220400Y-143233610D02*
X123227324Y-143226686D01*
X120000000Y-131310000D02*
X113314400Y-131310000D01*
X113315600Y-131311200D02*
X113314400Y-131311200D01*
X113314400Y-131310000D02*
X113315600Y-131311200D01*
X129621200Y-142944400D02*
X130281600Y-142944400D01*
X130281600Y-142944400D02*
X131704000Y-141522000D01*
X131704000Y-141522000D02*
X132720000Y-141522000D01*
X132720000Y-141522000D02*
X138790600Y-135451400D01*
X138790600Y-135451400D02*
X138790600Y-134841800D01*
X140034000Y-128770000D02*
X137900000Y-128770000D01*
X140600000Y-128828000D02*
X140594000Y-128822000D01*
X140594000Y-128822000D02*
X140086000Y-128822000D01*
X140000000Y-131300000D02*
X140600000Y-130700000D01*
X140000000Y-132500000D02*
X140000000Y-131300000D01*
X139581200Y-132918800D02*
X140000000Y-132500000D01*
X139581200Y-133000000D02*
X139581200Y-132918800D01*
X138790600Y-133790600D02*
X139581200Y-133000000D01*
X138790600Y-134841800D02*
X138790600Y-133790600D01*
X140600000Y-130700000D02*
X140600000Y-128828000D01*
X140034000Y-128770000D02*
X140086000Y-128822000D01*
X111000000Y-126230000D02*
X113314400Y-126230000D01*
X113314400Y-126230000D02*
X113314400Y-126205800D01*
X133761400Y-127196400D02*
X134983200Y-127247200D01*
X134983200Y-127247200D02*
X135020000Y-127210400D01*
D15*
X135020000Y-129293140D02*
X135020000Y-127210400D01*
X135020000Y-127210400D02*
X135020000Y-126356960D01*
X133177200Y-118789000D02*
X133177200Y-118842800D01*
D16*
X133716200Y-118250000D02*
X133177200Y-118789000D01*
X133750000Y-118250000D02*
X133716200Y-118250000D01*
D15*
X133177200Y-118842800D02*
X131270000Y-120750000D01*
D16*
X120680400Y-141090200D02*
X120680400Y-139718600D01*
X120680400Y-139718600D02*
X120461800Y-139500000D01*
D15*
X119090200Y-139500000D02*
X120461800Y-139500000D01*
X118750000Y-139500000D02*
X119090200Y-139500000D01*
X118750000Y-139500000D02*
X118750000Y-134250000D01*
X122500000Y-134250000D02*
X118750000Y-134250000D01*
X120461800Y-139500000D02*
X120578800Y-139617000D01*
X124500000Y-135908600D02*
X124500000Y-134250000D01*
D16*
X124500000Y-137000000D02*
X124500000Y-135908600D01*
X124500000Y-135908600D02*
X124500000Y-135816600D01*
X124500000Y-135816600D02*
X124465000Y-135781600D01*
D15*
X115625800Y-118636600D02*
X115636600Y-118636600D01*
X116750000Y-120382600D02*
X116750000Y-119750000D01*
D16*
X115250000Y-118260800D02*
X115625800Y-118636600D01*
X115250000Y-118260800D02*
X115250000Y-118250000D01*
D15*
X115636600Y-118636600D02*
X116750000Y-119750000D01*
X115250000Y-118250000D02*
X115250000Y-118286200D01*
X115016200Y-123690000D02*
X115016200Y-123183200D01*
X115016200Y-123183200D02*
X116006800Y-122192600D01*
X113187400Y-123690000D02*
X113442600Y-123690000D01*
X113442600Y-123690000D02*
X116750000Y-120382600D01*
X135020000Y-130507320D02*
X135020000Y-132681500D01*
X135020000Y-126356960D02*
X135020000Y-124427800D01*
X135020000Y-129293140D02*
X135020000Y-130507320D01*
X135020000Y-130507320D02*
X135822680Y-131310000D01*
D16*
X135020000Y-129293140D02*
X135018700Y-129294440D01*
X135020000Y-126356960D02*
X135018700Y-126355660D01*
D15*
X136063840Y-131310000D02*
X135822680Y-131310000D01*
X135822680Y-131310000D02*
X135020000Y-131310000D01*
X135020000Y-131310000D02*
X135020000Y-132681500D01*
X127995600Y-134250000D02*
X131250000Y-134250000D01*
X135020000Y-132681500D02*
X135020000Y-134310000D01*
X135000000Y-134290000D02*
X135000000Y-134310000D01*
X135020000Y-134310000D02*
X135000000Y-134290000D01*
X135000000Y-134310000D02*
X131270000Y-134310000D01*
X131250000Y-134250000D02*
X131270000Y-134230000D01*
X131270000Y-134230000D02*
X131270000Y-134310000D01*
D16*
X137900000Y-131310000D02*
X136063840Y-131310000D01*
X136063840Y-131310000D02*
X136034700Y-131339140D01*
D15*
X125770000Y-119383360D02*
X125770000Y-119667400D01*
X125770000Y-119667400D02*
X126852600Y-120750000D01*
X125770000Y-118636600D02*
X126809420Y-118636600D01*
X128922820Y-120750000D02*
X128922820Y-120818340D01*
X126809420Y-118636600D02*
X128922820Y-120750000D01*
X124719000Y-127500000D02*
X124719000Y-119424000D01*
X124719000Y-119424000D02*
X123931600Y-118636600D01*
X123931600Y-118636600D02*
X125770000Y-118636600D01*
X125770000Y-118636600D02*
X125770000Y-118636600D01*
X126852600Y-127500000D02*
X126852600Y-132962200D01*
X126852600Y-132962200D02*
X127005000Y-132962200D01*
X124719000Y-127500000D02*
X124719000Y-132733600D01*
X124719000Y-132733600D02*
X124490400Y-132962200D01*
X125538080Y-127500000D02*
X125538080Y-131914520D01*
X125538080Y-131914520D02*
X124490400Y-132962200D01*
X124490400Y-132962200D02*
X123918900Y-132962200D01*
X123918900Y-132962200D02*
X123918900Y-132962200D01*
X123918900Y-132962200D02*
X123918900Y-128428300D01*
X123918900Y-128428300D02*
X122990600Y-127500000D01*
X122750000Y-132962200D02*
X123918900Y-132962200D01*
X123918900Y-132962200D02*
X127005000Y-132962200D01*
X127005000Y-132962200D02*
X127995600Y-133952800D01*
X112221000Y-123690000D02*
X113187400Y-123690000D01*
X113187400Y-123690000D02*
X115016200Y-123690000D01*
X115016200Y-123690000D02*
X116750000Y-123690000D01*
D16*
X111000000Y-123690000D02*
X112221000Y-123690000D01*
X112221000Y-123690000D02*
X112247600Y-123716600D01*
D15*
X127995600Y-121745560D02*
X131239180Y-121745560D01*
X131867370Y-121117370D02*
X131867370Y-120750000D01*
X131239180Y-121745560D02*
X131867370Y-121117370D01*
X127995600Y-122743780D02*
X132534580Y-122743780D01*
X132552360Y-122761560D02*
X132552360Y-121802360D01*
X132534580Y-122743780D02*
X132552360Y-122761560D01*
X127995600Y-123640400D02*
X133184820Y-123640400D01*
X133184820Y-123640400D02*
X133228000Y-123597220D01*
X126852600Y-127500000D02*
X126852600Y-120750000D01*
X126852600Y-120750000D02*
X126500000Y-120750000D01*
X125538080Y-127500000D02*
X126852600Y-127500000D01*
X126852600Y-127500000D02*
X127232400Y-127500000D01*
X127232400Y-127500000D02*
X127995600Y-128263200D01*
X127995600Y-128263200D02*
X127995600Y-128263200D01*
X135020000Y-124427800D02*
X129672000Y-124427800D01*
X129672000Y-124427800D02*
X128783000Y-124427800D01*
X128783000Y-124427800D02*
X127995600Y-123640400D01*
X127995600Y-134250000D02*
X127995600Y-133952800D01*
X127995600Y-133952800D02*
X127995600Y-128263200D01*
X127995600Y-128263200D02*
X127995600Y-123640400D01*
X127995600Y-123640400D02*
X127995600Y-122743780D01*
X127995600Y-122743780D02*
X127995600Y-121745560D01*
X127995600Y-121745560D02*
X128922820Y-120818340D01*
X128922820Y-120818340D02*
X128991160Y-120750000D01*
X122750000Y-127500000D02*
X122990600Y-127500000D01*
X122990600Y-127500000D02*
X124719000Y-127500000D01*
X124719000Y-127500000D02*
X125538080Y-127500000D01*
X125770000Y-127268080D02*
X125770000Y-120520000D01*
X125538080Y-127500000D02*
X125770000Y-127268080D01*
D16*
X128747440Y-143226686D02*
X129338914Y-143226686D01*
X129338914Y-143226686D02*
X129621200Y-142944400D01*
X126542374Y-143226686D02*
X128747440Y-143226686D01*
X128747440Y-143226686D02*
X128785886Y-143226686D01*
X123227324Y-143226686D02*
X126542374Y-143226686D01*
X126542374Y-143226686D02*
X126578280Y-143190780D01*
X120000000Y-123690000D02*
X120000000Y-117480000D01*
X120000000Y-117480000D02*
X123230000Y-115000000D01*
X113314400Y-131311200D02*
X113314400Y-126205800D01*
X113314400Y-126205800D02*
X113290200Y-126230000D01*
D15*
X135020000Y-124427800D02*
X135020000Y-124270000D01*
X135020000Y-124270000D02*
X132552360Y-121802360D01*
X131500000Y-120750000D02*
X131867370Y-120750000D01*
X132552360Y-121802360D02*
X131500000Y-120750000D01*
X131867370Y-120750000D02*
X131270000Y-120750000D01*
X124500000Y-134250000D02*
X127995600Y-134250000D01*
X116750000Y-120000000D02*
X116750000Y-120382600D01*
X116750000Y-120382600D02*
X116750000Y-123690000D01*
X122500000Y-134000000D02*
X122500000Y-134250000D01*
X122750000Y-134250000D02*
X122500000Y-134000000D01*
X122750000Y-127500000D02*
X122750000Y-132962200D01*
X122750000Y-132962200D02*
X122750000Y-134250000D01*
X116750000Y-127500000D02*
X122750000Y-127500000D01*
X116750000Y-123690000D02*
X116750000Y-127500000D01*
X131270000Y-120750000D02*
X130337600Y-120750000D01*
X130337600Y-120750000D02*
X128991160Y-120750000D01*
X128991160Y-120750000D02*
X126500000Y-120750000D01*
X126000000Y-120750000D02*
X125770000Y-120520000D01*
X126500000Y-120750000D02*
X126000000Y-120750000D01*
X125770000Y-120520000D02*
X125770000Y-119383360D01*
X125770000Y-119383360D02*
X125770000Y-118636600D01*
X131270000Y-120750000D02*
X131270000Y-120730000D01*
X120680400Y-141090200D02*
X120680400Y-141030200D01*
X122500000Y-134250000D02*
X124500000Y-134250000D01*
M02*
